%FSLAX36Y36*%
%MOMM*%
%LNBOARD_OUTLINE*%
%ADD10C,0.01*%
G54D10*
X-3093729Y7214330D02*
X13943559Y5610380D01*
G75*
G01X13943559Y5610380D02*
G02X21453290Y0I-843558J-8960374D01*
G01*
X21453290Y0D02*
X39900001Y0D01*
X39900001Y0D02*
X39900001Y8350000D01*
G75*
G01X39900001Y8350000D02*
G02X42599998Y11050000I2700001J-1D01*
G01*
X42599998Y11050000D02*
X46799999Y11050000D01*
G75*
G01X46799999Y11050000D02*
G02X49450168Y8866339I-2J-2700004D01*
G01*
G75*
G01X49450168Y8866339D02*
G03X50058311Y8475930I490769J95616D01*
G01*
G75*
G01X50058311Y8475930D02*
G03X50058311Y52024070I-5258321J21774070D01*
G01*
G75*
G01X50058311Y52024070D02*
G03X49450168Y51633659I-117370J-486028D01*
G01*
G75*
G01X49450168Y51633659D02*
G02X46799999Y49450000I-2650166J516339D01*
G01*
X46799999Y49450000D02*
X42599998Y49450000D01*
G75*
G01X42599998Y49450000D02*
G02X39900001Y52150001I0J2699996D01*
G01*
X39900001Y52150001D02*
X39900001Y60500000D01*
X39900001Y60500000D02*
X21453290Y60500000D01*
G75*
G01X21453290Y60500000D02*
G02X13943559Y54889621I-8353288J3349996D01*
G01*
X13943559Y54889621D02*
X-3093729Y53285671D01*
G75*
G01X-3093729Y53285671D02*
G03X-4000000Y52290069I93734J-995601D01*
G01*
X-4000000Y52290069D02*
X-4000000Y8209930D01*
G75*
G01X-4000000Y8209930D02*
G03X-3093729Y7214330I1000003J0D01*
G01*
M02*
