%FSLAX36Y36*%
%MOMM*%
%LNmainlayer*%
%ADD10C,0.01*%
G54D10*
X1279049Y34990D02*
X1279049Y86170D01*
G75*
G01X1279049Y86170D02*
G03X1273285Y100085I-19679J0D01*
G01*
G75*
G01X1273285Y100085D02*
G03X1259369Y105850I-13915J-13915D01*
G01*
G75*
G01X1259369Y105850D02*
G02X1259364Y105850I-2J20028D01*
G01*
G75*
G01X1259364Y105850D02*
G02X1259359Y105850I-2J20028D01*
G01*
X1259359Y105850D02*
X290859Y105850D01*
G75*
G01X290859Y105850D02*
G02X263021Y117381I0J39370D01*
G01*
G75*
G01X263021Y117381D02*
G02X251489Y145219I27838J27838D01*
G01*
X251489Y145219D02*
X251489Y2267270D01*
G75*
G01X251489Y2267270D02*
G02X263021Y2295108I39369J0D01*
G01*
G75*
G01X263021Y2295108D02*
G02X290859Y2306639I27838J-27838D01*
G01*
X290859Y2306639D02*
X1259359Y2306639D01*
G75*
G01X1259359Y2306639D02*
G03X1273282Y2312407I0J19690D01*
G01*
G75*
G01X1273282Y2312407D02*
G03X1279049Y2326329I-13922J13922D01*
G01*
X1279049Y2326329D02*
X1279049Y2373569D01*
G75*
G01X1279049Y2373569D02*
G02X1284814Y2387485I19679J0D01*
G01*
G75*
G01X1284814Y2387485D02*
G02X1298730Y2393249I13916J-13915D01*
G01*
X1298730Y2393249D02*
X1664870Y2393249D01*
G75*
G01X1664870Y2393249D02*
G02X1692708Y2381718I0J-39369D01*
G01*
G75*
G01X1692708Y2381718D02*
G02X1704239Y2353879I-27839J-27838D01*
G01*
X1704239Y2353879D02*
X1704239Y54669D01*
G75*
G01X1704239Y54669D02*
G02X1692708Y26831I-39369J0D01*
G01*
G75*
G01X1692708Y26831D02*
G02X1664870Y15300I-27838J27838D01*
G01*
X1664870Y15300D02*
X1298730Y15300D01*
X1298730Y15300D02*
X1298730Y15309D01*
G75*
G01X1298730Y15309D02*
G02X1284814Y21074I0J19680D01*
G01*
G75*
G01X1284814Y21074D02*
G02X1279049Y34990I13915J13915D01*
G01*
X1279049Y2460989D02*
X1279049Y2512170D01*
G75*
G01X1279049Y2512170D02*
G03X1273285Y2526085I-19679J0D01*
G01*
G75*
G01X1273285Y2526085D02*
G03X1259369Y2531850I-13916J-13915D01*
G01*
G75*
G01X1259369Y2531850D02*
G02X1259364Y2531850I-2J20028D01*
G01*
G75*
G01X1259364Y2531850D02*
G02X1259359Y2531850I-2J20028D01*
G01*
X1259359Y2531850D02*
X290859Y2531850D01*
G75*
G01X290859Y2531850D02*
G02X263021Y2543381I0J39369D01*
G01*
G75*
G01X263021Y2543381D02*
G02X251489Y2571219I27838J27838D01*
G01*
X251489Y2571219D02*
X251489Y4693270D01*
G75*
G01X251489Y4693270D02*
G02X263021Y4721108I39369J0D01*
G01*
G75*
G01X263021Y4721108D02*
G02X290859Y4732639I27838J-27838D01*
G01*
X290859Y4732639D02*
X1259359Y4732639D01*
G75*
G01X1259359Y4732639D02*
G03X1273282Y4738407I0J19690D01*
G01*
G75*
G01X1273282Y4738407D02*
G03X1279049Y4752329I-13922J13922D01*
G01*
X1279049Y4752329D02*
X1279049Y4799570D01*
G75*
G01X1279049Y4799570D02*
G02X1284814Y4813486I19680J0D01*
G01*
G75*
G01X1284814Y4813486D02*
G02X1298730Y4819250I13915J-13915D01*
G01*
X1298730Y4819250D02*
X1664870Y4819250D01*
G75*
G01X1664870Y4819250D02*
G02X1692708Y4807718I0J-39370D01*
G01*
G75*
G01X1692708Y4807718D02*
G02X1704239Y4779880I-27838J-27838D01*
G01*
X1704239Y4779880D02*
X1704239Y2480669D01*
G75*
G01X1704239Y2480669D02*
G02X1692708Y2452831I-39369J0D01*
G01*
G75*
G01X1692708Y2452831D02*
G02X1664870Y2441299I-27838J27838D01*
G01*
X1664870Y2441299D02*
X1298730Y2441299D01*
X1298730Y2441299D02*
X1298730Y2441309D01*
G75*
G01X1298730Y2441309D02*
G02X1284814Y2447074I0J19680D01*
G01*
G75*
G01X1284814Y2447074D02*
G02X1279049Y2460989I13915J13915D01*
G01*
X1279049Y4885990D02*
X1279049Y4937170D01*
G75*
G01X1279049Y4937170D02*
G03X1273285Y4951086I-19680J0D01*
G01*
G75*
G01X1273285Y4951086D02*
G03X1259369Y4956850I-13915J-13915D01*
G01*
G75*
G01X1259369Y4956850D02*
G02X1259364Y4956850I-2J20028D01*
G01*
G75*
G01X1259364Y4956850D02*
G02X1259359Y4956850I-2J20028D01*
G01*
X1259359Y4956850D02*
X290859Y4956850D01*
G75*
G01X290859Y4956850D02*
G02X263021Y4968381I0J39370D01*
G01*
G75*
G01X263021Y4968381D02*
G02X251489Y4996220I27838J27838D01*
G01*
X251489Y4996220D02*
X251489Y7118269D01*
G75*
G01X251489Y7118269D02*
G02X263021Y7146108I39369J0D01*
G01*
G75*
G01X263021Y7146108D02*
G02X290859Y7157639I27838J-27838D01*
G01*
X290859Y7157639D02*
X1259359Y7157639D01*
G75*
G01X1259359Y7157639D02*
G03X1273282Y7163406I0J19689D01*
G01*
G75*
G01X1273282Y7163406D02*
G03X1279049Y7177330I-13923J13923D01*
G01*
X1279049Y7177330D02*
X1279049Y7224569D01*
G75*
G01X1279049Y7224569D02*
G02X1284814Y7238485I19680J0D01*
G01*
G75*
G01X1284814Y7238485D02*
G02X1298730Y7244249I13915J-13915D01*
G01*
X1298730Y7244249D02*
X1664870Y7244249D01*
G75*
G01X1664870Y7244249D02*
G02X1692708Y7232718I0J-39369D01*
G01*
G75*
G01X1692708Y7232718D02*
G02X1704239Y7204880I-27838J-27838D01*
G01*
X1704239Y7204880D02*
X1704239Y4905670D01*
G75*
G01X1704239Y4905670D02*
G02X1692708Y4877830I-39370J0D01*
G01*
G75*
G01X1692708Y4877830D02*
G02X1664870Y4866300I-27838J27838D01*
G01*
X1664870Y4866300D02*
X1298730Y4866300D01*
X1298730Y4866300D02*
X1298730Y4866310D01*
G75*
G01X1298730Y4866310D02*
G02X1284814Y4872074I0J19679D01*
G01*
G75*
G01X1284814Y4872074D02*
G02X1279049Y4885990I13916J13915D01*
G01*
X1279049Y7310989D02*
X1279049Y7362170D01*
G75*
G01X1279049Y7362170D02*
G03X1273285Y7376085I-19679J0D01*
G01*
G75*
G01X1273285Y7376085D02*
G03X1259369Y7381849I-13915J-13915D01*
G01*
G75*
G01X1259369Y7381849D02*
G02X1259364Y7381849I-2J20028D01*
G01*
G75*
G01X1259364Y7381849D02*
G02X1259359Y7381849I-2J20028D01*
G01*
X1259359Y7381849D02*
X290859Y7381849D01*
G75*
G01X290859Y7381849D02*
G02X263021Y7393381I0J39370D01*
G01*
G75*
G01X263021Y7393381D02*
G02X251489Y7421219I27838J27838D01*
G01*
X251489Y7421219D02*
X251489Y9543270D01*
G75*
G01X251489Y9543270D02*
G02X263021Y9571108I39369J0D01*
G01*
G75*
G01X263021Y9571108D02*
G02X290859Y9582639I27838J-27838D01*
G01*
X290859Y9582639D02*
X1259359Y9582639D01*
G75*
G01X1259359Y9582639D02*
G03X1273282Y9588407I0J19690D01*
G01*
G75*
G01X1273282Y9588407D02*
G03X1279049Y9602330I-13922J13922D01*
G01*
X1279049Y9602330D02*
X1279049Y9649570D01*
G75*
G01X1279049Y9649570D02*
G02X1284814Y9663485I19679J0D01*
G01*
G75*
G01X1284814Y9663485D02*
G02X1298730Y9669249I13915J-13915D01*
G01*
X1298730Y9669249D02*
X1664870Y9669249D01*
G75*
G01X1664870Y9669249D02*
G02X1692708Y9657718I0J-39369D01*
G01*
G75*
G01X1692708Y9657718D02*
G02X1704239Y9629879I-27838J-27838D01*
G01*
X1704239Y9629879D02*
X1704239Y7330669D01*
G75*
G01X1704239Y7330669D02*
G02X1692708Y7302831I-39369J0D01*
G01*
G75*
G01X1692708Y7302831D02*
G02X1664870Y7291299I-27838J27838D01*
G01*
X1664870Y7291299D02*
X1298730Y7291299D01*
X1298730Y7291299D02*
X1298730Y7291309D01*
G75*
G01X1298730Y7291309D02*
G02X1284814Y7297074I0J19680D01*
G01*
G75*
G01X1284814Y7297074D02*
G02X1279049Y7310989I13915J13915D01*
G01*
X2779050Y34990D02*
X2779050Y86170D01*
G75*
G01X2779050Y86170D02*
G03X2773285Y100085I-19680J0D01*
G01*
G75*
G01X2773285Y100085D02*
G03X2759370Y105850I-13915J-13915D01*
G01*
G75*
G01X2759370Y105850D02*
G02X2759365Y105850I-2J20028D01*
G01*
G75*
G01X2759365Y105850D02*
G02X2759359Y105850I-2J20981D01*
G01*
X2759359Y105850D02*
X1790860Y105850D01*
G75*
G01X1790860Y105850D02*
G02X1763021Y117381I0J39370D01*
G01*
G75*
G01X1763021Y117381D02*
G02X1751489Y145219I27838J27838D01*
G01*
X1751489Y145219D02*
X1751489Y2267270D01*
G75*
G01X1751489Y2267270D02*
G02X1763021Y2295108I39369J0D01*
G01*
G75*
G01X1763021Y2295108D02*
G02X1790860Y2306639I27838J-27838D01*
G01*
X1790860Y2306639D02*
X2759360Y2306639D01*
G75*
G01X2759360Y2306639D02*
G03X2773283Y2312407I0J19690D01*
G01*
G75*
G01X2773283Y2312407D02*
G03X2779050Y2326329I-13922J13922D01*
G01*
X2779050Y2326329D02*
X2779050Y2373569D01*
G75*
G01X2779050Y2373569D02*
G02X2784814Y2387485I19679J0D01*
G01*
G75*
G01X2784814Y2387485D02*
G02X2798729Y2393249I13915J-13915D01*
G01*
X2798729Y2393249D02*
X3164870Y2393249D01*
G75*
G01X3164870Y2393249D02*
G02X3192708Y2381718I0J-39369D01*
G01*
G75*
G01X3192708Y2381718D02*
G02X3204240Y2353879I-27838J-27839D01*
G01*
X3204240Y2353879D02*
X3204240Y54669D01*
G75*
G01X3204240Y54669D02*
G02X3192708Y26831I-39370J0D01*
G01*
G75*
G01X3192708Y26831D02*
G02X3164870Y15300I-27838J27838D01*
G01*
X3164870Y15300D02*
X2798729Y15300D01*
X2798729Y15300D02*
X2798729Y15309D01*
G75*
G01X2798729Y15309D02*
G02X2784814Y21074I0J19679D01*
G01*
G75*
G01X2784814Y21074D02*
G02X2779050Y34990I13915J13915D01*
G01*
X2779050Y2460989D02*
X2779050Y2512170D01*
G75*
G01X2779050Y2512170D02*
G03X2773285Y2526085I-19679J0D01*
G01*
G75*
G01X2773285Y2526085D02*
G03X2759370Y2531850I-13915J-13915D01*
G01*
G75*
G01X2759370Y2531850D02*
G02X2759365Y2531850I-2J20028D01*
G01*
G75*
G01X2759365Y2531850D02*
G02X2759359Y2531850I-2J20981D01*
G01*
X2759359Y2531850D02*
X1790860Y2531850D01*
G75*
G01X1790860Y2531850D02*
G02X1763021Y2543381I0J39369D01*
G01*
G75*
G01X1763021Y2543381D02*
G02X1751489Y2571219I27838J27838D01*
G01*
X1751489Y2571219D02*
X1751489Y4693270D01*
G75*
G01X1751489Y4693270D02*
G02X1763021Y4721108I39369J0D01*
G01*
G75*
G01X1763021Y4721108D02*
G02X1790860Y4732639I27838J-27838D01*
G01*
X1790860Y4732639D02*
X2759360Y4732639D01*
G75*
G01X2759360Y4732639D02*
G03X2773283Y4738407I0J19690D01*
G01*
G75*
G01X2773283Y4738407D02*
G03X2779050Y4752329I-13922J13922D01*
G01*
X2779050Y4752329D02*
X2779050Y4799570D01*
G75*
G01X2779050Y4799570D02*
G02X2784814Y4813486I19680J0D01*
G01*
G75*
G01X2784814Y4813486D02*
G02X2798729Y4819250I13915J-13915D01*
G01*
X2798729Y4819250D02*
X3164870Y4819250D01*
G75*
G01X3164870Y4819250D02*
G02X3192708Y4807718I0J-39369D01*
G01*
G75*
G01X3192708Y4807718D02*
G02X3204240Y4779880I-27838J-27838D01*
G01*
X3204240Y4779880D02*
X3204240Y2480669D01*
G75*
G01X3204240Y2480669D02*
G02X3192708Y2452831I-39369J0D01*
G01*
G75*
G01X3192708Y2452831D02*
G02X3164870Y2441299I-27838J27838D01*
G01*
X3164870Y2441299D02*
X2798729Y2441299D01*
X2798729Y2441299D02*
X2798729Y2441309D01*
G75*
G01X2798729Y2441309D02*
G02X2784814Y2447074I0J19679D01*
G01*
G75*
G01X2784814Y2447074D02*
G02X2779050Y2460989I13915J13915D01*
G01*
X2779050Y4885990D02*
X2779050Y4937170D01*
G75*
G01X2779050Y4937170D02*
G03X2773285Y4951086I-19680J0D01*
G01*
G75*
G01X2773285Y4951086D02*
G03X2759370Y4956850I-13915J-13915D01*
G01*
G75*
G01X2759370Y4956850D02*
G02X2759365Y4956850I-2J20028D01*
G01*
G75*
G01X2759365Y4956850D02*
G02X2759359Y4956850I-2J20981D01*
G01*
X2759359Y4956850D02*
X1790860Y4956850D01*
G75*
G01X1790860Y4956850D02*
G02X1763021Y4968381I0J39370D01*
G01*
G75*
G01X1763021Y4968381D02*
G02X1751489Y4996220I27838J27838D01*
G01*
X1751489Y4996220D02*
X1751489Y7118269D01*
G75*
G01X1751489Y7118269D02*
G02X1763021Y7146108I39369J0D01*
G01*
G75*
G01X1763021Y7146108D02*
G02X1790860Y7157639I27838J-27838D01*
G01*
X1790860Y7157639D02*
X2759360Y7157639D01*
G75*
G01X2759360Y7157639D02*
G03X2773283Y7163406I0J19689D01*
G01*
G75*
G01X2773283Y7163406D02*
G03X2779050Y7177330I-13923J13923D01*
G01*
X2779050Y7177330D02*
X2779050Y7224569D01*
G75*
G01X2779050Y7224569D02*
G02X2784814Y7238485I19680J0D01*
G01*
G75*
G01X2784814Y7238485D02*
G02X2798729Y7244249I13915J-13915D01*
G01*
X2798729Y7244249D02*
X3164870Y7244249D01*
G75*
G01X3164870Y7244249D02*
G02X3192708Y7232718I0J-39369D01*
G01*
G75*
G01X3192708Y7232718D02*
G02X3204240Y7204880I-27838J-27838D01*
G01*
X3204240Y7204880D02*
X3204240Y4905670D01*
G75*
G01X3204240Y4905670D02*
G02X3192708Y4877830I-39370J0D01*
G01*
G75*
G01X3192708Y4877830D02*
G02X3164870Y4866300I-27838J27838D01*
G01*
X3164870Y4866300D02*
X2798729Y4866300D01*
X2798729Y4866300D02*
X2798729Y4866310D01*
G75*
G01X2798729Y4866310D02*
G02X2784814Y4872074I0J19679D01*
G01*
G75*
G01X2784814Y4872074D02*
G02X2779050Y4885990I13916J13915D01*
G01*
X2779050Y7310989D02*
X2779050Y7362170D01*
G75*
G01X2779050Y7362170D02*
G03X2773285Y7376085I-19679J0D01*
G01*
G75*
G01X2773285Y7376085D02*
G03X2759370Y7381849I-13915J-13915D01*
G01*
G75*
G01X2759370Y7381849D02*
G02X2759365Y7381849I-2J20028D01*
G01*
G75*
G01X2759365Y7381849D02*
G02X2759359Y7381849I-2J20981D01*
G01*
X2759359Y7381849D02*
X1790860Y7381849D01*
G75*
G01X1790860Y7381849D02*
G02X1763021Y7393381I0J39370D01*
G01*
G75*
G01X1763021Y7393381D02*
G02X1751489Y7421219I27838J27838D01*
G01*
X1751489Y7421219D02*
X1751489Y9543270D01*
G75*
G01X1751489Y9543270D02*
G02X1763021Y9571108I39369J0D01*
G01*
G75*
G01X1763021Y9571108D02*
G02X1790860Y9582639I27838J-27838D01*
G01*
X1790860Y9582639D02*
X2759360Y9582639D01*
G75*
G01X2759360Y9582639D02*
G03X2773283Y9588407I0J19690D01*
G01*
G75*
G01X2773283Y9588407D02*
G03X2779050Y9602330I-13922J13922D01*
G01*
X2779050Y9602330D02*
X2779050Y9649570D01*
G75*
G01X2779050Y9649570D02*
G02X2784814Y9663485I19678J0D01*
G01*
G75*
G01X2784814Y9663485D02*
G02X2798729Y9669249I13915J-13915D01*
G01*
X2798729Y9669249D02*
X3164870Y9669249D01*
G75*
G01X3164870Y9669249D02*
G02X3192708Y9657718I0J-39369D01*
G01*
G75*
G01X3192708Y9657718D02*
G02X3204240Y9629879I-27838J-27838D01*
G01*
X3204240Y9629879D02*
X3204240Y7330669D01*
G75*
G01X3204240Y7330669D02*
G02X3192708Y7302831I-39369J0D01*
G01*
G75*
G01X3192708Y7302831D02*
G02X3164870Y7291299I-27838J27838D01*
G01*
X3164870Y7291299D02*
X2798729Y7291299D01*
X2798729Y7291299D02*
X2798729Y7291309D01*
G75*
G01X2798729Y7291309D02*
G02X2784814Y7297074I0J19680D01*
G01*
G75*
G01X2784814Y7297074D02*
G02X2779050Y7310989I13915J13915D01*
G01*
X4279049Y34990D02*
X4279049Y86170D01*
G75*
G01X4279049Y86170D02*
G03X4273285Y100085I-19679J0D01*
G01*
G75*
G01X4273285Y100085D02*
G03X4259369Y105850I-13915J-13916D01*
G01*
G75*
G01X4259369Y105850D02*
G02X4259365Y105850I-2J19075D01*
G01*
G75*
G01X4259365Y105850D02*
G02X4259359Y105850I-2J20981D01*
G01*
X4259359Y105850D02*
X3290859Y105850D01*
G75*
G01X3290859Y105850D02*
G02X3263021Y117381I0J39369D01*
G01*
G75*
G01X3263021Y117381D02*
G02X3251490Y145219I27838J27838D01*
G01*
X3251490Y145219D02*
X3251490Y2267270D01*
G75*
G01X3251490Y2267270D02*
G02X3263021Y2295108I39369J0D01*
G01*
G75*
G01X3263021Y2295108D02*
G02X3290859Y2306639I27838J-27838D01*
G01*
X3290859Y2306639D02*
X4259359Y2306639D01*
G75*
G01X4259359Y2306639D02*
G03X4273283Y2312407I0J19690D01*
G01*
G75*
G01X4273283Y2312407D02*
G03X4279049Y2326329I-13923J13922D01*
G01*
X4279049Y2326329D02*
X4279049Y2373569D01*
G75*
G01X4279049Y2373569D02*
G02X4284814Y2387485I19680J0D01*
G01*
G75*
G01X4284814Y2387485D02*
G02X4298729Y2393249I13915J-13915D01*
G01*
X4298729Y2393249D02*
X4664869Y2393249D01*
G75*
G01X4664869Y2393249D02*
G02X4692708Y2381718I0J-39370D01*
G01*
G75*
G01X4692708Y2381718D02*
G02X4704239Y2353879I-27839J-27838D01*
G01*
X4704239Y2353879D02*
X4704239Y54669D01*
G75*
G01X4704239Y54669D02*
G02X4692708Y26831I-39369J0D01*
G01*
G75*
G01X4692708Y26831D02*
G02X4664869Y15300I-27838J27839D01*
G01*
X4664869Y15300D02*
X4298729Y15300D01*
X4298729Y15300D02*
X4298729Y15309D01*
G75*
G01X4298729Y15309D02*
G02X4284814Y21074I0J19679D01*
G01*
G75*
G01X4284814Y21074D02*
G02X4279049Y34990I13915J13916D01*
G01*
X4279049Y2460989D02*
X4279049Y2512170D01*
G75*
G01X4279049Y2512170D02*
G03X4273285Y2526085I-19679J0D01*
G01*
G75*
G01X4273285Y2526085D02*
G03X4259369Y2531850I-13916J-13915D01*
G01*
G75*
G01X4259369Y2531850D02*
G02X4259365Y2531850I-2J19075D01*
G01*
G75*
G01X4259365Y2531850D02*
G02X4259359Y2531850I-2J20981D01*
G01*
X4259359Y2531850D02*
X3290859Y2531850D01*
G75*
G01X3290859Y2531850D02*
G02X3263021Y2543381I0J39369D01*
G01*
G75*
G01X3263021Y2543381D02*
G02X3251490Y2571219I27838J27838D01*
G01*
X3251490Y2571219D02*
X3251490Y4693270D01*
G75*
G01X3251490Y4693270D02*
G02X3263021Y4721108I39369J0D01*
G01*
G75*
G01X3263021Y4721108D02*
G02X3290859Y4732639I27838J-27838D01*
G01*
X3290859Y4732639D02*
X4259359Y4732639D01*
G75*
G01X4259359Y4732639D02*
G03X4273283Y4738407I0J19690D01*
G01*
G75*
G01X4273283Y4738407D02*
G03X4279049Y4752329I-13922J13922D01*
G01*
X4279049Y4752329D02*
X4279049Y4799570D01*
G75*
G01X4279049Y4799570D02*
G02X4284814Y4813486I19680J0D01*
G01*
G75*
G01X4284814Y4813486D02*
G02X4298729Y4819250I13915J-13915D01*
G01*
X4298729Y4819250D02*
X4664869Y4819250D01*
G75*
G01X4664869Y4819250D02*
G02X4692708Y4807718I0J-39370D01*
G01*
G75*
G01X4692708Y4807718D02*
G02X4704239Y4779880I-27838J-27838D01*
G01*
X4704239Y4779880D02*
X4704239Y2480669D01*
G75*
G01X4704239Y2480669D02*
G02X4692708Y2452831I-39369J0D01*
G01*
G75*
G01X4692708Y2452831D02*
G02X4664869Y2441299I-27839J27839D01*
G01*
X4664869Y2441299D02*
X4298729Y2441299D01*
X4298729Y2441299D02*
X4298729Y2441309D01*
G75*
G01X4298729Y2441309D02*
G02X4284814Y2447074I0J19679D01*
G01*
G75*
G01X4284814Y2447074D02*
G02X4279049Y2460989I13915J13916D01*
G01*
X4279049Y4885990D02*
X4279049Y4937170D01*
G75*
G01X4279049Y4937170D02*
G03X4273285Y4951086I-19680J0D01*
G01*
G75*
G01X4273285Y4951086D02*
G03X4259369Y4956850I-13915J-13916D01*
G01*
G75*
G01X4259369Y4956850D02*
G02X4259365Y4956850I-2J19075D01*
G01*
G75*
G01X4259365Y4956850D02*
G02X4259359Y4956850I-2J20981D01*
G01*
X4259359Y4956850D02*
X3290859Y4956850D01*
G75*
G01X3290859Y4956850D02*
G02X3263021Y4968381I0J39369D01*
G01*
G75*
G01X3263021Y4968381D02*
G02X3251490Y4996220I27838J27838D01*
G01*
X3251490Y4996220D02*
X3251490Y7118269D01*
G75*
G01X3251490Y7118269D02*
G02X3263021Y7146108I39369J0D01*
G01*
G75*
G01X3263021Y7146108D02*
G02X3290859Y7157639I27838J-27838D01*
G01*
X3290859Y7157639D02*
X4259359Y7157639D01*
G75*
G01X4259359Y7157639D02*
G03X4273283Y7163406I0J19690D01*
G01*
G75*
G01X4273283Y7163406D02*
G03X4279049Y7177330I-13923J13922D01*
G01*
X4279049Y7177330D02*
X4279049Y7224569D01*
G75*
G01X4279049Y7224569D02*
G02X4284814Y7238485I19680J0D01*
G01*
G75*
G01X4284814Y7238485D02*
G02X4298729Y7244249I13915J-13915D01*
G01*
X4298729Y7244249D02*
X4664869Y7244249D01*
G75*
G01X4664869Y7244249D02*
G02X4692708Y7232718I0J-39370D01*
G01*
G75*
G01X4692708Y7232718D02*
G02X4704239Y7204880I-27838J-27838D01*
G01*
X4704239Y7204880D02*
X4704239Y4905670D01*
G75*
G01X4704239Y4905670D02*
G02X4692708Y4877830I-39370J0D01*
G01*
G75*
G01X4692708Y4877830D02*
G02X4664869Y4866300I-27838J27839D01*
G01*
X4664869Y4866300D02*
X4298729Y4866300D01*
X4298729Y4866300D02*
X4298729Y4866310D01*
G75*
G01X4298729Y4866310D02*
G02X4284814Y4872074I0J19679D01*
G01*
G75*
G01X4284814Y4872074D02*
G02X4279049Y4885990I13915J13916D01*
G01*
X4279049Y7310989D02*
X4279049Y7362170D01*
G75*
G01X4279049Y7362170D02*
G03X4273285Y7376085I-19679J0D01*
G01*
G75*
G01X4273285Y7376085D02*
G03X4259369Y7381849I-13915J-13916D01*
G01*
G75*
G01X4259369Y7381849D02*
G02X4259365Y7381849I-2J19075D01*
G01*
G75*
G01X4259365Y7381849D02*
G02X4259359Y7381849I-2J20981D01*
G01*
X4259359Y7381849D02*
X3290859Y7381849D01*
G75*
G01X3290859Y7381849D02*
G02X3263021Y7393381I0J39369D01*
G01*
G75*
G01X3263021Y7393381D02*
G02X3251490Y7421219I27838J27838D01*
G01*
X3251490Y7421219D02*
X3251490Y9543270D01*
G75*
G01X3251490Y9543270D02*
G02X3263021Y9571108I39369J0D01*
G01*
G75*
G01X3263021Y9571108D02*
G02X3290859Y9582639I27838J-27838D01*
G01*
X3290859Y9582639D02*
X4259359Y9582639D01*
G75*
G01X4259359Y9582639D02*
G03X4273283Y9588407I0J19690D01*
G01*
G75*
G01X4273283Y9588407D02*
G03X4279049Y9602330I-13922J13922D01*
G01*
X4279049Y9602330D02*
X4279049Y9649570D01*
G75*
G01X4279049Y9649570D02*
G02X4284814Y9663485I19679J0D01*
G01*
G75*
G01X4284814Y9663485D02*
G02X4298729Y9669249I13915J-13915D01*
G01*
X4298729Y9669249D02*
X4664869Y9669249D01*
G75*
G01X4664869Y9669249D02*
G02X4692708Y9657718I0J-39370D01*
G01*
G75*
G01X4692708Y9657718D02*
G02X4704239Y9629879I-27838J-27838D01*
G01*
X4704239Y9629879D02*
X4704239Y7330669D01*
G75*
G01X4704239Y7330669D02*
G02X4692708Y7302831I-39369J0D01*
G01*
G75*
G01X4692708Y7302831D02*
G02X4664869Y7291299I-27839J27839D01*
G01*
X4664869Y7291299D02*
X4298729Y7291299D01*
X4298729Y7291299D02*
X4298729Y7291309D01*
G75*
G01X4298729Y7291309D02*
G02X4284814Y7297074I0J19679D01*
G01*
G75*
G01X4284814Y7297074D02*
G02X4279049Y7310989I13915J13916D01*
G01*
X5779049Y34990D02*
X5779049Y86170D01*
G75*
G01X5779049Y86170D02*
G03X5773285Y100085I-19679J0D01*
G01*
G75*
G01X5773285Y100085D02*
G03X5759369Y105850I-13915J-13916D01*
G01*
G75*
G01X5759369Y105850D02*
G02X5759365Y105850I-2J19075D01*
G01*
G75*
G01X5759365Y105850D02*
G02X5759359Y105850I-2J20981D01*
G01*
X5759359Y105850D02*
X4790860Y105850D01*
G75*
G01X4790860Y105850D02*
G02X4763020Y117381I0J39370D01*
G01*
G75*
G01X4763020Y117381D02*
G02X4751490Y145219I27838J27838D01*
G01*
X4751490Y145219D02*
X4751490Y2267270D01*
G75*
G01X4751490Y2267270D02*
G02X4763020Y2295108I39369J0D01*
G01*
G75*
G01X4763020Y2295108D02*
G02X4790860Y2306639I27838J-27839D01*
G01*
X4790860Y2306639D02*
X5759359Y2306639D01*
G75*
G01X5759359Y2306639D02*
G03X5773283Y2312407I0J19690D01*
G01*
G75*
G01X5773283Y2312407D02*
G03X5779049Y2326329I-13923J13922D01*
G01*
X5779049Y2326329D02*
X5779049Y2373569D01*
G75*
G01X5779049Y2373569D02*
G02X5784814Y2387485I19680J0D01*
G01*
G75*
G01X5784814Y2387485D02*
G02X5798729Y2393249I13915J-13915D01*
G01*
X5798729Y2393249D02*
X6164869Y2393249D01*
G75*
G01X6164869Y2393249D02*
G02X6192708Y2381718I0J-39370D01*
G01*
G75*
G01X6192708Y2381718D02*
G02X6204239Y2353879I-27839J-27838D01*
G01*
X6204239Y2353879D02*
X6204239Y54669D01*
G75*
G01X6204239Y54669D02*
G02X6192708Y26831I-39369J0D01*
G01*
G75*
G01X6192708Y26831D02*
G02X6164869Y15300I-27838J27839D01*
G01*
X6164869Y15300D02*
X5798729Y15300D01*
X5798729Y15300D02*
X5798729Y15309D01*
G75*
G01X5798729Y15309D02*
G02X5784814Y21074I0J19679D01*
G01*
G75*
G01X5784814Y21074D02*
G02X5779049Y34990I13915J13916D01*
G01*
X5779049Y2460989D02*
X5779049Y2512170D01*
G75*
G01X5779049Y2512170D02*
G03X5773285Y2526085I-19679J0D01*
G01*
G75*
G01X5773285Y2526085D02*
G03X5759369Y2531850I-13916J-13915D01*
G01*
G75*
G01X5759369Y2531850D02*
G02X5759365Y2531850I-2J19075D01*
G01*
G75*
G01X5759365Y2531850D02*
G02X5759359Y2531850I-2J20981D01*
G01*
X5759359Y2531850D02*
X4790860Y2531850D01*
G75*
G01X4790860Y2531850D02*
G02X4763020Y2543381I0J39370D01*
G01*
G75*
G01X4763020Y2543381D02*
G02X4751490Y2571219I27838J27838D01*
G01*
X4751490Y2571219D02*
X4751490Y4693270D01*
G75*
G01X4751490Y4693270D02*
G02X4763020Y4721108I39369J0D01*
G01*
G75*
G01X4763020Y4721108D02*
G02X4790860Y4732639I27838J-27839D01*
G01*
X4790860Y4732639D02*
X5759359Y4732639D01*
G75*
G01X5759359Y4732639D02*
G03X5773283Y4738407I0J19690D01*
G01*
G75*
G01X5773283Y4738407D02*
G03X5779049Y4752329I-13922J13922D01*
G01*
X5779049Y4752329D02*
X5779049Y4799570D01*
G75*
G01X5779049Y4799570D02*
G02X5784814Y4813486I19680J0D01*
G01*
G75*
G01X5784814Y4813486D02*
G02X5798729Y4819250I13915J-13915D01*
G01*
X5798729Y4819250D02*
X6164869Y4819250D01*
G75*
G01X6164869Y4819250D02*
G02X6192708Y4807718I0J-39370D01*
G01*
G75*
G01X6192708Y4807718D02*
G02X6204239Y4779880I-27838J-27838D01*
G01*
X6204239Y4779880D02*
X6204239Y2480669D01*
G75*
G01X6204239Y2480669D02*
G02X6192708Y2452831I-39369J0D01*
G01*
G75*
G01X6192708Y2452831D02*
G02X6164869Y2441299I-27839J27839D01*
G01*
X6164869Y2441299D02*
X5798729Y2441299D01*
X5798729Y2441299D02*
X5798729Y2441309D01*
G75*
G01X5798729Y2441309D02*
G02X5784814Y2447074I0J19679D01*
G01*
G75*
G01X5784814Y2447074D02*
G02X5779049Y2460989I13915J13916D01*
G01*
X5779049Y4885990D02*
X5779049Y4937170D01*
G75*
G01X5779049Y4937170D02*
G03X5773285Y4951086I-19680J0D01*
G01*
G75*
G01X5773285Y4951086D02*
G03X5759369Y4956850I-13915J-13916D01*
G01*
G75*
G01X5759369Y4956850D02*
G02X5759365Y4956850I-2J19075D01*
G01*
G75*
G01X5759365Y4956850D02*
G02X5759359Y4956850I-2J20981D01*
G01*
X5759359Y4956850D02*
X4790860Y4956850D01*
G75*
G01X4790860Y4956850D02*
G02X4763020Y4968381I0J39370D01*
G01*
G75*
G01X4763020Y4968381D02*
G02X4751490Y4996220I27838J27838D01*
G01*
X4751490Y4996220D02*
X4751490Y7118269D01*
G75*
G01X4751490Y7118269D02*
G02X4763020Y7146108I39369J0D01*
G01*
G75*
G01X4763020Y7146108D02*
G02X4790860Y7157639I27839J-27839D01*
G01*
X4790860Y7157639D02*
X5759359Y7157639D01*
G75*
G01X5759359Y7157639D02*
G03X5773283Y7163406I0J19690D01*
G01*
G75*
G01X5773283Y7163406D02*
G03X5779049Y7177330I-13923J13922D01*
G01*
X5779049Y7177330D02*
X5779049Y7224569D01*
G75*
G01X5779049Y7224569D02*
G02X5784814Y7238485I19680J0D01*
G01*
G75*
G01X5784814Y7238485D02*
G02X5798729Y7244249I13915J-13915D01*
G01*
X5798729Y7244249D02*
X6164869Y7244249D01*
G75*
G01X6164869Y7244249D02*
G02X6192708Y7232718I0J-39370D01*
G01*
G75*
G01X6192708Y7232718D02*
G02X6204239Y7204880I-27838J-27838D01*
G01*
X6204239Y7204880D02*
X6204239Y4905670D01*
G75*
G01X6204239Y4905670D02*
G02X6192708Y4877830I-39370J0D01*
G01*
G75*
G01X6192708Y4877830D02*
G02X6164869Y4866300I-27838J27839D01*
G01*
X6164869Y4866300D02*
X5798729Y4866300D01*
X5798729Y4866300D02*
X5798729Y4866310D01*
G75*
G01X5798729Y4866310D02*
G02X5784814Y4872074I0J19679D01*
G01*
G75*
G01X5784814Y4872074D02*
G02X5779049Y4885990I13915J13916D01*
G01*
X5779049Y7310989D02*
X5779049Y7362170D01*
G75*
G01X5779049Y7362170D02*
G03X5773285Y7376085I-19679J0D01*
G01*
G75*
G01X5773285Y7376085D02*
G03X5759369Y7381849I-13915J-13916D01*
G01*
G75*
G01X5759369Y7381849D02*
G02X5759365Y7381849I-2J19075D01*
G01*
G75*
G01X5759365Y7381849D02*
G02X5759359Y7381849I-2J20981D01*
G01*
X5759359Y7381849D02*
X4790860Y7381849D01*
G75*
G01X4790860Y7381849D02*
G02X4763020Y7393381I0J39370D01*
G01*
G75*
G01X4763020Y7393381D02*
G02X4751490Y7421219I27838J27838D01*
G01*
X4751490Y7421219D02*
X4751490Y9543270D01*
G75*
G01X4751490Y9543270D02*
G02X4763020Y9571108I39369J0D01*
G01*
G75*
G01X4763020Y9571108D02*
G02X4790860Y9582639I27838J-27839D01*
G01*
X4790860Y9582639D02*
X5759359Y9582639D01*
G75*
G01X5759359Y9582639D02*
G03X5773283Y9588407I0J19690D01*
G01*
G75*
G01X5773283Y9588407D02*
G03X5779049Y9602330I-13922J13922D01*
G01*
X5779049Y9602330D02*
X5779049Y9649570D01*
G75*
G01X5779049Y9649570D02*
G02X5784814Y9663485I19679J0D01*
G01*
G75*
G01X5784814Y9663485D02*
G02X5798729Y9669249I13915J-13915D01*
G01*
X5798729Y9669249D02*
X6164869Y9669249D01*
G75*
G01X6164869Y9669249D02*
G02X6192708Y9657718I0J-39370D01*
G01*
G75*
G01X6192708Y9657718D02*
G02X6204239Y9629879I-27838J-27838D01*
G01*
X6204239Y9629879D02*
X6204239Y7330669D01*
G75*
G01X6204239Y7330669D02*
G02X6192708Y7302831I-39369J0D01*
G01*
G75*
G01X6192708Y7302831D02*
G02X6164869Y7291299I-27839J27839D01*
G01*
X6164869Y7291299D02*
X5798729Y7291299D01*
X5798729Y7291299D02*
X5798729Y7291309D01*
G75*
G01X5798729Y7291309D02*
G02X5784814Y7297074I0J19679D01*
G01*
G75*
G01X5784814Y7297074D02*
G02X5779049Y7310989I13915J13916D01*
G01*
X23062Y9661937D02*
X78740Y9685000D01*
X78740Y9685000D02*
X1249452Y9685000D01*
X1249452Y9685000D02*
X1232049Y9649570D01*
X1232049Y9649570D02*
X1232049Y9629639D01*
X1232049Y9629639D02*
X290859Y9629639D01*
X290859Y9629639D02*
X232220Y9601909D01*
X232220Y9601909D02*
X204490Y9543270D01*
X204490Y9543270D02*
X204490Y7421219D01*
X204490Y7421219D02*
X232220Y7362580D01*
X232220Y7362580D02*
X290859Y7334849D01*
X290859Y7334849D02*
X1232049Y7334849D01*
X1232049Y7334849D02*
X1232049Y7310989D01*
X1232049Y7310989D02*
X1245815Y7277756D01*
X1245815Y7277756D02*
X1249027Y7276425D01*
X1249027Y7276425D02*
X1253273Y7267779D01*
X1253273Y7267779D02*
X1232049Y7224569D01*
X1232049Y7224569D02*
X1232049Y7204639D01*
X1232049Y7204639D02*
X290859Y7204639D01*
X290859Y7204639D02*
X232220Y7176909D01*
X232220Y7176909D02*
X204490Y7118269D01*
X204490Y7118269D02*
X204490Y4996220D01*
X204490Y4996220D02*
X232220Y4937580D01*
X232220Y4937580D02*
X290859Y4909850D01*
X290859Y4909850D02*
X1232049Y4909850D01*
X1232049Y4909850D02*
X1232049Y4885990D01*
X1232049Y4885990D02*
X1245815Y4852756D01*
X1245815Y4852756D02*
X1249027Y4851426D01*
X1249027Y4851426D02*
X1253273Y4842780D01*
X1253273Y4842780D02*
X1232049Y4799570D01*
X1232049Y4799570D02*
X1232049Y4779640D01*
X1232049Y4779640D02*
X290859Y4779640D01*
X290859Y4779640D02*
X232220Y4751909D01*
X232220Y4751909D02*
X204490Y4693270D01*
X204490Y4693270D02*
X204490Y2571219D01*
X204490Y2571219D02*
X232220Y2512580D01*
X232220Y2512580D02*
X290859Y2484849D01*
X290859Y2484849D02*
X1232049Y2484849D01*
X1232049Y2484849D02*
X1232049Y2460989D01*
X1232049Y2460989D02*
X1245815Y2427756D01*
X1245815Y2427756D02*
X1249027Y2426425D01*
X1249027Y2426425D02*
X1253519Y2417279D01*
X1253519Y2417279D02*
X1232049Y2373569D01*
X1232049Y2373569D02*
X1232049Y2353640D01*
X1232049Y2353640D02*
X290859Y2353640D01*
X290859Y2353640D02*
X232220Y2325909D01*
X232220Y2325909D02*
X204490Y2267270D01*
X204490Y2267270D02*
X204490Y145219D01*
X204490Y145219D02*
X232220Y86580D01*
X232220Y86580D02*
X290859Y58850D01*
X290859Y58850D02*
X1232049Y58850D01*
X1232049Y58850D02*
X1232049Y34990D01*
X1232049Y34990D02*
X1245815Y1755D01*
X1245815Y1755D02*
X1249027Y425D01*
X1249027Y425D02*
X1249236Y0D01*
X1249236Y0D02*
X78740Y0D01*
X78740Y0D02*
X23062Y23062D01*
X23062Y23062D02*
X0Y78740D01*
X0Y78740D02*
X0Y9606260D01*
X0Y9606260D02*
X23062Y9661937D01*
X6378259Y9685000D02*
X6433937Y9661937D01*
X6433937Y9661937D02*
X6456999Y9606260D01*
X6456999Y9606260D02*
X6456999Y78740D01*
X6456999Y78740D02*
X6433937Y23062D01*
X6433937Y23062D02*
X6378259Y0D01*
X6378259Y0D02*
X6225386Y0D01*
X6225386Y0D02*
X6251239Y54669D01*
X6251239Y54669D02*
X6251239Y2353879D01*
X6251239Y2353879D02*
X6223509Y2412519D01*
X6223509Y2412519D02*
X6213452Y2417274D01*
X6213452Y2417274D02*
X6223509Y2422030D01*
X6223509Y2422030D02*
X6251239Y2480669D01*
X6251239Y2480669D02*
X6251239Y4779880D01*
X6251239Y4779880D02*
X6223509Y4838519D01*
X6223509Y4838519D02*
X6214510Y4842774D01*
X6214510Y4842774D02*
X6223509Y4847030D01*
X6223509Y4847030D02*
X6251239Y4905670D01*
X6251239Y4905670D02*
X6251239Y7204880D01*
X6251239Y7204880D02*
X6223509Y7263519D01*
X6223509Y7263519D02*
X6214510Y7267775D01*
X6214510Y7267775D02*
X6223509Y7272030D01*
X6223509Y7272030D02*
X6251239Y7330669D01*
X6251239Y7330669D02*
X6251239Y9629879D01*
X6251239Y9629879D02*
X6225173Y9685000D01*
X6225173Y9685000D02*
X6378259Y9685000D01*
X4751239Y7330669D02*
X4723509Y7272030D01*
X4723509Y7272030D02*
X4714510Y7267775D01*
X4714510Y7267775D02*
X4723509Y7263519D01*
X4723509Y7263519D02*
X4751239Y7204880D01*
X4751239Y7204880D02*
X4751239Y7185903D01*
X4751239Y7185903D02*
X4790860Y7204639D01*
X4790860Y7204639D02*
X5732049Y7204639D01*
X5732049Y7204639D02*
X5732049Y7224569D01*
X5732049Y7224569D02*
X5753273Y7267779D01*
X5753273Y7267779D02*
X5749027Y7276425D01*
X5749027Y7276425D02*
X5745815Y7277756D01*
X5745815Y7277756D02*
X5732049Y7310989D01*
X5732049Y7310989D02*
X5732049Y7334849D01*
X5732049Y7334849D02*
X4790860Y7334849D01*
X4790860Y7334849D02*
X4751239Y7353586D01*
X4751239Y7353586D02*
X4751239Y7330669D01*
X4751239Y4905670D02*
X4723509Y4847030D01*
X4723509Y4847030D02*
X4714510Y4842774D01*
X4714510Y4842774D02*
X4723509Y4838519D01*
X4723509Y4838519D02*
X4751239Y4779880D01*
X4751239Y4779880D02*
X4751239Y4760903D01*
X4751239Y4760903D02*
X4790860Y4779640D01*
X4790860Y4779640D02*
X5732049Y4779640D01*
X5732049Y4779640D02*
X5732049Y4799570D01*
X5732049Y4799570D02*
X5753273Y4842780D01*
X5753273Y4842780D02*
X5749027Y4851426D01*
X5749027Y4851426D02*
X5745815Y4852756D01*
X5745815Y4852756D02*
X5732049Y4885990D01*
X5732049Y4885990D02*
X5732049Y4909850D01*
X5732049Y4909850D02*
X4790860Y4909850D01*
X4790860Y4909850D02*
X4751239Y4928586D01*
X4751239Y4928586D02*
X4751239Y4905670D01*
X4751239Y2480669D02*
X4723509Y2422030D01*
X4723509Y2422030D02*
X4713452Y2417274D01*
X4713452Y2417274D02*
X4723509Y2412519D01*
X4723509Y2412519D02*
X4751239Y2353879D01*
X4751239Y2353879D02*
X4751239Y2334903D01*
X4751239Y2334903D02*
X4790860Y2353640D01*
X4790860Y2353640D02*
X5732049Y2353640D01*
X5732049Y2353640D02*
X5732049Y2373569D01*
X5732049Y2373569D02*
X5753519Y2417279D01*
X5753519Y2417279D02*
X5749027Y2426425D01*
X5749027Y2426425D02*
X5745815Y2427756D01*
X5745815Y2427756D02*
X5732049Y2460989D01*
X5732049Y2460989D02*
X5732049Y2484849D01*
X5732049Y2484849D02*
X4790860Y2484849D01*
X4790860Y2484849D02*
X4751239Y2503586D01*
X4751239Y2503586D02*
X4751239Y2480669D01*
X3251240Y7330669D02*
X3223509Y7272030D01*
X3223509Y7272030D02*
X3214510Y7267775D01*
X3214510Y7267775D02*
X3223509Y7263519D01*
X3223509Y7263519D02*
X3251240Y7204880D01*
X3251240Y7204880D02*
X3251240Y7185903D01*
X3251240Y7185903D02*
X3290859Y7204639D01*
X3290859Y7204639D02*
X4232049Y7204639D01*
X4232049Y7204639D02*
X4232049Y7224569D01*
X4232049Y7224569D02*
X4253273Y7267779D01*
X4253273Y7267779D02*
X4249027Y7276425D01*
X4249027Y7276425D02*
X4245815Y7277756D01*
X4245815Y7277756D02*
X4232049Y7310989D01*
X4232049Y7310989D02*
X4232049Y7334849D01*
X4232049Y7334849D02*
X3290859Y7334849D01*
X3290859Y7334849D02*
X3251240Y7353586D01*
X3251240Y7353586D02*
X3251240Y7330669D01*
X3251240Y4905670D02*
X3223509Y4847030D01*
X3223509Y4847030D02*
X3214510Y4842774D01*
X3214510Y4842774D02*
X3223509Y4838519D01*
X3223509Y4838519D02*
X3251240Y4779880D01*
X3251240Y4779880D02*
X3251240Y4760903D01*
X3251240Y4760903D02*
X3290859Y4779640D01*
X3290859Y4779640D02*
X4232049Y4779640D01*
X4232049Y4779640D02*
X4232049Y4799570D01*
X4232049Y4799570D02*
X4253273Y4842780D01*
X4253273Y4842780D02*
X4249027Y4851426D01*
X4249027Y4851426D02*
X4245815Y4852756D01*
X4245815Y4852756D02*
X4232049Y4885990D01*
X4232049Y4885990D02*
X4232049Y4909850D01*
X4232049Y4909850D02*
X3290859Y4909850D01*
X3290859Y4909850D02*
X3251240Y4928586D01*
X3251240Y4928586D02*
X3251240Y4905670D01*
X3251240Y2480669D02*
X3223509Y2422030D01*
X3223509Y2422030D02*
X3213452Y2417274D01*
X3213452Y2417274D02*
X3223509Y2412519D01*
X3223509Y2412519D02*
X3251240Y2353879D01*
X3251240Y2353879D02*
X3251240Y2334903D01*
X3251240Y2334903D02*
X3290859Y2353640D01*
X3290859Y2353640D02*
X4232049Y2353640D01*
X4232049Y2353640D02*
X4232049Y2373569D01*
X4232049Y2373569D02*
X4253519Y2417279D01*
X4253519Y2417279D02*
X4249027Y2426425D01*
X4249027Y2426425D02*
X4245815Y2427756D01*
X4245815Y2427756D02*
X4232049Y2460989D01*
X4232049Y2460989D02*
X4232049Y2484849D01*
X4232049Y2484849D02*
X3290859Y2484849D01*
X3290859Y2484849D02*
X3251240Y2503586D01*
X3251240Y2503586D02*
X3251240Y2480669D01*
X1751240Y7330669D02*
X1723509Y7272030D01*
X1723509Y7272030D02*
X1714510Y7267775D01*
X1714510Y7267775D02*
X1723509Y7263519D01*
X1723509Y7263519D02*
X1751240Y7204880D01*
X1751240Y7204880D02*
X1751240Y7185903D01*
X1751240Y7185903D02*
X1790860Y7204639D01*
X1790860Y7204639D02*
X2732049Y7204639D01*
X2732049Y7204639D02*
X2732049Y7224569D01*
X2732049Y7224569D02*
X2753273Y7267779D01*
X2753273Y7267779D02*
X2749027Y7276425D01*
X2749027Y7276425D02*
X2745815Y7277756D01*
X2745815Y7277756D02*
X2732049Y7310989D01*
X2732049Y7310989D02*
X2732049Y7334849D01*
X2732049Y7334849D02*
X1790860Y7334849D01*
X1790860Y7334849D02*
X1751240Y7353586D01*
X1751240Y7353586D02*
X1751240Y7330669D01*
X1751240Y4905670D02*
X1723509Y4847030D01*
X1723509Y4847030D02*
X1714510Y4842774D01*
X1714510Y4842774D02*
X1723509Y4838519D01*
X1723509Y4838519D02*
X1751240Y4779880D01*
X1751240Y4779880D02*
X1751240Y4760903D01*
X1751240Y4760903D02*
X1790860Y4779640D01*
X1790860Y4779640D02*
X2732049Y4779640D01*
X2732049Y4779640D02*
X2732049Y4799570D01*
X2732049Y4799570D02*
X2753273Y4842780D01*
X2753273Y4842780D02*
X2749027Y4851426D01*
X2749027Y4851426D02*
X2745815Y4852756D01*
X2745815Y4852756D02*
X2732049Y4885990D01*
X2732049Y4885990D02*
X2732049Y4909850D01*
X2732049Y4909850D02*
X1790860Y4909850D01*
X1790860Y4909850D02*
X1751240Y4928586D01*
X1751240Y4928586D02*
X1751240Y4905670D01*
X1751240Y2480669D02*
X1723509Y2422030D01*
X1723509Y2422030D02*
X1713452Y2417274D01*
X1713452Y2417274D02*
X1723509Y2412519D01*
X1723509Y2412519D02*
X1751240Y2353879D01*
X1751240Y2353879D02*
X1751240Y2334903D01*
X1751240Y2334903D02*
X1790860Y2353640D01*
X1790860Y2353640D02*
X2732049Y2353640D01*
X2732049Y2353640D02*
X2732049Y2373569D01*
X2732049Y2373569D02*
X2753519Y2417279D01*
X2753519Y2417279D02*
X2749027Y2426425D01*
X2749027Y2426425D02*
X2745815Y2427756D01*
X2745815Y2427756D02*
X2732049Y2460989D01*
X2732049Y2460989D02*
X2732049Y2484849D01*
X2732049Y2484849D02*
X1790860Y2484849D01*
X1790860Y2484849D02*
X1751240Y2503586D01*
X1751240Y2503586D02*
X1751240Y2480669D01*
M02*
