  0
SECTION
  2
HEADER
  9
$ACADVER
  1
AC1014
  9
$INSBASE
 10
0.000000
 20
0.000000
  9
$LIMMIN
 10
-1001.255500
 20
-1000.000000
  9
$LIMMAX
 10
1998.744500
 20
2000.000000
  9
$EXTMIN
 10
-1001.255500
 20
-1000.000000
  9
$EXTMAX
 10
1998.744500
 20
2000.000000
  9
$ATTMODE
 70
0
  9
$LUNITS
 70
2
  9
$LUPREC
 70
4
  9
$THICKNESS
 40
0.786000
  9
$MEASUREMENT
 70
1
  9
$HANDSEED
  5
10f
  0
ENDSEC
  0
SECTION
  2
TABLES
  0
TABLE
  2
LTYPE
  5
4
100
AcDbSymbolTable
 70
3
  0
LTYPE
  5
1
100
AcDbSymbolTableRecord
100
AcDbLinetypeTableRecord
  3

  2
BYBLOCK
 70
0
 72
65
 73
0
 40
0.000000
  0
LTYPE
  5
2
100
AcDbSymbolTableRecord
100
AcDbLinetypeTableRecord
  3

  2
BYLAYER
 70
0
 72
65
 73
0
 40
0.000000
  0
LTYPE
  5
3
100
AcDbSymbolTableRecord
100
AcDbLinetypeTableRecord
  3
Solid Line
  2
CONTINUOUS
 70
0
 72
65
 73
0
 40
0.000000
  0
ENDTAB
  0
TABLE
  2
LAYER
  5
8
100
AcDbSymbolTable
 70
3
  0
LAYER
  5
5
100
AcDbSymbolTableRecord
100
AcDbLayerTableRecord
  2
0
 70
0
 62
7
  6
CONTINUOUS
  0
LAYER
  5
6
100
AcDbSymbolTableRecord
100
AcDbLayerTableRecord
  2
BG_CUTOUT
 70
0
 62
7
  6
CONTINUOUS
  0
LAYER
  5
7
100
AcDbSymbolTableRecord
100
AcDbLayerTableRecord
  2
BG_DESIGN_OUTLINE
 70
0
 62
7
  6
CONTINUOUS
  0
ENDTAB
  0
TABLE
  2
STYLE
  5
a
100
AcDbSymbolTable
 70
1
  0
STYLE
  5
9
100
AcDbSymbolTableRecord
100
AcDbTextStyleTableRecord
  2
STANDARD
 70
0
 40
0.000000
 41
1.000000
 50
0.000000
 71
0
 42
0.200000
  3
txt
  0
ENDTAB
  0
TABLE
  2
VPORT
  5
b
100
AcDbSymbolTable
 70
1
  0
ENDTAB
  0
TABLE
  2
VIEW
  5
c
100
AcDbSymbolTable
 70
1
  0
ENDTAB
  0
TABLE
  2
APPID
  5
e
100
AcDbSymbolTable
 70
1
  0
APPID
  5
d
100
AcDbSymbolTableRecord
100
AcDbRegAppTableRecord
  2
ACAD
 70
0
  0
ENDTAB
  0
TABLE
  2
UCS
  5
f
100
AcDbSymbolTable
 70
1
  0
ENDTAB
  0
TABLE
  2
BLOCK_RECORD
  5
10
100
AcDbSymbolTable
 70
10
  0
BLOCK_RECORD
  5
6c
100
AcDbSymbolTableRecord
100
AcDbBlockTableRecord
  2
FIGURE_DIAMOND
  0
BLOCK_RECORD
  5
63
100
AcDbSymbolTableRecord
100
AcDbBlockTableRecord
  2
FIGURE_CROSS
  0
BLOCK_RECORD
  5
58
100
AcDbSymbolTableRecord
100
AcDbBlockTableRecord
  2
FIGURE_TRI
  0
BLOCK_RECORD
  5
50
100
AcDbSymbolTableRecord
100
AcDbBlockTableRecord
  2
FIGURE_OBLONG
  0
BLOCK_RECORD
  5
3f
100
AcDbSymbolTableRecord
100
AcDbBlockTableRecord
  2
FIGURE_OCT
  0
BLOCK_RECORD
  5
32
100
AcDbSymbolTableRecord
100
AcDbBlockTableRecord
  2
FIGURE_HEX
  0
BLOCK_RECORD
  5
27
100
AcDbSymbolTableRecord
100
AcDbBlockTableRecord
  2
FIGURE_SQUARE
  0
BLOCK_RECORD
  5
1e
100
AcDbSymbolTableRecord
100
AcDbBlockTableRecord
  2
FIGURE_CIRCLE
  0
BLOCK_RECORD
  5
1a
100
AcDbSymbolTableRecord
100
AcDbBlockTableRecord
  2
*PAPER_SPACE
  0
BLOCK_RECORD
  5
17
100
AcDbSymbolTableRecord
100
AcDbBlockTableRecord
  2
*MODEL_SPACE
  0
ENDTAB
  0
TABLE
  2
DIMSTYLE
  5
11
100
AcDbSymbolTable
 70
1
  0
ENDTAB
  0
ENDSEC
  0
SECTION
  2
BLOCKS
  0
BLOCK
  5
15
100
AcDbEntity
  8
0
100
AcDbBlockBegin
  2
*MODEL_SPACE
 70
0
 10
0.000000
 20
0.000000
  3
*MODEL_SPACE
  0
ENDBLK
  5
16
100
AcDbEntity
  8
0
100
AcDbBlockEnd
  0
BLOCK
  5
18
100
AcDbEntity
  8
0
100
AcDbBlockBegin
  2
*PAPER_SPACE
 70
0
 10
0.000000
 20
0.000000
  3
*PAPER_SPACE
  0
ENDBLK
  5
19
100
AcDbEntity
  8
0
100
AcDbBlockEnd
  0
BLOCK
  5
1b
100
AcDbEntity
  8
0
100
AcDbBlockBegin
  2
FIGURE_CIRCLE
 70
0
 10
0.000000
 20
0.000000
  3
FIGURE_CIRCLE
  0
CIRCLE
  5
1d
100
AcDbEntity
  8
0
100
AcDbCircle
 10
0.000000
 20
0.000000
 40
0.500000
  0
ENDBLK
  5
1c
100
AcDbEntity
  8
0
100
AcDbBlockEnd
  0
BLOCK
  5
1f
100
AcDbEntity
  8
0
100
AcDbBlockBegin
  2
FIGURE_SQUARE
 70
0
 10
0.000000
 20
0.000000
  3
FIGURE_SQUARE
  0
POLYLINE
  5
21
100
AcDbEntity
  8
0
100
AcDb2dPolyline
 66
1
 70
1
 40
0.000000
 41
0.000000
 39
0.000000
  0
VERTEX
  5
23
100
AcDbEntity
  8
0
100
AcDbVertex
100
AcDb2dVertex
 10
-0.500000
 20
-0.500000
 40
0.000000
 41
0.000000
 42
0.000000
  0
VERTEX
  5
24
100
AcDbEntity
  8
0
100
AcDbVertex
100
AcDb2dVertex
 10
-0.500000
 20
0.500000
 40
0.000000
 41
0.000000
 42
0.000000
  0
VERTEX
  5
25
100
AcDbEntity
  8
0
100
AcDbVertex
100
AcDb2dVertex
 10
0.500000
 20
0.500000
 40
0.000000
 41
0.000000
 42
0.000000
  0
VERTEX
  5
26
100
AcDbEntity
  8
0
100
AcDbVertex
100
AcDb2dVertex
 10
0.500000
 20
-0.500000
 40
0.000000
 41
0.000000
 42
0.000000
  0
SEQEND
  5
22
100
AcDbEntity
  0
ENDBLK
  5
20
100
AcDbEntity
  8
0
100
AcDbBlockEnd
  0
BLOCK
  5
28
100
AcDbEntity
  8
0
100
AcDbBlockBegin
  2
FIGURE_HEX
 70
0
 10
0.000000
 20
0.000000
  3
FIGURE_HEX
  0
POLYLINE
  5
2a
100
AcDbEntity
  8
0
100
AcDb2dPolyline
 66
1
 70
1
 40
0.000000
 41
0.000000
 39
0.000000
  0
VERTEX
  5
2c
100
AcDbEntity
  8
0
100
AcDbVertex
100
AcDb2dVertex
 10
-0.500000
 20
0.000000
 40
0.000000
 41
0.000000
 42
0.000000
  0
VERTEX
  5
2d
100
AcDbEntity
  8
0
100
AcDbVertex
100
AcDb2dVertex
 10
-0.250000
 20
0.500000
 40
0.000000
 41
0.000000
 42
0.000000
  0
VERTEX
  5
2e
100
AcDbEntity
  8
0
100
AcDbVertex
100
AcDb2dVertex
 10
0.250000
 20
0.500000
 40
0.000000
 41
0.000000
 42
0.000000
  0
VERTEX
  5
2f
100
AcDbEntity
  8
0
100
AcDbVertex
100
AcDb2dVertex
 10
0.500000
 20
0.000000
 40
0.000000
 41
0.000000
 42
0.000000
  0
VERTEX
  5
30
100
AcDbEntity
  8
0
100
AcDbVertex
100
AcDb2dVertex
 10
0.250000
 20
-0.500000
 40
0.000000
 41
0.000000
 42
0.000000
  0
VERTEX
  5
31
100
AcDbEntity
  8
0
100
AcDbVertex
100
AcDb2dVertex
 10
-0.250000
 20
-0.500000
 40
0.000000
 41
0.000000
 42
0.000000
  0
SEQEND
  5
2b
100
AcDbEntity
  0
ENDBLK
  5
29
100
AcDbEntity
  8
0
100
AcDbBlockEnd
  0
BLOCK
  5
33
100
AcDbEntity
  8
0
100
AcDbBlockBegin
  2
FIGURE_OCT
 70
0
 10
0.000000
 20
0.000000
  3
FIGURE_OCT
  0
POLYLINE
  5
35
100
AcDbEntity
  8
0
100
AcDb2dPolyline
 66
1
 70
1
 40
0.000000
 41
0.000000
 39
0.000000
  0
VERTEX
  5
37
100
AcDbEntity
  8
0
100
AcDbVertex
100
AcDb2dVertex
 10
-0.500000
 20
-0.207100
 40
0.000000
 41
0.000000
 42
0.000000
  0
VERTEX
  5
38
100
AcDbEntity
  8
0
100
AcDbVertex
100
AcDb2dVertex
 10
-0.500000
 20
0.207100
 40
0.000000
 41
0.000000
 42
0.000000
  0
VERTEX
  5
39
100
AcDbEntity
  8
0
100
AcDbVertex
100
AcDb2dVertex
 10
-0.207100
 20
0.500000
 40
0.000000
 41
0.000000
 42
0.000000
  0
VERTEX
  5
3a
100
AcDbEntity
  8
0
100
AcDbVertex
100
AcDb2dVertex
 10
0.207100
 20
0.500000
 40
0.000000
 41
0.000000
 42
0.000000
  0
VERTEX
  5
3b
100
AcDbEntity
  8
0
100
AcDbVertex
100
AcDb2dVertex
 10
0.500000
 20
0.207100
 40
0.000000
 41
0.000000
 42
0.000000
  0
VERTEX
  5
3c
100
AcDbEntity
  8
0
100
AcDbVertex
100
AcDb2dVertex
 10
0.500000
 20
-0.207100
 40
0.000000
 41
0.000000
 42
0.000000
  0
VERTEX
  5
3d
100
AcDbEntity
  8
0
100
AcDbVertex
100
AcDb2dVertex
 10
0.207100
 20
-0.500000
 40
0.000000
 41
0.000000
 42
0.000000
  0
VERTEX
  5
3e
100
AcDbEntity
  8
0
100
AcDbVertex
100
AcDb2dVertex
 10
-0.207100
 20
-0.500000
 40
0.000000
 41
0.000000
 42
0.000000
  0
SEQEND
  5
36
100
AcDbEntity
  0
ENDBLK
  5
34
100
AcDbEntity
  8
0
100
AcDbBlockEnd
  0
BLOCK
  5
40
100
AcDbEntity
  8
0
100
AcDbBlockBegin
  2
FIGURE_OBLONG
 70
0
 10
0.000000
 20
0.000000
  3
FIGURE_OBLONG
  0
POLYLINE
  5
42
100
AcDbEntity
  8
0
100
AcDb2dPolyline
 66
1
 70
1
 40
0.000000
 41
0.000000
 39
0.000000
  0
VERTEX
  5
44
100
AcDbEntity
  8
0
100
AcDbVertex
100
AcDb2dVertex
 10
-0.500000
 20
-0.125000
 40
0.000000
 41
0.000000
 42
0.000000
  0
VERTEX
  5
45
100
AcDbEntity
  8
0
100
AcDbVertex
100
AcDb2dVertex
 10
-0.500000
 20
0.125000
 40
0.000000
 41
0.000000
 42
0.000000
  0
VERTEX
  5
46
100
AcDbEntity
  8
0
100
AcDbVertex
100
AcDb2dVertex
 10
-0.416000
 20
0.375000
 40
0.000000
 41
0.000000
 42
0.000000
  0
VERTEX
  5
47
100
AcDbEntity
  8
0
100
AcDbVertex
100
AcDb2dVertex
 10
-0.250000
 20
0.500000
 40
0.000000
 41
0.000000
 42
0.000000
  0
VERTEX
  5
48
100
AcDbEntity
  8
0
100
AcDbVertex
100
AcDb2dVertex
 10
0.250000
 20
0.500000
 40
0.000000
 41
0.000000
 42
0.000000
  0
VERTEX
  5
49
100
AcDbEntity
  8
0
100
AcDbVertex
100
AcDb2dVertex
 10
0.416000
 20
0.375000
 40
0.000000
 41
0.000000
 42
0.000000
  0
VERTEX
  5
4a
100
AcDbEntity
  8
0
100
AcDbVertex
100
AcDb2dVertex
 10
0.500000
 20
0.125000
 40
0.000000
 41
0.000000
 42
0.000000
  0
VERTEX
  5
4b
100
AcDbEntity
  8
0
100
AcDbVertex
100
AcDb2dVertex
 10
0.500000
 20
-0.125000
 40
0.000000
 41
0.000000
 42
0.000000
  0
VERTEX
  5
4c
100
AcDbEntity
  8
0
100
AcDbVertex
100
AcDb2dVertex
 10
0.416000
 20
-0.375000
 40
0.000000
 41
0.000000
 42
0.000000
  0
VERTEX
  5
4d
100
AcDbEntity
  8
0
100
AcDbVertex
100
AcDb2dVertex
 10
0.250000
 20
-0.500000
 40
0.000000
 41
0.000000
 42
0.000000
  0
VERTEX
  5
4e
100
AcDbEntity
  8
0
100
AcDbVertex
100
AcDb2dVertex
 10
-0.250000
 20
-0.500000
 40
0.000000
 41
0.000000
 42
0.000000
  0
VERTEX
  5
4f
100
AcDbEntity
  8
0
100
AcDbVertex
100
AcDb2dVertex
 10
-0.416000
 20
-0.375000
 40
0.000000
 41
0.000000
 42
0.000000
  0
SEQEND
  5
43
100
AcDbEntity
  0
ENDBLK
  5
41
100
AcDbEntity
  8
0
100
AcDbBlockEnd
  0
BLOCK
  5
51
100
AcDbEntity
  8
0
100
AcDbBlockBegin
  2
FIGURE_TRI
 70
0
 10
0.000000
 20
0.000000
  3
FIGURE_TRI
  0
POLYLINE
  5
53
100
AcDbEntity
  8
0
100
AcDb2dPolyline
 66
1
 70
1
 40
0.000000
 41
0.000000
 39
0.000000
  0
VERTEX
  5
55
100
AcDbEntity
  8
0
100
AcDbVertex
100
AcDb2dVertex
 10
-0.500000
 20
-0.500000
 40
0.000000
 41
0.000000
 42
0.000000
  0
VERTEX
  5
56
100
AcDbEntity
  8
0
100
AcDbVertex
100
AcDb2dVertex
 10
0.000000
 20
0.500000
 40
0.000000
 41
0.000000
 42
0.000000
  0
VERTEX
  5
57
100
AcDbEntity
  8
0
100
AcDbVertex
100
AcDb2dVertex
 10
0.500000
 20
-0.500000
 40
0.000000
 41
0.000000
 42
0.000000
  0
SEQEND
  5
54
100
AcDbEntity
  0
ENDBLK
  5
52
100
AcDbEntity
  8
0
100
AcDbBlockEnd
  0
BLOCK
  5
59
100
AcDbEntity
  8
0
100
AcDbBlockBegin
  2
FIGURE_CROSS
 70
0
 10
0.000000
 20
0.000000
  3
FIGURE_CROSS
  0
POLYLINE
  5
5b
100
AcDbEntity
  8
0
100
AcDb2dPolyline
 66
1
 70
0
 40
0.000000
 41
0.000000
 39
0.000000
  0
VERTEX
  5
5f
100
AcDbEntity
  8
0
100
AcDbVertex
100
AcDb2dVertex
 10
-0.500000
 20
0.000000
 40
0.000000
 41
0.000000
 42
0.000000
  0
VERTEX
  5
60
100
AcDbEntity
  8
0
100
AcDbVertex
100
AcDb2dVertex
 10
0.500000
 20
0.000000
 40
0.000000
 41
0.000000
 42
0.000000
  0
SEQEND
  5
5c
100
AcDbEntity
  0
POLYLINE
  5
5d
100
AcDbEntity
  8
0
100
AcDb2dPolyline
 66
1
 70
0
 40
0.000000
 41
0.000000
 39
0.000000
  0
VERTEX
  5
61
100
AcDbEntity
  8
0
100
AcDbVertex
100
AcDb2dVertex
 10
0.000000
 20
0.500000
 40
0.000000
 41
0.000000
 42
0.000000
  0
VERTEX
  5
62
100
AcDbEntity
  8
0
100
AcDbVertex
100
AcDb2dVertex
 10
0.000000
 20
-0.500000
 40
0.000000
 41
0.000000
 42
0.000000
  0
SEQEND
  5
5e
100
AcDbEntity
  0
ENDBLK
  5
5a
100
AcDbEntity
  8
0
100
AcDbBlockEnd
  0
BLOCK
  5
64
100
AcDbEntity
  8
0
100
AcDbBlockBegin
  2
FIGURE_DIAMOND
 70
0
 10
0.000000
 20
0.000000
  3
FIGURE_DIAMOND
  0
POLYLINE
  5
66
100
AcDbEntity
  8
0
100
AcDb2dPolyline
 66
1
 70
1
 40
0.000000
 41
0.000000
 39
0.000000
  0
VERTEX
  5
68
100
AcDbEntity
  8
0
100
AcDbVertex
100
AcDb2dVertex
 10
-0.500000
 20
0.000000
 40
0.000000
 41
0.000000
 42
0.000000
  0
VERTEX
  5
69
100
AcDbEntity
  8
0
100
AcDbVertex
100
AcDb2dVertex
 10
0.000000
 20
0.500000
 40
0.000000
 41
0.000000
 42
0.000000
  0
VERTEX
  5
6a
100
AcDbEntity
  8
0
100
AcDbVertex
100
AcDb2dVertex
 10
0.500000
 20
0.000000
 40
0.000000
 41
0.000000
 42
0.000000
  0
VERTEX
  5
6b
100
AcDbEntity
  8
0
100
AcDbVertex
100
AcDb2dVertex
 10
0.000000
 20
-0.500000
 40
0.000000
 41
0.000000
 42
0.000000
  0
SEQEND
  5
67
100
AcDbEntity
  0
ENDBLK
  5
65
100
AcDbEntity
  8
0
100
AcDbBlockEnd
  0
ENDSEC
  0
SECTION
  2
ENTITIES
  0
LWPOLYLINE
  5
6d
100
AcDbEntity
  8
BG_CUTOUT
100
AcDbPolyline
 90
2
 70
1
 39
0.000000
 10
40.137700
 20
21.480400
 40
0.000000
 41
0.000000
 42
1.000000
 10
38.837640
 20
21.480320
 40
0.000000
 41
0.000000
 42
1.000000
  0
LWPOLYLINE
  5
70
100
AcDbEntity
  8
BG_CUTOUT
100
AcDbPolyline
 90
2
 70
1
 39
0.000000
 10
39.524400
 20
6.260400
 40
0.000000
 41
0.000000
 42
1.000000
 10
37.924360
 20
6.260380
 40
0.000000
 41
0.000000
 42
1.000000
  0
LWPOLYLINE
  5
73
100
AcDbEntity
  8
BG_CUTOUT
100
AcDbPolyline
 90
2
 70
1
 39
0.000000
 10
25.524400
 20
6.260400
 40
0.000000
 41
0.000000
 42
1.000000
 10
23.924360
 20
6.260380
 40
0.000000
 41
0.000000
 42
1.000000
  0
LWPOLYLINE
  5
76
100
AcDbEntity
  8
BG_CUTOUT
100
AcDbPolyline
 90
2
 70
1
 39
0.000000
 10
6.224400
 20
4.730400
 40
0.000000
 41
0.000000
 42
1.000000
 10
4.624360
 20
4.730380
 40
0.000000
 41
0.000000
 42
1.000000
  0
LWPOLYLINE
  5
79
100
AcDbEntity
  8
BG_CUTOUT
100
AcDbPolyline
 90
2
 70
1
 39
0.000000
 10
2.704400
 20
62.530400
 40
0.000000
 41
0.000000
 42
1.000000
 10
0.904360
 20
62.530380
 40
0.000000
 41
0.000000
 42
1.000000
  0
LWPOLYLINE
  5
7c
100
AcDbEntity
  8
BG_CUTOUT
100
AcDbPolyline
 90
2
 70
1
 39
0.000000
 10
3.050000
 20
21.460400
 40
0.000000
 41
0.000000
 42
1.000000
 10
1.249960
 20
21.460380
 40
0.000000
 41
0.000000
 42
1.000000
  0
LWPOLYLINE
  5
7f
100
AcDbEntity
  8
BG_CUTOUT
100
AcDbPolyline
 90
4
 70
1
 39
0.000000
 10
46.846600
 20
136.036800
 40
0.000000
 41
0.000000
 42
0.000000
 10
46.916400
 20
137.034300
 40
0.000000
 41
0.000000
 42
-1.000000
 10
48.213200
 20
136.943600
 40
0.000000
 41
0.000000
 42
0.000000
 10
48.143500
 20
135.946100
 40
0.000000
 41
0.000000
 42
-1.000000
  0
LWPOLYLINE
  5
84
100
AcDbEntity
  8
BG_CUTOUT
100
AcDbPolyline
 90
2
 70
1
 39
0.000000
 10
60.369100
 20
127.400400
 40
0.000000
 41
0.000000
 42
1.000000
 10
58.495660
 20
127.400380
 40
0.000000
 41
0.000000
 42
1.000000
  0
LWPOLYLINE
  5
87
100
AcDbEntity
  8
BG_CUTOUT
100
AcDbPolyline
 90
2
 70
1
 39
0.000000
 10
60.214000
 20
136.400400
 40
0.000000
 41
0.000000
 42
1.000000
 10
58.313940
 20
136.400380
 40
0.000000
 41
0.000000
 42
1.000000
  0
LWPOLYLINE
  5
8a
100
AcDbEntity
  8
BG_CUTOUT
100
AcDbPolyline
 90
2
 70
1
 39
0.000000
 10
5.192600
 20
135.581000
 40
0.000000
 41
0.000000
 42
1.000000
 10
3.292680
 20
135.580960
 40
0.000000
 41
0.000000
 42
1.000000
  0
LWPOLYLINE
  5
8d
100
AcDbEntity
  8
BG_CUTOUT
100
AcDbPolyline
 90
2
 70
1
 39
0.000000
 10
27.292100
 20
132.899200
 40
0.000000
 41
0.000000
 42
1.000000
 10
25.392160
 20
132.899180
 40
0.000000
 41
0.000000
 42
1.000000
  0
LWPOLYLINE
  5
90
100
AcDbEntity
  8
BG_CUTOUT
100
AcDbPolyline
 90
2
 70
1
 39
0.000000
 10
34.847800
 20
126.009900
 40
0.000000
 41
0.000000
 42
1.000000
 10
32.947700
 20
126.009960
 40
0.000000
 41
0.000000
 42
1.000000
  0
LWPOLYLINE
  5
93
100
AcDbEntity
  8
BG_CUTOUT
100
AcDbPolyline
 90
2
 70
1
 39
0.000000
 10
15.797800
 20
104.439900
 40
0.000000
 41
0.000000
 42
1.000000
 10
13.897700
 20
104.439960
 40
0.000000
 41
0.000000
 42
1.000000
  0
LWPOLYLINE
  5
96
100
AcDbEntity
  8
BG_CUTOUT
100
AcDbPolyline
 90
2
 70
1
 39
0.000000
 10
61.344400
 20
21.480400
 40
0.000000
 41
0.000000
 42
1.000000
 10
59.444360
 20
21.480380
 40
0.000000
 41
0.000000
 42
1.000000
  0
LWPOLYLINE
  5
99
100
AcDbEntity
  8
BG_CUTOUT
100
AcDbPolyline
 90
2
 70
1
 39
0.000000
 10
43.037700
 20
21.480400
 40
0.000000
 41
0.000000
 42
1.000000
 10
41.137640
 20
21.480320
 40
0.000000
 41
0.000000
 42
1.000000
  0
LWPOLYLINE
  5
9c
100
AcDbEntity
  8
BG_CUTOUT
100
AcDbPolyline
 90
8
 70
1
 39
0.000000
 10
4.064400
 20
6.360400
 40
0.000000
 41
0.000000
 42
-0.414214
 10
3.264400
 20
7.160400
 40
0.000000
 41
0.000000
 42
0.000000
 10
3.264400
 20
14.560400
 40
0.000000
 41
0.000000
 42
-0.414214
 10
4.064400
 20
15.360400
 40
0.000000
 41
0.000000
 42
0.000000
 10
18.464400
 20
15.360400
 40
0.000000
 41
0.000000
 42
-0.414214
 10
19.264400
 20
14.560400
 40
0.000000
 41
0.000000
 42
0.000000
 10
19.264400
 20
7.160400
 40
0.000000
 41
0.000000
 42
-0.414214
 10
18.464400
 20
6.360400
 40
0.000000
 41
0.000000
 42
0.000000
  0
LWPOLYLINE
  5
a5
100
AcDbEntity
  8
BG_DESIGN_OUTLINE
100
AcDbPolyline
 90
105
 70
1
 39
0.000000
 10
4.119200
 20
0.863500
 40
0.000000
 41
0.000000
 42
0.094779
 10
6.873000
 20
0.039600
 40
0.000000
 41
0.000000
 42
0.007400
 10
7.393400
 20
0.014400
 40
0.000000
 41
0.000000
 42
0.004305
 10
7.914400
 20
0.001300
 40
0.000000
 41
0.000000
 42
0.000000
 10
7.914400
 20
0.700400
 40
0.000000
 41
0.000000
 42
-0.414214
 10
9.114400
 20
1.900400
 40
0.000000
 41
0.000000
 42
0.000000
 10
14.814400
 20
1.900400
 40
0.000000
 41
0.000000
 42
0.000000
 10
14.814400
 20
3.100400
 40
0.000000
 41
0.000000
 42
-0.414214
 10
15.614400
 20
3.900400
 40
0.000000
 41
0.000000
 42
0.000000
 10
19.314400
 20
3.900400
 40
0.000000
 41
0.000000
 42
-0.414214
 10
20.114400
 20
3.100400
 40
0.000000
 41
0.000000
 42
0.000000
 10
20.114400
 20
2.200400
 40
0.000000
 41
0.000000
 42
0.000000
 10
26.724400
 20
2.200400
 40
0.000000
 41
0.000000
 42
0.000000
 10
26.724400
 20
7.610400
 40
0.000000
 41
0.000000
 42
-0.414214
 10
27.524400
 20
8.410400
 40
0.000000
 41
0.000000
 42
0.000000
 10
35.924400
 20
8.410400
 40
0.000000
 41
0.000000
 42
-0.414214
 10
36.724400
 20
7.610400
 40
0.000000
 41
0.000000
 42
0.000000
 10
36.724400
 20
2.080400
 40
0.000000
 41
0.000000
 42
-0.399638
 10
37.674400
 20
1.081600
 40
0.000000
 41
0.000000
 42
0.000000
 10
37.674400
 20
0.000000
 40
0.000000
 41
0.000000
 42
0.000000
 10
40.724400
 20
0.000000
 40
0.000000
 41
0.000000
 42
0.000000
 10
40.724400
 20
15.790400
 40
0.000000
 41
0.000000
 42
-0.414214
 10
41.524400
 20
16.590400
 40
0.000000
 41
0.000000
 42
0.000000
 10
59.044400
 20
16.590400
 40
0.000000
 41
0.000000
 42
-0.414214
 10
59.844400
 20
15.790400
 40
0.000000
 41
0.000000
 42
0.000000
 10
59.844400
 20
6.980400
 40
0.000000
 41
0.000000
 42
0.000000
 10
63.098800
 20
6.980400
 40
0.000000
 41
0.000000
 42
0.000000
 10
63.098800
 20
23.680400
 40
0.000000
 41
0.000000
 42
0.000000
 10
18.304400
 20
23.680400
 40
0.000000
 41
0.000000
 42
-0.414214
 10
16.804400
 20
25.180400
 40
0.000000
 41
0.000000
 42
0.000000
 10
16.804400
 20
51.500400
 40
0.000000
 41
0.000000
 42
-0.236068
 10
16.404400
 20
52.300400
 40
0.000000
 41
0.000000
 42
0.000000
 10
16.404400
 20
62.510400
 40
0.000000
 41
0.000000
 42
-0.236068
 10
16.804400
 20
63.310400
 40
0.000000
 41
0.000000
 42
0.000000
 10
16.804400
 20
119.608400
 40
0.000000
 41
0.000000
 42
-0.267949
 10
16.404400
 20
120.301200
 40
0.000000
 41
0.000000
 42
0.000000
 10
16.404400
 20
124.115600
 40
0.000000
 41
0.000000
 42
-0.268968
 10
16.807000
 20
124.809900
 40
0.000000
 41
0.000000
 42
-0.394922
 10
18.004400
 20
125.930400
 40
0.000000
 41
0.000000
 42
0.000000
 10
30.898500
 20
125.930400
 40
0.000000
 41
0.000000
 42
-0.344298
 10
32.353900
 20
124.793400
 40
0.000000
 41
0.000000
 42
0.344298
 10
33.324200
 20
124.035400
 40
0.000000
 41
0.000000
 42
0.000000
 10
33.965300
 20
124.035400
 40
0.000000
 41
0.000000
 42
0.179963
 10
34.618800
 20
124.278600
 40
0.000000
 41
0.000000
 42
-0.179963
 10
35.599100
 20
124.643200
 40
0.000000
 41
0.000000
 42
0.000000
 10
46.420600
 20
124.643200
 40
0.000000
 41
0.000000
 42
-0.279358
 10
47.307000
 20
125.180400
 40
0.000000
 41
0.000000
 42
0.000000
 10
60.924400
 20
125.180400
 40
0.000000
 41
0.000000
 42
-0.414214
 10
61.924400
 20
124.180400
 40
0.000000
 41
0.000000
 42
0.000000
 10
63.448800
 20
124.180400
 40
0.000000
 41
0.000000
 42
0.000000
 10
63.448800
 20
132.379300
 40
0.000000
 41
0.000000
 42
0.174133
 10
61.700700
 20
137.246600
 40
0.000000
 41
0.000000
 42
0.174134
 10
57.255200
 20
139.889500
 40
0.000000
 41
0.000000
 42
-0.042196
 10
57.125600
 20
139.926200
 40
0.000000
 41
0.000000
 42
-0.042196
 10
57.003900
 20
139.984200
 40
0.000000
 41
0.000000
 42
-0.042196
 10
56.893600
 20
140.061700
 40
0.000000
 41
0.000000
 42
-0.042196
 10
56.798000
 20
140.156700
 40
0.000000
 41
0.000000
 42
-0.042196
 10
56.719700
 20
140.266400
 40
0.000000
 41
0.000000
 42
-0.042196
 10
56.660900
 20
140.387700
 40
0.000000
 41
0.000000
 42
-0.005380
 10
56.654900
 20
140.403800
 40
0.000000
 41
0.000000
 42
-0.005365
 10
56.649200
 20
140.420000
 40
0.000000
 41
0.000000
 42
-0.008044
 10
56.641400
 20
140.444600
 40
0.000000
 41
0.000000
 42
-0.008067
 10
56.634400
 20
140.469400
 40
0.000000
 41
0.000000
 42
0.000000
 10
50.184400
 20
140.469400
 40
0.000000
 41
0.000000
 42
0.000000
 10
50.184400
 20
139.350400
 40
0.000000
 41
0.000000
 42
-0.414214
 10
49.384400
 20
138.550400
 40
0.000000
 41
0.000000
 42
0.000000
 10
45.182500
 20
138.550400
 40
0.000000
 41
0.000000
 42
-0.414214
 10
44.382500
 20
139.350400
 40
0.000000
 41
0.000000
 42
0.000000
 10
44.382500
 20
140.029400
 40
0.000000
 41
0.000000
 42
0.000000
 10
35.024400
 20
140.029400
 40
0.000000
 41
0.000000
 42
0.000000
 10
35.024400
 20
136.996400
 40
0.000000
 41
0.000000
 42
-0.414214
 10
34.224400
 20
136.196400
 40
0.000000
 41
0.000000
 42
0.000000
 10
29.224300
 20
136.196400
 40
0.000000
 41
0.000000
 42
-0.414214
 10
28.424300
 20
136.996400
 40
0.000000
 41
0.000000
 42
0.000000
 10
28.424300
 20
140.139400
 40
0.000000
 41
0.000000
 42
0.414214
 10
27.924300
 20
140.639400
 40
0.000000
 41
0.000000
 42
0.000000
 10
24.264300
 20
140.639400
 40
0.000000
 41
0.000000
 42
0.414214
 10
23.764300
 20
140.139400
 40
0.000000
 41
0.000000
 42
0.000000
 10
23.764300
 20
134.319400
 40
0.000000
 41
0.000000
 42
-0.414214
 10
22.964300
 20
133.519400
 40
0.000000
 41
0.000000
 42
0.000000
 10
15.284300
 20
133.519400
 40
0.000000
 41
0.000000
 42
-0.414214
 10
14.484300
 20
134.319400
 40
0.000000
 41
0.000000
 42
0.000000
 10
14.484300
 20
140.139400
 40
0.000000
 41
0.000000
 42
0.414214
 10
13.984300
 20
140.639400
 40
0.000000
 41
0.000000
 42
0.000000
 10
6.274300
 20
140.639400
 40
0.000000
 41
0.000000
 42
0.414214
 10
5.774300
 20
140.139400
 40
0.000000
 41
0.000000
 42
0.000000
 10
5.774300
 20
139.810400
 40
0.000000
 41
0.000000
 42
-0.414214
 10
4.974300
 20
139.010400
 40
0.000000
 41
0.000000
 42
0.000000
 10
4.413300
 20
139.010400
 40
0.000000
 41
0.000000
 42
0.038143
 10
4.109500
 20
138.987200
 40
0.000000
 41
0.000000
 42
0.038143
 10
3.812700
 20
138.918100
 40
0.000000
 41
0.000000
 42
0.038144
 10
3.529900
 20
138.804700
 40
0.000000
 41
0.000000
 42
0.038145
 10
3.267500
 20
138.649700
 40
0.000000
 41
0.000000
 42
0.120680
 10
0.865900
 20
135.914700
 40
0.000000
 41
0.000000
 42
0.120679
 10
0.000000
 20
132.379300
 40
0.000000
 41
0.000000
 42
0.000000
 10
0.000000
 20
47.960400
 40
0.000000
 41
0.000000
 42
0.414214
 10
1.000000
 20
46.960400
 40
0.000000
 41
0.000000
 42
0.000000
 10
1.934400
 20
46.960400
 40
0.000000
 41
0.000000
 42
-0.414214
 10
2.734400
 20
46.160400
 40
0.000000
 41
0.000000
 42
0.000000
 10
2.734400
 20
44.960400
 40
0.000000
 41
0.000000
 42
-0.414214
 10
1.934400
 20
44.160400
 40
0.000000
 41
0.000000
 42
0.000000
 10
0.934400
 20
44.160400
 40
0.000000
 41
0.000000
 42
0.000000
 10
0.934400
 20
32.199300
 40
0.000000
 41
0.000000
 42
-0.293574
 10
0.350000
 20
31.289700
 40
0.000000
 41
0.000000
 42
0.000000
 10
0.350000
 20
7.073400
 40
0.000000
 41
0.000000
 42
0.279739
  0
ENDSEC
  0
SECTION
  2
OBJECTS
  0
DICTIONARY
  5
12
100
AcDbDictionary
  3
ACAD_GROUP
350
13
  3
ACAD_MLINESTYLE
350
14
  0
DICTIONARY
  5
13
100
AcDbDictionary
  0
DICTIONARY
  5
14
100
AcDbDictionary
  0
ENDSEC
  0
EOF
