  0
SECTION
  2
HEADER
999
 Generated by Genesis 2000
999
  Job : tld0150, Step : pcb1
  9
$FILLMODE
 70
1
  9
$MEASUREMENT
 70
1
  0
ENDSEC
   0
SECTION
   2
TABLES
  0
TABLE
2
LAYER
 70
1
  0
LAYER
  2
0
 70
64
 62
1
  6
CONTINUOUS
  0
ENDTAB
  0
ENDSEC
  0
SECTION
2
BLOCKS
  0
BLOCK
  8
0
  2
PAD_R1
 70
64
 10
0.0
 20
0.0
  0
POLYLINE
  8
0
 10
0.0
 20
0.0
 40
0.5
 41
0.5
 66
1
 70
1
  0
VERTEX
  8
0
 10
0.25
 20
0.0
 42
1.0
  0
VERTEX
  8
0
 10
-0.25
 20
0.0
 42
1.0
  0
SEQEND
  0
ENDBLK
  0
BLOCK
  8
0
  2
PAD_S1
 70
64
 10
0.0
 20
0.0
  0
POLYLINE
  8
0
 10
0.0
 20
0.0
 40
1.0
 41
1.0
 66
1
  0
VERTEX
  8
0
 10
-0.5
 20
0
  0
VERTEX
  8
0
 10
0.5
 20
0
  0
SEQEND
  0
ENDBLK
  0
ENDSEC
  0
SECTION
  2
ENTITIES
  0
POLYLINE
  8
0
 40
0.4
 41
0.4
 66
1
 70
1
  0
VERTEX
  8
0
 10
-32.299910
 20
60.779915
 42
0.414216
  0
VERTEX
  8
0
 10
-32.800035
 20
60.280042
  0
VERTEX
  8
0
 10
-32.800035
 20
52.099972
 42
0.41437
  0
VERTEX
  8
0
 10
-32.299910
 20
51.600100
  0
VERTEX
  8
0
 10
-32.200087
 20
51.600100
 42
-0.414218
  0
VERTEX
  8
0
 10
-31.699962
 20
51.099975
  0
VERTEX
  8
0
 10
-31.699962
 20
49.099977
 42
-0.414216
  0
VERTEX
  8
0
 10
-32.200087
 20
48.600105
  0
VERTEX
  8
0
 10
-32.299910
 20
48.600105
 42
0.414218
  0
VERTEX
  8
0
 10
-32.800035
 20
48.099980
  0
VERTEX
  8
0
 10
-32.800035
 20
39.150035
 42
0.414218
  0
VERTEX
  8
0
 10
-32.299910
 20
38.649910
  0
VERTEX
  8
0
 10
-31.599885
 20
38.649910
 42
-0.414218
  0
VERTEX
  8
0
 10
-31.100015
 20
38.150037
  0
VERTEX
  8
0
 10
-31.100015
 20
30.349952
 42
-0.414218
  0
VERTEX
  8
0
 10
-31.599885
 20
29.850080
  0
VERTEX
  8
0
 10
-32.200087
 20
29.850080
 42
0.414216
  0
VERTEX
  8
0
 10
-32.699960
 20
29.349955
  0
VERTEX
  8
0
 10
-32.699960
 20
28.640025
 42
-0.121302
  0
VERTEX
  8
0
 10
-32.791400
 20
28.268675
 42
0.121289
  0
VERTEX
  8
0
 10
-33.020000
 20
27.340052
  0
VERTEX
  8
0
 10
-33.020000
 20
26.349960
 42
0.414214
  0
VERTEX
  8
0
 10
-31.020005
 20
24.349965
  0
VERTEX
  8
0
 10
-29.271975
 20
24.349965
 42
-0.206818
  0
VERTEX
  8
0
 10
-28.543757
 20
24.035258
  0
VERTEX
  8
0
 10
-27.856180
 20
23.304755
 42
0.206818
  0
VERTEX
  8
0
 10
-27.127962
 20
22.990047
  0
VERTEX
  8
0
 10
-20.884642
 20
22.990047
 42
0.229409
  0
VERTEX
  8
0
 10
-20.492212
 20
23.180040
 42
-0.229432
  0
VERTEX
  8
0
 10
-20.100035
 20
23.370032
  0
VERTEX
  8
0
 10
-17.100043
 20
23.370032
 42
-0.236047
  0
VERTEX
  8
0
 10
-16.699993
 20
23.169880
 42
0.236071
  0
VERTEX
  8
0
 10
-15.899892
 20
22.770085
  0
VERTEX
  8
0
 10
-7.335775
 20
22.770085
 42
0.113278
  0
VERTEX
  8
0
 10
-7.117842
 20
22.820123
 42
-0.113252
  0
VERTEX
  8
0
 10
-6.899910
 20
22.869905
  0
VERTEX
  8
0
 10
-2.617977
 20
22.869905
 42
-0.079582
  0
VERTEX
  8
0
 10
-2.461767
 20
22.845015
 42
0.07958
  0
VERTEX
  8
0
 10
-2.305813
 20
22.820123
  0
VERTEX
  8
0
 10
7.114032
 20
22.820123
 42
0.113248
  0
VERTEX
  8
0
 10
7.331965
 20
22.869905
 42
-0.113278
  0
VERTEX
  8
0
 10
7.549895
 20
22.919945
  0
VERTEX
  8
0
 10
11.879325
 20
22.919945
 42
-0.061495
  0
VERTEX
  8
0
 10
12.000992
 20
22.904957
 42
0.0615
  0
VERTEX
  8
0
 10
12.122405
 20
22.889972
  0
VERTEX
  8
0
 10
25.249885
 20
22.889972
 42
-0.414216
  0
VERTEX
  8
0
 10
26.249885
 20
21.889975
  0
VERTEX
  8
0
 10
26.249885
 20
-0.739902
 42
0.236047
  0
VERTEX
  8
0
 10
26.450035
 20
-1.139952
 42
-0.235992
  0
VERTEX
  8
0
 10
26.649935
 20
-1.540002
  0
VERTEX
  8
0
 10
26.649935
 20
-14.699995
 42
-0.235991
  0
VERTEX
  8
0
 10
26.450035
 20
-15.100045
 42
0.236047
  0
VERTEX
  8
0
 10
26.249885
 20
-15.500095
  0
VERTEX
  8
0
 10
26.249885
 20
-51.228245
 42
0.210521
  0
VERTEX
  8
0
 10
26.575005
 20
-51.966115
 42
-0.21052
  0
VERTEX
  8
0
 10
26.900125
 20
-52.703985
  0
VERTEX
  8
0
 10
26.900125
 20
-53.799995
 42
0.414215
  0
VERTEX
  8
0
 10
27.399995
 20
-54.300120
  0
VERTEX
  8
0
 10
28.880055
 20
-54.300120
 42
-0.414215
  0
VERTEX
  8
0
 10
29.880052
 20
-55.300117
  0
VERTEX
  8
0
 10
29.880052
 20
-59.300110
 42
0.414215
  0
VERTEX
  8
0
 10
30.880050
 20
-60.300107
  0
VERTEX
  8
0
 10
32.379920
 20
-60.300107
 42
0.414218
  0
VERTEX
  8
0
 10
32.880045
 20
-59.799982
  0
VERTEX
  8
0
 10
32.880045
 20
-57.094375
 42
0.079563
  0
VERTEX
  8
0
 10
32.854900
 20
-56.938165
 42
-0.079586
  0
VERTEX
  8
0
 10
32.830008
 20
-56.781955
  0
VERTEX
  8
0
 10
32.830008
 20
-46.217840
 42
-0.079578
  0
VERTEX
  8
0
 10
32.854900
 20
-46.061885
 42
0.079566
  0
VERTEX
  8
0
 10
32.880045
 20
-45.905675
  0
VERTEX
  8
0
 10
32.880045
 20
-30.784037
 42
-0.045747
  0
VERTEX
  8
0
 10
32.904937
 20
-30.511242
 42
0.045749
  0
VERTEX
  8
0
 10
32.930085
 20
-30.238700
  0
VERTEX
  8
0
 10
32.930085
 20
-28.561285
 42
0.045749
  0
VERTEX
  8
0
 10
32.904937
 20
-28.288742
 42
-0.045748
  0
VERTEX
  8
0
 10
32.880045
 20
-28.015945
  0
VERTEX
  8
0
 10
32.880045
 20
-15.819882
 42
-0.139629
  0
VERTEX
  8
0
 10
32.954975
 20
-15.556485
 42
0.139586
  0
VERTEX
  8
0
 10
33.029905
 20
-15.293340
  0
VERTEX
  8
0
 10
33.029905
 20
-1.894332
 42
-0.079563
  0
VERTEX
  8
0
 10
33.055052
 20
-1.738122
 42
0.079585
  0
VERTEX
  8
0
 10
33.079945
 20
-1.582165
  0
VERTEX
  8
0
 10
33.079945
 20
1.461515
 42
0.386321
  0
VERTEX
  8
0
 10
32.628077
 20
1.959355
 42
-0.38632
  0
VERTEX
  8
0
 10
30.820105
 20
3.949955
  0
VERTEX
  8
0
 10
30.820105
 20
34.900107
 42
0.414215
  0
VERTEX
  8
0
 10
29.820107
 20
35.900105
  0
VERTEX
  8
0
 10
27.850085
 20
35.900105
 42
0.414219
  0
VERTEX
  8
0
 10
27.349957
 20
35.399980
  0
VERTEX
  8
0
 10
27.349957
 20
32.360107
 42
-0.283228
  0
VERTEX
  8
0
 10
27.074875
 20
31.913575
 42
0.283301
  0
VERTEX
  8
0
 10
26.800047
 20
31.467045
  0
VERTEX
  8
0
 10
26.800047
 20
29.200095
 42
-0.414216
  0
VERTEX
  8
0
 10
25.800050
 20
28.200095
  0
VERTEX
  8
0
 10
14.750035
 20
28.200095
 42
-0.414307
  0
VERTEX
  8
0
 10
13.949935
 20
28.999942
  0
VERTEX
  8
0
 10
13.949935
 20
29.999940
 42
-0.327487
  0
VERTEX
  8
0
 10
14.299945
 20
30.476952
 42
0.327488
  0
VERTEX
  8
0
 10
14.649957
 20
30.953965
  0
VERTEX
  8
0
 10
14.649957
 20
36.900105
 42
0.414215
  0
VERTEX
  8
0
 10
13.649960
 20
37.900102
  0
VERTEX
  8
0
 10
12.800075
 20
37.900102
 42
-0.414215
  0
VERTEX
  8
0
 10
11.800077
 20
38.900100
  0
VERTEX
  8
0
 10
11.800077
 20
54.399942
 42
-0.414215
  0
VERTEX
  8
0
 10
12.800075
 20
55.399940
  0
VERTEX
  8
0
 10
13.299948
 20
55.399940
 42
0.414215
  0
VERTEX
  8
0
 10
14.299945
 20
56.399938
  0
VERTEX
  8
0
 10
14.299945
 20
62.983365
 42
0.298188
  0
VERTEX
  8
0
 10
13.999972
 20
63.441835
 42
-0.298264
  0
VERTEX
  8
0
 10
13.699997
 20
63.900050
  0
VERTEX
  8
0
 10
13.699997
 20
65.399920
 42
-0.414219
  0
VERTEX
  8
0
 10
14.200125
 20
65.900045
  0
VERTEX
  8
0
 10
27.049985
 20
65.900045
 42
-0.414215
  0
VERTEX
  8
0
 10
28.049982
 20
64.900047
  0
VERTEX
  8
0
 10
28.049982
 20
63.950087
 42
-0.298191
  0
VERTEX
  8
0
 10
27.750007
 20
63.491617
 42
0.298264
  0
VERTEX
  8
0
 10
27.450035
 20
63.033402
  0
VERTEX
  8
0
 10
27.450035
 20
57.999885
 42
0.414218
  0
VERTEX
  8
0
 10
27.949905
 20
57.500012
  0
VERTEX
  8
0
 10
30.699965
 20
57.500012
 42
0.414215
  0
VERTEX
  8
0
 10
32.200087
 20
58.999882
  0
VERTEX
  8
0
 10
32.200087
 20
64.399923
 42
0.414214
  0
VERTEX
  8
0
 10
26.399997
 20
70.200012
  0
VERTEX
  8
0
 10
10.326878
 20
70.200012
 42
-0.097759
  0
VERTEX
  8
0
 10
9.946895
 20
70.274942
 42
0.097745
  0
VERTEX
  8
0
 10
9.566910
 20
70.350125
  0
VERTEX
  8
0
 10
2.560827
 20
70.350125
 42
-0.142587
  0
VERTEX
  8
0
 10
2.131568
 20
70.475095
 42
0.142613
  0
VERTEX
  8
0
 10
1.702055
 20
70.600062
  0
VERTEX
  8
0
 10
-0.742188
 20
70.600062
 42
0.142589
  0
VERTEX
  8
0
 10
-1.171447
 20
70.475095
 42
-0.142614
  0
VERTEX
  8
0
 10
-1.600962
 20
70.350125
  0
VERTEX
  8
0
 10
-12.433555
 20
70.350125
 42
-0.084321
  0
VERTEX
  8
0
 10
-13.424155
 20
70.518275
 42
0.084322
  0
VERTEX
  8
0
 10
-14.200125
 20
70.650100
  0
VERTEX
  8
0
 10
-20.850098
 20
70.650100
 42
0.059416
  0
VERTEX
  8
0
 10
-21.402547
 20
70.584060
 42
-0.059414
  0
VERTEX
  8
0
 10
-22.107905
 20
70.499985
  0
VERTEX
  8
0
 10
-26.258265
 20
70.499985
 42
0.36596
  0
VERTEX
  8
0
 10
-26.554175
 20
70.250050
 42
-0.365969
  0
VERTEX
  8
0
 10
-26.850085
 20
70.000115
  0
VERTEX
  8
0
 10
-28.349955
 20
70.000115
 42
0.413967
  0
VERTEX
  8
0
 10
-28.649930
 20
69.699885
  0
VERTEX
  8
0
 10
-28.649930
 20
68.799965
 42
0.414221
  0
VERTEX
  8
0
 10
-28.349955
 20
68.499990
  0
VERTEX
  8
0
 10
-24.450040
 20
68.499990
 42
-0.414216
  0
VERTEX
  8
0
 10
-23.949915
 20
68.000118
  0
VERTEX
  8
0
 10
-23.949915
 20
61.980065
 42
-0.414215
  0
VERTEX
  8
0
 10
-25.150065
 20
60.779915
  0
SEQEND
  0
POLYLINE
  8
0
 40
0.4
 41
0.4
 66
1
 70
1
  0
VERTEX
  8
0
 10
-13.200125
 20
68.300092
  0
VERTEX
  8
0
 10
-13.200125
 20
61.630052
 42
-0.41422
  0
VERTEX
  8
0
 10
-13.699997
 20
61.129925
  0
VERTEX
  8
0
 10
-21.349970
 20
61.129925
 42
-0.414219
  0
VERTEX
  8
0
 10
-21.850095
 20
61.630052
  0
VERTEX
  8
0
 10
-21.850095
 20
68.300092
 42
-0.414215
  0
VERTEX
  8
0
 10
-20.850098
 20
69.300090
  0
VERTEX
  8
0
 10
-14.200125
 20
69.300090
 42
-0.414216
  0
SEQEND
  0
POLYLINE
  8
0
 40
0.4
 41
0.4
 66
1
 70
1
  0
VERTEX
  8
0
 10
0.736855
 20
62.467235
 42
-0.105001
  0
VERTEX
  8
0
 10
0.780035
 20
62.264035
  0
VERTEX
  8
0
 10
0.780035
 20
61.805312
 42
-0.113964
  0
VERTEX
  8
0
 10
0.729487
 20
61.586365
  0
VERTEX
  8
0
 10
0.515620
 20
61.148215
 42
0.14126
  0
VERTEX
  8
0
 10
0.420370
 20
60.602367
 42
-0.566153
  0
VERTEX
  8
0
 10
-6.621525
 20
55.271925
 42
0.157987
  0
VERTEX
  8
0
 10
-7.236460
 20
55.314342
  0
VERTEX
  8
0
 10
-7.805420
 20
55.172610
 42
-0.223094
  0
VERTEX
  8
0
 10
-8.222487
 20
55.254652
 42
-0.187698
  0
VERTEX
  8
0
 10
-10.537190
 20
58.896505
 42
-0.297089
  0
VERTEX
  8
0
 10
-10.333482
 20
59.402980
  0
VERTEX
  8
0
 10
-10.272775
 20
59.445652
 42
0.235493
  0
VERTEX
  8
0
 10
-9.846818
 20
60.229750
 42
-0.333447
  0
VERTEX
  8
0
 10
-5.966460
 20
65.041780
 42
0.285681
  0
VERTEX
  8
0
 10
-5.234177
 20
65.803272
  0
VERTEX
  8
0
 10
-5.144007
 20
66.227198
 42
-0.414218
  0
VERTEX
  8
0
 10
-4.550917
 20
66.612515
  0
VERTEX
  8
0
 10
-2.213102
 20
66.115437
 42
-0.31757
  0
VERTEX
  8
0
 10
-1.821435
 20
65.692020
 42
0.21544
  0
VERTEX
  8
0
 10
-1.386840
 20
64.992250
 42
-0.141403
  0
SEQEND
  0
ENDSEC
   0
EOF
