999
dxfrw 0.6.3
  0
SECTION
  2
HEADER
  9
$ACADVER
  1
AC1021
  9
$DWGCODEPAGE
  3
ANSI_1252
  9
$INSBASE
 10
0
 20
0
 30
0
  9
$EXTMIN
 10
0
 20
-0
 30
0
  9
$EXTMAX
 10
6.456999999999999
 20
9.685
 30
0
  9
$LIMMIN
 10
0
 20
0
  9
$LIMMAX
 10
420
 20
297
  9
$ORTHOMODE
 70
    0
  9
$REGENMODE
 70
    1
  9
$FILLMODE
 70
    1
  9
$QTEXTMODE
 70
    0
  9
$MIRRTEXT
 70
    0
  9
$LTSCALE
 40
1
  9
$ATTMODE
 70
    0
  9
$TEXTSIZE
 40
2.5
  9
$TRACEWID
 40
15.68
  9
$TEXTSTYLE
  7
STANDARD
  9
$CLAYER
  8
0
  9
$CELTYPE
  6
BYLAYER
  9
$CECOLOR
 62
  256
  9
$CELTSCALE
 40
1
  9
$DISPSILH
 70
    0
  9
$DIMSCALE
 40
2.5
  9
$DIMASZ
 40
2.5
  9
$DIMEXO
 40
0.625
  9
$DIMDLI
 40
3.75
  9
$DIMRND
 40
0
  9
$DIMDLE
 40
0
  9
$DIMEXE
 40
1.25
  9
$DIMTP
 40
0
  9
$DIMTM
 40
0
  9
$DIMTXT
 40
2.5
  9
$DIMCEN
 40
2.5
  9
$DIMTSZ
 40
0
  9
$DIMTOL
 70
    0
  9
$DIMLIM
 70
    0
  9
$DIMTIH
 70
    0
  9
$DIMTOH
 70
    0
  9
$DIMSE1
 70
    0
  9
$DIMSE2
 70
    0
  9
$DIMTAD
 70
    1
  9
$DIMZIN
 70
    8
  9
$DIMBLK
  1

  9
$DIMASO
 70
    1
  9
$DIMSHO
 70
    1
  9
$DIMPOST
  1

  9
$DIMAPOST
  1

  9
$DIMALT
 70
    0
  9
$DIMALTD
 70
    3
  9
$DIMALTF
 40
0.03937
  9
$DIMLFAC
 40
1
  9
$DIMTOFL
 70
    1
  9
$DIMTVP
 40
0
  9
$DIMTIX
 70
    0
  9
$DIMSOXD
 70
    0
  9
$DIMSAH
 70
    0
  9
$DIMBLK1
  1

  9
$DIMBLK2
  1

  9
$DIMSTYLE
  2
Standard
  9
$DIMCLRD
 70
    0
  9
$DIMCLRE
 70
    0
  9
$DIMCLRT
 70
    0
  9
$DIMTFAC
 40
1
  9
$DIMGAP
 40
0.625
  9
$DIMJUST
 70
    0
  9
$DIMSD1
 70
    0
  9
$DIMSD2
 70
    0
  9
$DIMTOLJ
 70
    0
  9
$DIMTZIN
 70
    8
  9
$DIMALTZ
 70
    0
  9
$DIMALTTZ
 70
    0
  9
$DIMUPT
 70
    0
  9
$DIMDEC
 70
    2
  9
$DIMTDEC
 70
    2
  9
$DIMALTU
 70
    2
  9
$DIMALTTD
 70
    3
  9
$DIMTXSTY
  7
STANDARD
  9
$DIMAUNIT
 70
    0
  9
$DIMADEC
 70
    0
  9
$DIMALTRND
 40
0
  9
$DIMAZIN
 70
    0
  9
$DIMDSEP
 70
   44
  9
$DIMATFIT
 70
    3
  9
$DIMFRAC
 70
    0
  9
$DIMLDRBLK
  1
STANDARD
  9
$DIMLUNIT
 70
    2
  9
$DIMLWD
 70
   -2
  9
$DIMLWE
 70
   -2
  9
$DIMTMOVE
 70
    0
  9
$DIMFXL
 40
1
  9
$DIMFXLON
 70
    0
  9
$DIMJOGANG
 40
0.7854
  9
$DIMTFILL
 70
    0
  9
$DIMTFILLCLR
 70
    0
  9
$DIMARCSYM
 70
    0
  9
$DIMLTYPE
  6

  9
$DIMLTEX1
  6

  9
$DIMLTEX2
  6

  9
$LUNITS
 70
    2
  9
$LUPREC
 70
    4
  9
$SKETCHINC
 40
1
  9
$FILLETRAD
 40
0
  9
$AUNITS
 70
    0
  9
$AUPREC
 70
    2
  9
$MENU
  1
.
  9
$ELEVATION
 40
0
  9
$PELEVATION
 40
0
  9
$THICKNESS
 40
0
  9
$LIMCHECK
 70
    0
  9
$CHAMFERA
 40
0
  9
$CHAMFERB
 40
0
  9
$CHAMFERC
 40
0
  9
$CHAMFERD
 40
0
  9
$SKPOLY
 70
    0
  9
$USRTIMER
 70
    1
  9
$ANGBASE
 50
0
  9
$ANGDIR
 70
    0
  9
$PDMODE
 70
   34
  9
$PDSIZE
 40
0
  9
$PLINEWID
 40
0
  9
$SPLFRAME
 70
    0
  9
$SPLINETYPE
 70
    2
  9
$SPLINESEGS
 70
    8
  9
$HANDSEED
  5
20000
  9
$SURFTAB1
 70
    6
  9
$SURFTAB2
 70
    6
  9
$SURFTYPE
 70
    6
  9
$SURFU
 70
    6
  9
$SURFV
 70
    6
  9
$UCSBASE
  2

  9
$UCSNAME
  2

  9
$UCSORG
 10
0
 20
0
 30
0
  9
$UCSXDIR
 10
1
 20
0
 30
0
  9
$UCSYDIR
 10
0
 20
1
 30
0
  9
$UCSORTHOREF
  2

  9
$UCSORTHOVIEW
 70
    0
  9
$UCSORGTOP
 10
0
 20
0
 30
0
  9
$UCSORGBOTTOM
 10
0
 20
0
 30
0
  9
$UCSORGLEFT
 10
0
 20
0
 30
0
  9
$UCSORGRIGHT
 10
0
 20
0
 30
0
  9
$UCSORGFRONT
 10
0
 20
0
 30
0
  9
$UCSORGBACK
 10
0
 20
0
 30
0
  9
$PUCSBASE
  2

  9
$PUCSNAME
  2

  9
$PUCSORG
 10
0
 20
0
 30
0
  9
$PUCSXDIR
 10
1
 20
0
 30
0
  9
$PUCSYDIR
 10
0
 20
1
 30
0
  9
$PUCSORTHOREF
  2

  9
$PUCSORTHOVIEW
 70
    0
  9
$PUCSORGTOP
 10
0
 20
0
 30
0
  9
$PUCSORGBOTTOM
 10
0
 20
0
 30
0
  9
$PUCSORGLEFT
 10
0
 20
0
 30
0
  9
$PUCSORGRIGHT
 10
0
 20
0
 30
0
  9
$PUCSORGFRONT
 10
0
 20
0
 30
0
  9
$PUCSORGBACK
 10
0
 20
0
 30
0
  9
$USERI1
 70
    0
  9
$USERI2
 70
    0
  9
$USERI3
 70
    0
  9
$USERI4
 70
    0
  9
$USERI5
 70
    0
  9
$USERR1
 40
0
  9
$USERR2
 40
0
  9
$USERR3
 40
0
  9
$USERR4
 40
0
  9
$USERR5
 40
0
  9
$WORLDVIEW
 70
    1
  9
$SHADEDGE
 70
    3
  9
$SHADEDIF
 70
   70
  9
$TILEMODE
 70
    1
  9
$MAXACTVP
 70
   64
  9
$PINSBASE
 10
0
 20
0
 30
0
  9
$PLIMCHECK
 70
    0
  9
$PEXTMIN
 10
0
 20
0
 30
0
  9
$PEXTMAX
 10
0
 20
0
 30
0
  9
$GRIDMODE
 70
    1
  9
$PLIMMIN
 10
0
 20
0
  9
$PLIMMAX
 10
210
 20
297
  9
$UNITMODE
 70
    0
  9
$VISRETAIN
 70
    1
  9
$PLINEGEN
 70
    0
  9
$PSLTSCALE
 70
    1
  9
$TREEDEPTH
 70
 3020
  9
$CMLSTYLE
  2
Standard
  9
$CMLJUST
 70
    0
  9
$CMLSCALE
 40
20
  9
$PROXYGRAPHICS
 70
    1
  9
$MEASUREMENT
 70
    1
  9
$CELWEIGHT
370
   -1
  9
$ENDCAPS
280
    0
  9
$JOINSTYLE
280
    0
  9
$LWDISPLAY
290
    0
  9
$INSUNITS
 70
    0
  9
$HYPERLINKBASE
  1

  9
$STYLESHEET
  1

  9
$XEDIT
290
    1
  9
$CEPSNTYPE
380
    0
  9
$PSTYLEMODE
290
    1
  9
$EXTNAMES
290
    1
  9
$PSVPSCALE
 40
0
  9
$OLESTARTUP
290
    0
  9
$SORTENTS
280
  127
  9
$INDEXCTL
280
    0
  9
$HIDETEXT
280
    1
  9
$XCLIPFRAME
290
    0
  9
$HALOGAP
280
    0
  9
$OBSCOLOR
 70
  257
  9
$OBSLTYPE
280
    0
  9
$INTERSECTIONDISPLAY
280
    0
  9
$INTERSECTIONCOLOR
 70
  257
  9
$DIMASSOC
280
    1
  9
$PROJECTNAME
  1

  9
$CAMERADISPLAY
290
    0
  9
$LENSLENGTH
 40
50
  9
$CAMERAHEIGHT
 40
0
  9
$STEPSPERSEC
 40
2
  9
$STEPSIZE
 40
50
  9
$3DDWFPREC
 40
2
  9
$PSOLWIDTH
 40
5
  9
$PSOLHEIGHT
 40
80
  9
$LOFTANG1
 40
1.570796326794897
  9
$LOFTANG2
 40
1.570796326794897
  9
$LOFTMAG1
 40
0
  9
$LOFTMAG2
 40
0
  9
$LOFTPARAM
 70
    7
  9
$LOFTNORMALS
280
    1
  9
$LATITUDE
 40
1
  9
$LONGITUDE
 40
1
  9
$NORTHDIRECTION
 40
0
  9
$TIMEZONE
 70
-8000
  9
$LIGHTGLYPHDISPLAY
280
    1
  9
$TILEMODELIGHTSYNCH
280
    1
  9
$SOLIDHIST
280
    1
  9
$SHOWHIST
280
    1
  9
$DWFFRAME
280
    2
  9
$DGNFRAME
280
    0
  9
$REALWORLDSCALE
290
    1
  9
$INTERFERECOLOR
 62
    1
  9
$CSHADOW
280
    0
  9
$SHADOWPLANELOCATION
 40
0
  0
ENDSEC
  0
SECTION
  2
CLASSES
  0
ENDSEC
  0
SECTION
  2
TABLES
  0
TABLE
  2
VPORT
  5
8
330
0
100
AcDbSymbolTable
 70
    1
  0
VPORT
  5
31
330
2
100
AcDbSymbolTableRecord
100
AcDbViewportTableRecord
  2
*ACTIVE
 70
    0
 10
0
 20
0
 11
1
 21
1
 12
6.26641859052248
 22
4.901339611178615
 13
0
 23
0
 14
10
 24
10
 15
10
 25
10
 16
0
 26
0
 36
1
 17
0
 27
0
 37
0
 40
9.920358444714461
 41
1.874258600237248
 42
50
 43
0
 44
0
 50
0
 51
0
 71
    0
 72
  100
 73
    1
 74
    3
 75
    0
 76
    1
 77
    0
 78
    0
281
    0
 65
    1
110
0
120
0
130
0
111
1
121
0
131
0
112
0
122
1
132
0
 79
    0
146
0
348
10020
 60
    7
 61
    5
292
1
282
    1
141
0
142
0
 63
  250
421
3358443
  0
ENDTAB
  0
TABLE
  2
LTYPE
  5
5
330
0
100
AcDbSymbolTable
 70
    4
  0
LTYPE
  5
14
330
5
100
AcDbSymbolTableRecord
100
AcDbLinetypeTableRecord
  2
ByBlock
 70
    0
  3

 72
   65
 73
    0
 40
0
  0
LTYPE
  5
15
330
5
100
AcDbSymbolTableRecord
100
AcDbLinetypeTableRecord
  2
ByLayer
 70
    0
  3

 72
   65
 73
    0
 40
0
  0
LTYPE
  5
16
330
5
100
AcDbSymbolTableRecord
100
AcDbLinetypeTableRecord
  2
Continuous
 70
    0
  3
Solid line
 72
   65
 73
    0
 40
0
  0
LTYPE
  5
32
330
5
100
AcDbSymbolTableRecord
100
AcDbLinetypeTableRecord
  2
DOT
 70
    0
  3
Dot . . . . . . . . . . . . . . . . . . . . . .
 72
   65
 73
    2
 40
6.35
 49
0
 74
    0
 49
-6.35
 74
    0
  0
LTYPE
  5
33
330
5
100
AcDbSymbolTableRecord
100
AcDbLinetypeTableRecord
  2
DOTTINY
 70
    0
  3
Dot (.15x) .....................................
 72
   65
 73
    2
 40
0.9525
 49
0
 74
    0
 49
-0.9525
 74
    0
  0
LTYPE
  5
34
330
5
100
AcDbSymbolTableRecord
100
AcDbLinetypeTableRecord
  2
DOT2
 70
    0
  3
Dot (.5x) .....................................
 72
   65
 73
    2
 40
3.175
 49
0
 74
    0
 49
-3.175
 74
    0
  0
LTYPE
  5
35
330
5
100
AcDbSymbolTableRecord
100
AcDbLinetypeTableRecord
  2
DOTX2
 70
    0
  3
Dot (2x) .  .  .  .  .  .  .  .  .  .  .  .  .
 72
   65
 73
    2
 40
12.7
 49
0
 74
    0
 49
-12.7
 74
    0
  0
LTYPE
  5
36
330
5
100
AcDbSymbolTableRecord
100
AcDbLinetypeTableRecord
  2
DASHED
 70
    0
  3
Dashed _ _ _ _ _ _ _ _ _ _ _ _ _ _ _ _ _
 72
   65
 73
    2
 40
19.05
 49
12.7
 74
    0
 49
-6.35
 74
    0
  0
LTYPE
  5
37
330
5
100
AcDbSymbolTableRecord
100
AcDbLinetypeTableRecord
  2
DASHEDTINY
 70
    0
  3
Dashed (.15x) _ _ _ _ _ _ _ _ _ _ _ _ _ _ _ _ _
 72
   65
 73
    2
 40
2.8575
 49
1.905
 74
    0
 49
-0.9525
 74
    0
  0
LTYPE
  5
38
330
5
100
AcDbSymbolTableRecord
100
AcDbLinetypeTableRecord
  2
DASHED2
 70
    0
  3
Dashed (.5x) _ _ _ _ _ _ _ _ _ _ _ _ _ _ _ _ _
 72
   65
 73
    2
 40
9.524999999999999
 49
6.35
 74
    0
 49
-3.175
 74
    0
  0
LTYPE
  5
39
330
5
100
AcDbSymbolTableRecord
100
AcDbLinetypeTableRecord
  2
DASHEDX2
 70
    0
  3
Dashed (2x) ____  ____  ____  ____  ____  ___
 72
   65
 73
    2
 40
38.09999999999999
 49
25.4
 74
    0
 49
-12.7
 74
    0
  0
LTYPE
  5
3A
330
5
100
AcDbSymbolTableRecord
100
AcDbLinetypeTableRecord
  2
DASHDOT
 70
    0
  3
Dash dot __ . __ . __ . __ . __ . __ . __ . __
 72
   65
 73
    4
 40
25.4
 49
12.7
 74
    0
 49
-6.35
 74
    0
 49
0
 74
    0
 49
-6.35
 74
    0
  0
LTYPE
  5
3B
330
5
100
AcDbSymbolTableRecord
100
AcDbLinetypeTableRecord
  2
DASHDOTTINY
 70
    0
  3
Dash dot (.15x) _._._._._._._._._._._._._._._.
 72
   65
 73
    4
 40
3.81
 49
1.905
 74
    0
 49
-0.9525
 74
    0
 49
0
 74
    0
 49
-0.9525
 74
    0
  0
LTYPE
  5
3C
330
5
100
AcDbSymbolTableRecord
100
AcDbLinetypeTableRecord
  2
DASHDOT2
 70
    0
  3
Dash dot (.5x) _._._._._._._._._._._._._._._.
 72
   65
 73
    4
 40
12.7
 49
6.35
 74
    0
 49
-3.175
 74
    0
 49
0
 74
    0
 49
-3.175
 74
    0
  0
LTYPE
  5
3D
330
5
100
AcDbSymbolTableRecord
100
AcDbLinetypeTableRecord
  2
DASHDOTX2
 70
    0
  3
Dash dot (2x) ____  .  ____  .  ____  .  ___
 72
   65
 73
    4
 40
50.8
 49
25.4
 74
    0
 49
-12.7
 74
    0
 49
0
 74
    0
 49
-12.7
 74
    0
  0
LTYPE
  5
3E
330
5
100
AcDbSymbolTableRecord
100
AcDbLinetypeTableRecord
  2
DIVIDE
 70
    0
  3
Divide ____ . . ____ . . ____ . . ____ . . ____
 72
   65
 73
    6
 40
31.75
 49
12.7
 74
    0
 49
-6.35
 74
    0
 49
0
 74
    0
 49
-6.35
 74
    0
 49
0
 74
    0
 49
-6.35
 74
    0
  0
LTYPE
  5
3F
330
5
100
AcDbSymbolTableRecord
100
AcDbLinetypeTableRecord
  2
DIVIDETINY
 70
    0
  3
Divide (.15x) __..__..__..__..__..__..__..__.._
 72
   65
 73
    6
 40
4.7625
 49
1.905
 74
    0
 49
-0.9525
 74
    0
 49
0
 74
    0
 49
-0.9525
 74
    0
 49
0
 74
    0
 49
-0.9525
 74
    0
  0
LTYPE
  5
40
330
5
100
AcDbSymbolTableRecord
100
AcDbLinetypeTableRecord
  2
DIVIDE2
 70
    0
  3
Divide (.5x) __..__..__..__..__..__..__..__.._
 72
   65
 73
    6
 40
15.875
 49
6.35
 74
    0
 49
-3.175
 74
    0
 49
0
 74
    0
 49
-3.175
 74
    0
 49
0
 74
    0
 49
-3.175
 74
    0
  0
LTYPE
  5
41
330
5
100
AcDbSymbolTableRecord
100
AcDbLinetypeTableRecord
  2
DIVIDEX2
 70
    0
  3
Divide (2x) ________  .  .  ________  .  .  _
 72
   65
 73
    6
 40
63.5
 49
25.4
 74
    0
 49
-12.7
 74
    0
 49
0
 74
    0
 49
-12.7
 74
    0
 49
0
 74
    0
 49
-12.7
 74
    0
  0
LTYPE
  5
42
330
5
100
AcDbSymbolTableRecord
100
AcDbLinetypeTableRecord
  2
BORDER
 70
    0
  3
Border __ __ . __ __ . __ __ . __ __ . __ __ .
 72
   65
 73
    6
 40
44.45
 49
12.7
 74
    0
 49
-6.35
 74
    0
 49
12.7
 74
    0
 49
-6.35
 74
    0
 49
0
 74
    0
 49
-6.35
 74
    0
  0
LTYPE
  5
43
330
5
100
AcDbSymbolTableRecord
100
AcDbLinetypeTableRecord
  2
BORDERTINY
 70
    0
  3
Border (.15x) __.__.__.__.__.__.__.__.__.__.__.
 72
   65
 73
    6
 40
6.6675
 49
1.905
 74
    0
 49
-0.9525
 74
    0
 49
1.905
 74
    0
 49
-0.9525
 74
    0
 49
0
 74
    0
 49
-0.9525
 74
    0
  0
LTYPE
  5
44
330
5
100
AcDbSymbolTableRecord
100
AcDbLinetypeTableRecord
  2
BORDER2
 70
    0
  3
Border (.5x) __.__.__.__.__.__.__.__.__.__.__.
 72
   65
 73
    6
 40
22.225
 49
6.35
 74
    0
 49
-3.175
 74
    0
 49
6.35
 74
    0
 49
-3.175
 74
    0
 49
0
 74
    0
 49
-3.175
 74
    0
  0
LTYPE
  5
45
330
5
100
AcDbSymbolTableRecord
100
AcDbLinetypeTableRecord
  2
BORDERX2
 70
    0
  3
Border (2x) ____  ____  .  ____  ____  .  ___
 72
   65
 73
    6
 40
88.89999999999999
 49
25.4
 74
    0
 49
-12.7
 74
    0
 49
25.4
 74
    0
 49
-12.7
 74
    0
 49
0
 74
    0
 49
-12.7
 74
    0
  0
LTYPE
  5
46
330
5
100
AcDbSymbolTableRecord
100
AcDbLinetypeTableRecord
  2
CENTER
 70
    0
  3
Center ____ _ ____ _ ____ _ ____ _ ____ _ ____
 72
   65
 73
    4
 40
50.8
 49
31.75
 74
    0
 49
-6.35
 74
    0
 49
6.35
 74
    0
 49
-6.35
 74
    0
  0
LTYPE
  5
47
330
5
100
AcDbSymbolTableRecord
100
AcDbLinetypeTableRecord
  2
CENTERTINY
 70
    0
  3
Center (.15x) ___ _ ___ _ ___ _ ___ _ ___ _ ___
 72
   65
 73
    4
 40
7.62
 49
4.7625
 74
    0
 49
-0.9525
 74
    0
 49
0.9525
 74
    0
 49
-0.9525
 74
    0
  0
LTYPE
  5
48
330
5
100
AcDbSymbolTableRecord
100
AcDbLinetypeTableRecord
  2
CENTER2
 70
    0
  3
Center (.5x) ___ _ ___ _ ___ _ ___ _ ___ _ ___
 72
   65
 73
    4
 40
28.575
 49
19.05
 74
    0
 49
-3.175
 74
    0
 49
3.175
 74
    0
 49
-3.175
 74
    0
  0
LTYPE
  5
49
330
5
100
AcDbSymbolTableRecord
100
AcDbLinetypeTableRecord
  2
CENTERX2
 70
    0
  3
Center (2x) ________  __  ________  __  _____
 72
   65
 73
    4
 40
101.6
 49
63.5
 74
    0
 49
-12.7
 74
    0
 49
12.7
 74
    0
 49
-12.7
 74
    0
  0
ENDTAB
  0
TABLE
  2
LAYER
  5
2
330
0
100
AcDbSymbolTable
 70
    1
  0
LAYER
  5
10
330
2
100
AcDbSymbolTableRecord
100
AcDbLayerTableRecord
  2
0
 70
    0
 62
    7
  6
CONTINUOUS
370
    0
390
F
  0
LAYER
  5
4A
330
2
100
AcDbSymbolTableRecord
100
AcDbLayerTableRecord
  2
mainlayer
 70
    0
 62
    7
  6
CONTINUOUS
370
    0
390
F
  0
ENDTAB
  0
TABLE
  2
STYLE
  5
3
330
0
100
AcDbSymbolTable
 70
    3
  0
STYLE
  5
4B
330
2
100
AcDbSymbolTableRecord
100
AcDbTextStyleTableRecord
  2
Standard
 70
    0
 40
0
 41
1
 50
0
 71
    0
 42
1
  3
txt
  4

  0
ENDTAB
  0
TABLE
  2
VIEW
  5
6
330
0
100
AcDbSymbolTable
 70
    0
  0
ENDTAB
  0
TABLE
  2
UCS
  5
7
330
0
100
AcDbSymbolTable
 70
    0
  0
ENDTAB
  0
TABLE
  2
APPID
  5
9
330
0
100
AcDbSymbolTable
 70
    1
  0
APPID
  5
12
330
9
100
AcDbSymbolTableRecord
100
AcDbRegAppTableRecord
  2
ACAD
 70
    0
  0
APPID
  5
4C
330
9
100
AcDbSymbolTableRecord
100
AcDbRegAppTableRecord
  2
LibreCad
 70
    0
  0
ENDTAB
  0
TABLE
  2
DIMSTYLE
  5
A
330
0
100
AcDbSymbolTable
 70
    1
100
AcDbDimStyleTable
 71
    1
  0
DIMSTYLE
105
4D
330
A
100
AcDbSymbolTableRecord
100
AcDbDimStyleTableRecord
  2
Standard
 70
    0
 40
1
 41
2.5
 42
0.625
 43
0.38
 44
1.25
 45
0
 46
0
 47
0
 48
0
 49
1
140
2.5
141
0.09
142
2.5
143
25.4
144
1
145
0
146
1
147
0.625
148
0
 71
    0
 72
    0
 73
    0
 74
    1
 75
    0
 76
    0
 77
    0
 78
    1
 79
    0
170
    0
171
    2
172
    0
173
    0
174
    0
175
    0
176
    0
177
    0
178
    0
179
    0
271
    2
272
    4
273
    2
274
    2
275
    0
276
    0
277
    2
278
    0
279
    0
280
    0
281
    0
282
    0
283
    1
284
    0
285
    0
286
    0
288
    0
289
    3
340
standard
341

371
   -2
372
   -2
  0
ENDTAB
  0
TABLE
  2
BLOCK_RECORD
  5
1
330
0
100
AcDbSymbolTable
 70
    2
  0
BLOCK_RECORD
  5
1F
330
1
100
AcDbSymbolTableRecord
100
AcDbBlockTableRecord
  2
*Model_Space
 70
    0
280
    1
281
    0
  0
BLOCK_RECORD
  5
1E
330
1
100
AcDbSymbolTableRecord
100
AcDbBlockTableRecord
  2
*Paper_Space
 70
    0
280
    1
281
    0
  0
ENDTAB
  0
ENDSEC
  0
SECTION
  2
BLOCKS
  0
BLOCK
  5
20
330
1F
100
AcDbEntity
  8
0
100
AcDbBlockBegin
  2
*Model_Space
 70
    0
 10
0
 20
0
 30
0
  3
*Model_Space
  1

  0
ENDBLK
  5
21
330
1F
100
AcDbEntity
  8
0
100
AcDbBlockEnd
  0
BLOCK
  5
1C
330
1B
100
AcDbEntity
  8
0
100
AcDbBlockBegin
  2
*Paper_Space
 70
    0
 10
0
 20
0
 30
0
  3
*Paper_Space
  1

  0
ENDBLK
  5
1D
330
1F
100
AcDbEntity
  8
0
100
AcDbBlockEnd
  0
ENDSEC
  0
SECTION
  2
ENTITIES
  0
LWPOLYLINE
  5
4E
100
AcDbEntity
  8
mainlayer
  6
ByLayer
 62
  256
370
   -1
100
AcDbPolyline
 90
   29
 70
    1
 43
0
 10
1.27905
 20
0.0349899999999993
 10
1.27905
 20
0.08616999999999921
 10
1.27905000254065
 20
0.08616999999999921
 42
0.198912367379658
 10
1.273285863250262
 20
0.1000858632502613
 42
0.1989123673796575
 10
1.25937
 20
0.1058500025406492
 42
-6.249452244242616e-005
 10
1.259364972703844
 20
0.1058500019122923
 42
-6.249690613567826e-005
 10
1.259359945599748
 20
0.1058500000272694
 10
0.2908599999999998
 20
0.1058499999999996
 42
-0.1989123673796579
 10
0.2630212060246855
 20
0.1173812060246852
 42
-0.1989123673796587
 10
0.2514899999999999
 20
0.1452199999999993
 10
0.2514899999999999
 20
2.267269999999999
 42
-0.1989123673796574
 10
0.2630212060246857
 20
2.295108793975314
 42
-0.1989123673796556
 10
0.2908599999999998
 20
2.306639999999999
 10
1.25936
 20
2.306639999999999
 42
0.1989123673796621
 10
1.273282932521563
 20
2.312407067478436
 42
0.1989123673796439
 10
1.27905
 20
2.32633
 10
1.27905
 20
2.37357
 42
-0.1989123673796601
 10
1.284814138546249
 20
2.387485861453751
 42
-0.1989123673796518
 10
1.298729999999999
 20
2.39325
 10
1.66487
 20
2.39325
 42
-0.198912367379658
 10
1.692708793975314
 20
2.381718793975314
 42
-0.1989123673796549
 10
1.704239999999999
 20
2.353879999999999
 10
1.70424
 20
0.0546699999999998
 42
-0.1989123673796518
 10
1.692708793975314
 20
0.02683120602468508
 42
-0.198912367379658
 10
1.66487
 20
0.01529999999999961
 10
1.298729999999999
 20
0.0152999999999996
 10
1.298729999999999
 20
0.0153099999999995
 42
-0.1989123673796591
 10
1.284814138546249
 20
0.02107413854624814
 42
-0.1989123673796625
 10
1.27905
 20
0.0349899999999993
  0
LWPOLYLINE
  5
4F
100
AcDbEntity
  8
mainlayer
  6
ByLayer
 62
  256
370
   -1
100
AcDbPolyline
 90
   29
 70
    1
 43
0
 10
1.27905
 20
2.46099
 10
1.27905
 20
2.51217
 10
1.27905000254065
 20
2.51217
 42
0.1989123673796477
 10
1.273285863250262
 20
2.526085863250262
 42
0.1989123673796343
 10
1.25937
 20
2.531850002540649
 42
-6.249448206960979e-005
 10
1.259364972704371
 20
2.531850001912294
 42
-6.249685264957361e-005
 10
1.259359945599748
 20
2.531850000027271
 10
0.2908599999999998
 20
2.53185
 42
-0.1989123673796639
 10
0.2630212060246855
 20
2.543381206024686
 42
-0.1989123673796515
 10
0.2514899999999999
 20
2.57122
 10
0.2514899999999999
 20
4.69327
 42
-0.198912367379651
 10
0.2630212060246852
 20
4.721108793975315
 42
-0.1989123673796525
 10
0.2908599999999998
 20
4.73264
 10
1.25936
 20
4.732640000000001
 42
0.1989123673796435
 10
1.273282932521562
 20
4.738407067478437
 42
0.1989123673796788
 10
1.27905
 20
4.75233
 10
1.27905
 20
4.79957
 42
-0.1989123673796601
 10
1.284814138546248
 20
4.813485861453751
 42
-0.1989123673796829
 10
1.298729999999999
 20
4.81925
 10
1.66487
 20
4.81925
 42
-0.1989123673796663
 10
1.692708793975314
 20
4.807718793975314
 42
-0.1989123673796674
 10
1.70424
 20
4.77988
 10
1.70424
 20
2.48067
 42
-0.198912367379661
 10
1.692708793975313
 20
2.452831206024686
 42
-0.1989123673796621
 10
1.66487
 20
2.4413
 10
1.298729999999999
 20
2.4413
 10
1.298729999999999
 20
2.44131
 42
-0.1989123673796497
 10
1.284814138546248
 20
2.447074138546248
 42
-0.1989123673796618
 10
1.27905
 20
2.46099
  0
LWPOLYLINE
  5
50
100
AcDbEntity
  8
mainlayer
  6
ByLayer
 62
  256
370
   -1
100
AcDbPolyline
 90
   29
 70
    1
 43
0
 10
1.27905
 20
4.885989999999999
 10
1.27905
 20
4.937169999999998
 10
1.27905000254065
 20
4.937169999999998
 42
0.1989123673796684
 10
1.273285863250262
 20
4.951085863250261
 42
0.1989123673796625
 10
1.25937
 20
4.95685000254065
 42
-6.2494537275894e-005
 10
1.259364972705259
 20
4.956850001912293
 42
-6.249688577996106e-005
 10
1.259359945599748
 20
4.956850000027269
 10
0.2908599999999998
 20
4.956849999999999
 42
-0.1989123673796428
 10
0.2630212060246854
 20
4.968381206024684
 42
-0.1989123673796582
 10
0.2514899999999999
 20
4.996219999999998
 10
0.2514899999999999
 20
7.118269999999999
 42
-0.1989123673796385
 10
0.2630212060246853
 20
7.146108793975315
 42
-0.1989123673796283
 10
0.2908599999999998
 20
7.157639999999998
 10
1.25936
 20
7.157639999999999
 42
0.1989123673796566
 10
1.273282932521563
 20
7.163407067478436
 42
0.1989123673796829
 10
1.27905
 20
7.177329999999999
 10
1.27905
 20
7.224569999999998
 42
-0.1989123673796351
 10
1.284814138546248
 20
7.238485861453751
 42
-0.1989123673796589
 10
1.298729999999999
 20
7.244249999999999
 10
1.66487
 20
7.244249999999999
 42
-0.1989123673796818
 10
1.692708793975314
 20
7.232718793975312
 42
-0.198912367379657
 10
1.70424
 20
7.204879999999998
 10
1.704239999999999
 20
4.905669999999999
 42
-0.1989123673796684
 10
1.692708793975314
 20
4.877831206024685
 42
-0.1989123673796725
 10
1.66487
 20
4.866299999999998
 10
1.298729999999999
 20
4.866299999999999
 10
1.298729999999999
 20
4.866309999999999
 42
-0.1989123673796589
 10
1.284814138546248
 20
4.872074138546247
 42
-0.1989123673796717
 10
1.27905
 20
4.885989999999999
  0
LWPOLYLINE
  5
51
100
AcDbEntity
  8
mainlayer
  6
ByLayer
 62
  256
370
   -1
100
AcDbPolyline
 90
   29
 70
    1
 43
0
 10
1.27905
 20
7.310989999999999
 10
1.27905
 20
7.36217
 10
1.27905000254065
 20
7.36217
 42
0.1989123673797057
 10
1.273285863250261
 20
7.37608586325026
 42
0.1989123673796932
 10
1.25937
 20
7.381850002540648
 42
-6.249458144478494e-005
 10
1.259364972701706
 20
7.381850001912291
 42
-6.249701828907637e-005
 10
1.259359945599748
 20
7.38185000002727
 10
0.2908599999999998
 20
7.38185
 42
-0.1989123673796684
 10
0.2630212060246856
 20
7.393381206024686
 42
-0.1989123673796639
 10
0.2514899999999999
 20
7.42122
 10
0.2514899999999999
 20
9.54327
 42
-0.1989123673796847
 10
0.2630212060246861
 20
9.571108793975315
 42
-0.198912367379645
 10
0.2908599999999998
 20
9.58264
 10
1.25936
 20
9.58264
 42
0.1989123673796268
 10
1.273282932521562
 20
9.588407067478435
 42
0.1989123673796663
 10
1.27905
 20
9.60233
 10
1.27905
 20
9.649569999999999
 42
-0.1989123673796055
 10
1.284814138546249
 20
9.663485861453752
 42
-0.1989123673796261
 10
1.298729999999999
 20
9.66925
 10
1.66487
 20
9.66925
 42
-0.1989123673796543
 10
1.692708793975314
 20
9.657718793975315
 42
-0.198912367379658
 10
1.70424
 20
9.62988
 10
1.70424
 20
7.33067
 42
-0.1989123673796472
 10
1.692708793975313
 20
7.302831206024686
 42
-0.1989123673796527
 10
1.66487
 20
7.291300000000001
 10
1.298729999999999
 20
7.291300000000001
 10
1.298729999999999
 20
7.291310000000001
 42
-0.1989123673796414
 10
1.284814138546249
 20
7.297074138546249
 42
-0.1989123673796746
 10
1.27905
 20
7.310989999999999
  0
LWPOLYLINE
  5
52
100
AcDbEntity
  8
mainlayer
  6
ByLayer
 62
  256
370
   -1
100
AcDbPolyline
 90
   29
 70
    1
 43
0
 10
2.77905
 20
0.0349899999999993
 10
2.77905
 20
0.08616999999999921
 10
2.779050002540651
 20
0.08616999999999921
 42
0.198912367379661
 10
2.773285863250263
 20
0.1000858632502612
 42
0.1989123673796554
 10
2.75937
 20
0.1058500025406492
 42
-6.249452380888865e-005
 10
2.759364972703843
 20
0.1058500019122923
 42
-6.249690752412317e-005
 10
2.759359945599748
 20
0.1058500000272694
 10
1.79086
 20
0.1058499999999996
 42
-0.1989123673796529
 10
1.763021206024685
 20
0.1173812060246852
 42
-0.1989123673796575
 10
1.75149
 20
0.1452199999999993
 10
1.75149
 20
2.267269999999999
 42
-0.1989123673796551
 10
1.763021206024685
 20
2.295108793975313
 42
-0.1989123673796636
 10
1.79086
 20
2.306639999999999
 10
2.75936
 20
2.306639999999999
 42
0.1989123673796621
 10
2.773282932521563
 20
2.312407067478436
 42
0.1989123673796439
 10
2.77905
 20
2.32633
 10
2.77905
 20
2.37357
 42
-0.1989123673796514
 10
2.784814138546248
 20
2.387485861453751
 42
-0.1989123673796497
 10
2.798729999999999
 20
2.39325
 10
3.16487
 20
2.393249999999999
 42
-0.1989123673796538
 10
3.192708793975314
 20
2.381718793975314
 42
-0.1989123673796477
 10
3.20424
 20
2.353879999999999
 10
3.20424
 20
0.0546699999999998
 42
-0.1989123673796578
 10
3.192708793975314
 20
0.02683120602468498
 42
-0.1989123673796628
 10
3.16487
 20
0.01529999999999961
 10
2.798729999999999
 20
0.0152999999999996
 10
2.798729999999999
 20
0.0153099999999995
 42
-0.1989123673796683
 10
2.784814138546249
 20
0.02107413854624825
 42
-0.1989123673796613
 10
2.77905
 20
0.0349899999999993
  0
LWPOLYLINE
  5
53
100
AcDbEntity
  8
mainlayer
  6
ByLayer
 62
  256
370
   -1
100
AcDbPolyline
 90
   29
 70
    1
 43
0
 10
2.77905
 20
2.46099
 10
2.77905
 20
2.51217
 10
2.779050002540651
 20
2.51217
 42
0.1989123673796762
 10
2.773285863250263
 20
2.526085863250262
 42
0.1989123673796597
 10
2.75937
 20
2.53185000254065
 42
-6.249448205872961e-005
 10
2.759364972704371
 20
2.531850001912294
 42
-6.249685265490268e-005
 10
2.759359945599748
 20
2.53185000002727
 10
1.79086
 20
2.53185
 42
-0.1989123673796445
 10
1.763021206024685
 20
2.543381206024686
 42
-0.1989123673796601
 10
1.75149
 20
2.57122
 10
1.75149
 20
4.69327
 42
-0.1989123673796386
 10
1.763021206024685
 20
4.721108793975315
 42
-0.1989123673796451
 10
1.79086
 20
4.73264
 10
2.75936
 20
4.73264
 42
0.1989123673796455
 10
2.773282932521563
 20
4.738407067478437
 42
0.1989123673796781
 10
2.77905
 20
4.75233
 10
2.77905
 20
4.79957
 42
-0.1989123673796131
 10
2.784814138546248
 20
4.813485861453751
 42
-0.1989123673796763
 10
2.798729999999999
 20
4.81925
 10
3.16487
 20
4.81925
 42
-0.1989123673796633
 10
3.192708793975314
 20
4.807718793975314
 42
-0.198912367379648
 10
3.20424
 20
4.77988
 10
3.20424
 20
2.48067
 42
-0.1989123673796548
 10
3.192708793975314
 20
2.452831206024686
 42
-0.1989123673796642
 10
3.16487
 20
2.4413
 10
2.798729999999999
 20
2.4413
 10
2.798729999999999
 20
2.44131
 42
-0.1989123673796455
 10
2.784814138546248
 20
2.447074138546248
 42
-0.1989123673796372
 10
2.77905
 20
2.46099
  0
LWPOLYLINE
  5
54
100
AcDbEntity
  8
mainlayer
  6
ByLayer
 62
  256
370
   -1
100
AcDbPolyline
 90
   29
 70
    1
 43
0
 10
2.77905
 20
4.885989999999999
 10
2.77905
 20
4.937169999999998
 10
2.779050002540651
 20
4.937169999999998
 42
0.1989123673796656
 10
2.773285863250263
 20
4.951085863250261
 42
0.1989123673796456
 10
2.75937
 20
4.95685000254065
 42
-6.249453726767835e-005
 10
2.759364972705259
 20
4.956850001912291
 42
-6.24968857826256e-005
 10
2.759359945599748
 20
4.956850000027268
 10
1.79086
 20
4.956849999999998
 42
-0.1989123673796656
 10
1.763021206024685
 20
4.968381206024684
 42
-0.1989123673796697
 10
1.75149
 20
4.996219999999998
 10
1.75149
 20
7.118269999999999
 42
-0.1989123673796407
 10
1.763021206024685
 20
7.146108793975314
 42
-0.1989123673796445
 10
1.79086
 20
7.157639999999999
 10
2.75936
 20
7.157639999999999
 42
0.1989123673796705
 10
2.773282932521563
 20
7.163407067478436
 42
0.1989123673796989
 10
2.77905
 20
7.177329999999999
 10
2.77905
 20
7.224569999999998
 42
-0.1989123673796131
 10
2.784814138546249
 20
7.238485861453751
 42
-0.1989123673796497
 10
2.798729999999999
 20
7.244249999999999
 10
3.16487
 20
7.244249999999999
 42
-0.1989123673796467
 10
3.192708793975313
 20
7.232718793975314
 42
-0.1989123673796642
 10
3.20424
 20
7.204879999999998
 10
3.20424
 20
4.905669999999999
 42
-0.1989123673796481
 10
3.192708793975314
 20
4.877831206024686
 42
-0.1989123673796689
 10
3.16487
 20
4.866299999999999
 10
2.798729999999999
 20
4.866299999999999
 10
2.798729999999999
 20
4.866309999999999
 42
-0.1989123673796538
 10
2.784814138546248
 20
4.872074138546247
 42
-0.1989123673796655
 10
2.77905
 20
4.885989999999999
  0
LWPOLYLINE
  5
55
100
AcDbEntity
  8
mainlayer
  6
ByLayer
 62
  256
370
   -1
100
AcDbPolyline
 90
   29
 70
    1
 43
0
 10
2.77905
 20
7.310989999999999
 10
2.77905
 20
7.36217
 10
2.779050002540651
 20
7.36217
 42
0.1989123673796953
 10
2.773285863250263
 20
7.37608586325026
 42
0.1989123673796953
 10
2.75937
 20
7.381850002540649
 42
-6.249449309812127e-005
 10
2.759364972701706
 20
7.381850001912293
 42
-6.249692995551335e-005
 10
2.759359945599748
 20
7.38185000002727
 10
1.79086
 20
7.38185
 42
-0.1989123673796736
 10
1.763021206024685
 20
7.393381206024687
 42
-0.1989123673796511
 10
1.75149
 20
7.42122
 10
1.75149
 20
9.54327
 42
-0.1989123673796653
 10
1.763021206024686
 20
9.571108793975315
 42
-0.1989123673796461
 10
1.79086
 20
9.58264
 10
2.75936
 20
9.58264
 42
0.1989123673796308
 10
2.773282932521563
 20
9.588407067478435
 42
0.1989123673796095
 10
2.77905
 20
9.60233
 10
2.77905
 20
9.649569999999999
 42
-0.1989123673796606
 10
2.784814138546248
 20
9.663485861453752
 42
-0.1989123673796349
 10
2.798729999999999
 20
9.66925
 10
3.16487
 20
9.66925
 42
-0.1989123673796467
 10
3.192708793975314
 20
9.657718793975315
 42
-0.1989123673796539
 10
3.20424
 20
9.62988
 10
3.20424
 20
7.33067
 42
-0.1989123673796497
 10
3.192708793975314
 20
7.302831206024686
 42
-0.1989123673796652
 10
3.16487
 20
7.291300000000001
 10
2.798729999999999
 20
7.291300000000001
 10
2.798729999999999
 20
7.291310000000001
 42
-0.1989123673796373
 10
2.784814138546249
 20
7.297074138546249
 42
-0.1989123673796505
 10
2.77905
 20
7.310989999999999
  0
LWPOLYLINE
  5
56
100
AcDbEntity
  8
mainlayer
  6
ByLayer
 62
  256
370
   -1
100
AcDbPolyline
 90
   29
 70
    1
 43
0
 10
4.27905
 20
0.0349899999999993
 10
4.27905
 20
0.08616999999999921
 10
4.279050002540649
 20
0.08616999999999921
 42
0.1989123673796313
 10
4.273285863250263
 20
0.1000858632502609
 42
0.1989123673796341
 10
4.25937
 20
0.1058500025406492
 42
-6.249452243976162e-005
 10
4.259364972703843
 20
0.1058500019122923
 42
-6.24969075187941e-005
 10
4.259359945599748
 20
0.1058500000272694
 10
3.290859999999999
 20
0.1058499999999996
 42
-0.1989123673796551
 10
3.263021206024685
 20
0.1173812060246852
 42
-0.1989123673796523
 10
3.25149
 20
0.1452199999999993
 10
3.25149
 20
2.267269999999999
 42
-0.1989123673796684
 10
3.263021206024686
 20
2.295108793975314
 42
-0.1989123673796621
 10
3.290859999999999
 20
2.306639999999999
 10
4.259359999999999
 20
2.306639999999999
 42
0.1989123673796788
 10
4.273282932521563
 20
2.312407067478437
 42
0.1989123673796555
 10
4.279049999999999
 20
2.32633
 10
4.27905
 20
2.37357
 42
-0.1989123673796764
 10
4.284814138546249
 20
2.387485861453751
 42
-0.1989123673796663
 10
4.298729999999999
 20
2.39325
 10
4.66487
 20
2.39325
 42
-0.1989123673796543
 10
4.692708793975314
 20
2.381718793975313
 42
-0.1989123673796559
 10
4.704239999999999
 20
2.353879999999999
 10
4.70424
 20
0.0546699999999998
 42
-0.1989123673796564
 10
4.692708793975314
 20
0.0268312060246849
 42
-0.1989123673796529
 10
4.66487
 20
0.0152999999999996
 10
4.298729999999999
 20
0.0152999999999996
 10
4.298729999999999
 20
0.0153099999999995
 42
-0.1989123673796647
 10
4.284814138546247
 20
0.02107413854624792
 42
-0.1989123673796207
 10
4.27905
 20
0.03498999999999929
  0
LWPOLYLINE
  5
57
100
AcDbEntity
  8
mainlayer
  6
ByLayer
 62
  256
370
   -1
100
AcDbPolyline
 90
   29
 70
    1
 43
0
 10
4.27905
 20
2.46099
 10
4.27905
 20
2.51217
 10
4.27905000254065
 20
2.51217
 42
0.1989123673796704
 10
4.273285863250262
 20
2.526085863250262
 42
0.1989123673796456
 10
4.25937
 20
2.53185000254065
 42
-6.249448205895165e-005
 10
4.25936497270437
 20
2.531850001912294
 42
-6.249685266067584e-005
 10
4.259359945599748
 20
2.53185000002727
 10
3.290859999999999
 20
2.53185
 42
-0.1989123673796621
 10
3.263021206024685
 20
2.543381206024686
 42
-0.1989123673796601
 10
3.251489999999999
 20
2.57122
 10
3.25149
 20
4.69327
 42
-0.1989123673796621
 10
3.263021206024686
 20
4.721108793975315
 42
-0.1989123673796559
 10
3.290859999999999
 20
4.73264
 10
4.259359999999999
 20
4.73264
 42
0.1989123673796746
 10
4.273282932521562
 20
4.738407067478438
 42
0.1989123673796663
 10
4.279049999999999
 20
4.75233
 10
4.27905
 20
4.79957
 42
-0.198912367379638
 10
4.284814138546249
 20
4.813485861453752
 42
-0.1989123673796663
 10
4.298729999999999
 20
4.81925
 10
4.66487
 20
4.81925
 42
-0.1989123673796497
 10
4.692708793975314
 20
4.807718793975315
 42
-0.1989123673796414
 10
4.70424
 20
4.77988
 10
4.70424
 20
2.48067
 42
-0.198912367379658
 10
4.692708793975314
 20
2.452831206024685
 42
-0.198912367379646
 10
4.66487
 20
2.4413
 10
4.298729999999999
 20
2.4413
 10
4.298729999999999
 20
2.44131
 42
-0.1989123673796829
 10
4.284814138546249
 20
2.447074138546249
 42
-0.1989123673796705
 10
4.27905
 20
2.46099
  0
LWPOLYLINE
  5
58
100
AcDbEntity
  8
mainlayer
  6
ByLayer
 62
  256
370
   -1
100
AcDbPolyline
 90
   29
 70
    1
 43
0
 10
4.27905
 20
4.885989999999999
 10
4.27905
 20
4.937169999999998
 10
4.279050002540649
 20
4.937169999999998
 42
0.1989123673796365
 10
4.273285863250264
 20
4.951085863250262
 42
0.1989123673796248
 10
4.25937
 20
4.95685000254065
 42
-6.249453727855853e-005
 10
4.259364972705259
 20
4.956850001912292
 42
-6.249688577729653e-005
 10
4.259359945599748
 20
4.956850000027269
 10
3.290859999999999
 20
4.956849999999999
 42
-0.1989123673796435
 10
3.263021206024685
 20
4.968381206024683
 42
-0.1989123673796639
 10
3.251489999999999
 20
4.996219999999998
 10
3.25149
 20
7.118269999999999
 42
-0.1989123673796559
 10
3.263021206024686
 20
7.146108793975315
 42
-0.1989123673796344
 10
3.290859999999999
 20
7.157639999999998
 10
4.259359999999999
 20
7.157639999999999
 42
0.1989123673797076
 10
4.273282932521563
 20
7.163407067478437
 42
0.1989123673796462
 10
4.27905
 20
7.177329999999999
 10
4.27905
 20
7.224569999999998
 42
-0.198912367379658
 10
4.284814138546249
 20
7.238485861453748
 42
-0.1989123673796795
 10
4.298729999999999
 20
7.244249999999998
 10
4.66487
 20
7.244249999999999
 42
-0.1989123673796621
 10
4.692708793975314
 20
7.232718793975313
 42
-0.1989123673796414
 10
4.70424
 20
7.204879999999998
 10
4.70424
 20
4.905669999999999
 42
-0.1989123673796538
 10
4.692708793975314
 20
4.877831206024685
 42
-0.198912367379658
 10
4.66487
 20
4.866299999999999
 10
4.298729999999999
 20
4.866299999999999
 10
4.298729999999999
 20
4.866309999999999
 42
-0.1989123673796996
 10
4.284814138546249
 20
4.872074138546248
 42
-0.1989123673796546
 10
4.27905
 20
4.885989999999999
  0
LWPOLYLINE
  5
59
100
AcDbEntity
  8
mainlayer
  6
ByLayer
 62
  256
370
   -1
100
AcDbPolyline
 90
   29
 70
    1
 43
0
 10
4.27905
 20
7.310989999999999
 10
4.27905
 20
7.36217
 10
4.27905000254065
 20
7.36217
 42
0.1989123673797113
 10
4.273285863250262
 20
7.37608586325026
 42
0.1989123673796746
 10
4.25937
 20
7.381850002540649
 42
-6.249458143923382e-005
 10
4.259364972701706
 20
7.381850001912292
 42
-6.249701829462749e-005
 10
4.259359945599748
 20
7.38185000002727
 10
3.290859999999999
 20
7.38185
 42
-0.1989123673796714
 10
3.263021206024685
 20
7.393381206024686
 42
-0.1989123673796663
 10
3.25149
 20
7.42122
 10
3.25149
 20
9.54327
 42
-0.1989123673796903
 10
3.263021206024685
 20
9.571108793975315
 42
-0.1989123673796701
 10
3.290859999999999
 20
9.58264
 10
4.259359999999999
 20
9.58264
 42
0.1989123673796331
 10
4.273282932521562
 20
9.588407067478435
 42
0.1989123673796095
 10
4.27905
 20
9.60233
 10
4.27905
 20
9.649569999999999
 42
-0.1989123673796263
 10
4.284814138546249
 20
9.663485861453751
 42
-0.1989123673796746
 10
4.298729999999999
 20
9.669249999999998
 10
4.66487
 20
9.66925
 42
-0.1989123673796414
 10
4.692708793975314
 20
9.657718793975315
 42
-0.198912367379638
 10
4.70424
 20
9.62988
 10
4.70424
 20
7.33067
 42
-0.1989123673796555
 10
4.692708793975314
 20
7.302831206024686
 42
-0.198912367379664
 10
4.66487
 20
7.291300000000001
 10
4.298729999999999
 20
7.291300000000001
 10
4.298729999999999
 20
7.29131
 42
-0.1989123673796912
 10
4.284814138546249
 20
7.297074138546249
 42
-0.1989123673797111
 10
4.27905
 20
7.310989999999999
  0
LWPOLYLINE
  5
5A
100
AcDbEntity
  8
mainlayer
  6
ByLayer
 62
  256
370
   -1
100
AcDbPolyline
 90
   29
 70
    1
 43
0
 10
5.77905
 20
0.0349899999999993
 10
5.77905
 20
0.08616999999999921
 10
5.77905000254065
 20
0.08616999999999921
 42
0.1989123673796654
 10
5.773285863250262
 20
0.1000858632502616
 42
0.1989123673796555
 10
5.759370000000001
 20
0.1058500025406492
 42
-6.249452243976162e-005
 10
5.759364972703844
 20
0.1058500019122923
 42
-6.249690613856484e-005
 10
5.759359945599749
 20
0.1058500000272694
 10
4.790859999999999
 20
0.1058499999999996
 42
-0.1989123673796518
 10
4.763021206024685
 20
0.1173812060246846
 42
-0.1989123673796525
 10
4.75149
 20
0.1452199999999993
 10
4.75149
 20
2.267269999999999
 42
-0.1989123673796642
 10
4.763021206024686
 20
2.295108793975313
 42
-0.1989123673796542
 10
4.790859999999999
 20
2.306639999999999
 10
5.75936
 20
2.306639999999999
 42
0.1989123673796663
 10
5.773282932521562
 20
2.312407067478436
 42
0.198912367379697
 10
5.77905
 20
2.32633
 10
5.77905
 20
2.37357
 42
-0.1989123673796764
 10
5.784814138546249
 20
2.387485861453751
 42
-0.1989123673796379
 10
5.798729999999999
 20
2.39325
 10
6.16487
 20
2.39325
 42
-0.1989123673796621
 10
6.192708793975314
 20
2.381718793975314
 42
-0.1989123673796559
 10
6.204239999999999
 20
2.353879999999999
 10
6.20424
 20
0.0546699999999998
 42
-0.1989123673796564
 10
6.192708793975314
 20
0.02683120602468531
 42
-0.1989123673796619
 10
6.16487
 20
0.0152999999999996
 10
5.798729999999999
 20
0.0152999999999996
 10
5.798729999999999
 20
0.0153099999999995
 42
-0.1989123673796708
 10
5.784814138546248
 20
0.02107413854624806
 42
-0.1989123673796583
 10
5.779049999999999
 20
0.0349899999999993
  0
LWPOLYLINE
  5
5B
100
AcDbEntity
  8
mainlayer
  6
ByLayer
 62
  256
370
   -1
100
AcDbPolyline
 90
   29
 70
    1
 43
0
 10
5.77905
 20
2.46099
 10
5.77905
 20
2.51217
 10
5.77905000254065
 20
2.51217
 42
0.198912367379648
 10
5.773285863250262
 20
2.526085863250262
 42
0.198912367379638
 10
5.759370000000001
 20
2.53185000254065
 42
-6.249448206983184e-005
 10
5.759364972704372
 20
2.531850001912294
 42
-6.249685264957361e-005
 10
5.759359945599749
 20
2.531850000027271
 10
4.790859999999999
 20
2.53185
 42
-0.1989123673796561
 10
4.763021206024685
 20
2.543381206024685
 42
-0.1989123673796754
 10
4.75149
 20
2.57122
 10
4.75149
 20
4.69327
 42
-0.1989123673796646
 10
4.763021206024686
 20
4.721108793975314
 42
-0.1989123673796646
 10
4.790859999999999
 20
4.73264
 10
5.75936
 20
4.73264
 42
0.1989123673796864
 10
5.773282932521564
 20
4.738407067478438
 42
0.1989123673796414
 10
5.77905
 20
4.75233
 10
5.77905
 20
4.79957
 42
-0.1989123673796463
 10
5.784814138546249
 20
4.813485861453752
 42
-0.1989123673796462
 10
5.798729999999999
 20
4.81925
 10
6.16487
 20
4.81925
 42
-0.1989123673796497
 10
6.192708793975314
 20
4.807718793975315
 42
-0.1989123673796414
 10
6.20424
 20
4.77988
 10
6.204239999999999
 20
2.48067
 42
-0.198912367379658
 10
6.192708793975313
 20
2.452831206024686
 42
-0.1989123673796442
 10
6.16487
 20
2.4413
 10
5.798729999999999
 20
2.4413
 10
5.798729999999999
 20
2.44131
 42
-0.1989123673796587
 10
5.784814138546249
 20
2.447074138546249
 42
-0.1989123673796705
 10
5.77905
 20
2.46099
  0
LWPOLYLINE
  5
5C
100
AcDbEntity
  8
mainlayer
  6
ByLayer
 62
  256
370
   -1
100
AcDbPolyline
 90
   29
 70
    1
 43
0
 10
5.77905
 20
4.885989999999999
 10
5.77905
 20
4.937169999999998
 10
5.77905000254065
 20
4.937169999999998
 42
0.1989123673796781
 10
5.773285863250262
 20
4.951085863250261
 42
0.198912367379638
 10
5.759370000000001
 20
4.95685000254065
 42
-6.24945372674563e-005
 10
5.759364972705259
 20
4.956850001912292
 42
-6.249688578839876e-005
 10
5.759359945599749
 20
4.956850000027269
 10
4.790859999999999
 20
4.956849999999998
 42
-0.1989123673796561
 10
4.763021206024685
 20
4.968381206024685
 42
-0.198912367379658
 10
4.75149
 20
4.996219999999998
 10
4.75149
 20
7.118269999999999
 42
-0.1989123673796646
 10
4.763021206024686
 20
7.146108793975313
 42
-0.1989123673796646
 10
4.790859999999999
 20
7.157639999999999
 10
5.75936
 20
7.157639999999999
 42
0.1989123673796331
 10
5.773282932521564
 20
7.163407067478436
 42
0.1989123673796167
 10
5.77905
 20
7.177329999999999
 10
5.77905
 20
7.224569999999998
 42
-0.1989123673796663
 10
5.784814138546248
 20
7.238485861453749
 42
-0.1989123673797244
 10
5.798729999999999
 20
7.244249999999999
 10
6.16487
 20
7.24425
 42
-0.1989123673796663
 10
6.192708793975314
 20
7.232718793975314
 42
-0.1989123673796513
 10
6.20424
 20
7.204879999999998
 10
6.20424
 20
4.905669999999999
 42
-0.1989123673796605
 10
6.192708793975314
 20
4.877831206024684
 42
-0.1989123673796663
 10
6.16487
 20
4.866299999999998
 10
5.798729999999999
 20
4.866299999999999
 10
5.798729999999999
 20
4.866309999999999
 42
-0.1989123673796712
 10
5.784814138546249
 20
4.872074138546248
 42
-0.1989123673796663
 10
5.77905
 20
4.885989999999999
  0
LWPOLYLINE
  5
5D
100
AcDbEntity
  8
mainlayer
  6
ByLayer
 62
  256
370
   -1
100
AcDbPolyline
 90
   29
 70
    1
 43
0
 10
5.77905
 20
7.310989999999999
 10
5.77905
 20
7.36217
 10
5.77905000254065
 20
7.36217
 42
0.1989123673796546
 10
5.773285863250262
 20
7.376085863250261
 42
0.1989123673796629
 10
5.759370000000001
 20
7.381850002540649
 42
-6.249458142813159e-005
 10
5.759364972701706
 20
7.381850001912292
 42
-6.249701830550767e-005
 10
5.759359945599749
 20
7.38185000002727
 10
4.790859999999999
 20
7.381850000000001
 42
-0.1989123673796189
 10
4.763021206024685
 20
7.393381206024684
 42
-0.1989123673796331
 10
4.75149
 20
7.42122
 10
4.75149
 20
9.54327
 42
-0.1989123673796828
 10
4.763021206024687
 20
9.571108793975313
 42
-0.1989123673796746
 10
4.790859999999999
 20
9.582639999999998
 10
5.75936
 20
9.58264
 42
0.1989123673796746
 10
5.773282932521562
 20
9.588407067478437
 42
0.1989123673796511
 10
5.77905
 20
9.60233
 10
5.77905
 20
9.649569999999999
 42
-0.1989123673796346
 10
5.784814138546249
 20
9.663485861453751
 42
-0.1989123673796746
 10
5.798729999999999
 20
9.669249999999998
 10
6.16487
 20
9.66925
 42
-0.1989123673796414
 10
6.192708793975314
 20
9.657718793975315
 42
-0.1989123673796497
 10
6.20424
 20
9.62988
 10
6.20424
 20
7.33067
 42
-0.1989123673796621
 10
6.192708793975314
 20
7.302831206024686
 42
-0.1989123673796538
 10
6.16487
 20
7.291300000000001
 10
5.798729999999999
 20
7.291300000000001
 10
5.798729999999999
 20
7.29131
 42
-0.1989123673796712
 10
5.784814138546249
 20
7.297074138546249
 42
-0.1989123673797194
 10
5.77905
 20
7.310989999999999
  0
LWPOLYLINE
  5
5E
100
AcDbEntity
  8
mainlayer
  6
ByLayer
 62
  256
370
   -1
100
AcDbPolyline
 90
   59
 70
    1
 43
0
 10
0.0230624581751968
 20
9.661937541824804
 10
0.078740157480315
 20
9.685
 10
1.249452376821548
 20
9.685
 10
1.23205
 20
9.649569999999999
 10
1.23205
 20
9.62964
 10
0.2908599999999998
 20
9.62964
 10
0.2322206919883145
 20
9.601909308011685
 10
0.2044899999999999
 20
9.54327
 10
0.2044899999999999
 20
7.42122
 10
0.2322206919883143
 20
7.362580691988314
 10
0.2908599999999998
 20
7.33485
 10
1.23205
 20
7.334850000026501
 10
1.23205
 20
7.310989999999999
 10
1.245815981284774
 20
7.277755981284775
 10
1.249027063595705
 20
7.276425907441618
 10
1.253273728548097
 20
7.267779999999999
 10
1.23205
 20
7.224569999999998
 10
1.23205
 20
7.204639999999999
 10
0.2908599999999998
 20
7.204639999999999
 10
0.2322206919883145
 20
7.176909308011684
 10
0.2044899999999999
 20
7.118269999999999
 10
0.2044899999999999
 20
4.996219999999998
 10
0.2322206919883143
 20
4.937580691988313
 10
0.2908599999999998
 20
4.90985
 10
1.23205
 20
4.9098500000265
 10
1.23205
 20
4.885989999999999
 10
1.245815981284774
 20
4.852755981284774
 10
1.249027063595705
 20
4.851425907441616
 10
1.253273728548097
 20
4.84278
 10
1.23205
 20
4.79957
 10
1.23205
 20
4.77964
 10
0.2908599999999998
 20
4.77964
 10
0.2322206919883145
 20
4.751909308011686
 10
0.2044899999999999
 20
4.69327
 10
0.2044899999999999
 20
2.57122
 10
0.2322206919883143
 20
2.512580691988314
 10
0.2908599999999998
 20
2.484850000000001
 10
1.23205
 20
2.484850000026501
 10
1.23205
 20
2.46099
 10
1.245815981284774
 20
2.427755981284775
 10
1.249027063595705
 20
2.426425907441617
 10
1.253519316705331
 20
2.41728
 10
1.23205
 20
2.37357
 10
1.23205
 20
2.353639999999999
 10
0.2908599999999998
 20
2.353639999999999
 10
0.2322206919883145
 20
2.325909308011685
 10
0.2044899999999999
 20
2.267269999999999
 10
0.2044899999999999
 20
0.1452199999999993
 10
0.2322206919883143
 20
0.0865806919883139
 10
0.2908599999999998
 20
0.0588499999999998
 10
1.23205
 20
0.0588500000265008
 10
1.23205
 20
0.0349899999999993
 10
1.245815981284774
 20
0.0017559812847744
 10
1.249027063595705
 20
0.0004259074416166
 10
1.249236259243181
 20
-0
 10
0.078740157480315
 20
-0
 10
0.0230624581751968
 20
0.0230624581751968
 10
0
 20
0.078740157480315
 10
0
 20
9.606259842519684
  0
LWPOLYLINE
  5
5F
100
AcDbEntity
  8
mainlayer
  6
ByLayer
 62
  256
370
   -1
100
AcDbPolyline
 90
   25
 70
    1
 43
0
 10
6.378259842519684
 20
9.685
 10
6.433937541824801
 20
9.661937541824804
 10
6.456999999999999
 20
9.606259842519684
 10
6.456999999999999
 20
0.078740157480315
 10
6.433937541824801
 20
0.0230624581751968
 10
6.378259842519684
 20
-0
 10
6.225386404819459
 20
-0
 10
6.25124
 20
0.0546699999999998
 10
6.25124
 20
2.353879999999999
 10
6.223509308011686
 20
2.412519308011685
 10
6.213452924008393
 20
2.417275
 10
6.223509308011686
 20
2.422030691988315
 10
6.25124
 20
2.48067
 10
6.25124
 20
4.77988
 10
6.223509308011686
 20
4.838519308011685
 10
6.214510223769188
 20
4.842775
 10
6.223509308011686
 20
4.847030691988314
 10
6.25124
 20
4.905669999999999
 10
6.25124
 20
7.204879999999998
 10
6.223509308011686
 20
7.263519308011684
 10
6.214510223769185
 20
7.267774999999999
 10
6.223509308011686
 20
7.272030691988315
 10
6.25124
 20
7.33067
 10
6.25124
 20
9.62988
 10
6.225173598566831
 20
9.685
  0
LWPOLYLINE
  5
60
100
AcDbEntity
  8
mainlayer
  6
ByLayer
 62
  256
370
   -1
100
AcDbPolyline
 90
   16
 70
    1
 43
0
 10
4.751239999999999
 20
7.33067
 10
4.723509308011685
 20
7.272030691988315
 10
4.714510223769185
 20
7.267774999999999
 10
4.723509308011685
 20
7.263519308011684
 10
4.751239999999999
 20
7.204879999999998
 10
4.751239999999999
 20
7.185903591712949
 10
4.790859999999999
 20
7.204639999999999
 10
5.732049999999999
 20
7.204639999999999
 10
5.732049999999999
 20
7.224569999999998
 10
5.753273728548097
 20
7.267779999999999
 10
5.749027063595705
 20
7.276425907441618
 10
5.745815981284775
 20
7.277755981284775
 10
5.732049999999999
 20
7.310989999999999
 10
5.732049999999999
 20
7.334850000026501
 10
4.790859999999999
 20
7.33485
 10
4.751239999999999
 20
7.35358640828705
  0
LWPOLYLINE
  5
61
100
AcDbEntity
  8
mainlayer
  6
ByLayer
 62
  256
370
   -1
100
AcDbPolyline
 90
   16
 70
    1
 43
0
 10
4.751239999999999
 20
4.905669999999999
 10
4.723509308011685
 20
4.847030691988314
 10
4.714510223769187
 20
4.842775
 10
4.723509308011685
 20
4.838519308011685
 10
4.751239999999999
 20
4.77988
 10
4.751239999999999
 20
4.76090359171295
 10
4.790859999999999
 20
4.77964
 10
5.732049999999999
 20
4.77964
 10
5.732049999999999
 20
4.79957
 10
5.753273728548097
 20
4.842779999999999
 10
5.749027063595705
 20
4.851425907441616
 10
5.745815981284775
 20
4.852755981284774
 10
5.732049999999999
 20
4.885989999999999
 10
5.732049999999999
 20
4.9098500000265
 10
4.790859999999999
 20
4.90985
 10
4.751239999999999
 20
4.92858640828705
  0
LWPOLYLINE
  5
62
100
AcDbEntity
  8
mainlayer
  6
ByLayer
 62
  256
370
   -1
100
AcDbPolyline
 90
   16
 70
    1
 43
0
 10
4.751239999999999
 20
2.48067
 10
4.723509308011685
 20
2.422030691988315
 10
4.713452924008393
 20
2.417275
 10
4.723509308011685
 20
2.412519308011685
 10
4.751239999999999
 20
2.353879999999999
 10
4.751239999999999
 20
2.334903591712949
 10
4.790859999999999
 20
2.353639999999999
 10
5.732049999999999
 20
2.353639999999999
 10
5.732049999999999
 20
2.37357
 10
5.75351931670533
 20
2.41728
 10
5.749027063595705
 20
2.426425907441617
 10
5.745815981284775
 20
2.427755981284775
 10
5.732049999999999
 20
2.46099
 10
5.732049999999999
 20
2.484850000026501
 10
4.790859999999999
 20
2.484850000000001
 10
4.751239999999999
 20
2.503586408287051
  0
LWPOLYLINE
  5
63
100
AcDbEntity
  8
mainlayer
  6
ByLayer
 62
  256
370
   -1
100
AcDbPolyline
 90
   16
 70
    1
 43
0
 10
3.251239999999999
 20
7.33067
 10
3.223509308011685
 20
7.272030691988315
 10
3.214510223769185
 20
7.267774999999999
 10
3.223509308011685
 20
7.263519308011684
 10
3.251239999999999
 20
7.204879999999998
 10
3.251239999999999
 20
7.185903591712949
 10
3.290859999999999
 20
7.204639999999999
 10
4.23205
 20
7.204639999999999
 10
4.23205
 20
7.224569999999998
 10
4.253273728548097
 20
7.267780000000001
 10
4.249027063595705
 20
7.276425907441618
 10
4.245815981284775
 20
7.277755981284775
 10
4.23205
 20
7.310989999999999
 10
4.23205
 20
7.334850000026501
 10
3.290859999999999
 20
7.33485
 10
3.251239999999999
 20
7.353586408287049
  0
LWPOLYLINE
  5
64
100
AcDbEntity
  8
mainlayer
  6
ByLayer
 62
  256
370
   -1
100
AcDbPolyline
 90
   16
 70
    1
 43
0
 10
3.251239999999999
 20
4.905669999999999
 10
3.223509308011685
 20
4.847030691988314
 10
3.214510223769187
 20
4.842775
 10
3.223509308011685
 20
4.838519308011685
 10
3.251239999999999
 20
4.77988
 10
3.251239999999999
 20
4.76090359171295
 10
3.290859999999999
 20
4.77964
 10
4.23205
 20
4.77964
 10
4.23205
 20
4.79957
 10
4.253273728548097
 20
4.84278
 10
4.249027063595705
 20
4.851425907441616
 10
4.245815981284775
 20
4.852755981284774
 10
4.23205
 20
4.885989999999999
 10
4.23205
 20
4.9098500000265
 10
3.290859999999999
 20
4.90985
 10
3.251239999999999
 20
4.92858640828705
  0
LWPOLYLINE
  5
65
100
AcDbEntity
  8
mainlayer
  6
ByLayer
 62
  256
370
   -1
100
AcDbPolyline
 90
   16
 70
    1
 43
0
 10
3.251239999999999
 20
2.48067
 10
3.223509308011685
 20
2.422030691988315
 10
3.213452924008393
 20
2.417275
 10
3.223509308011685
 20
2.412519308011685
 10
3.251239999999999
 20
2.353879999999999
 10
3.251239999999999
 20
2.334903591712949
 10
3.290859999999999
 20
2.353639999999999
 10
4.23205
 20
2.353639999999999
 10
4.23205
 20
2.37357
 10
4.25351931670533
 20
2.41728
 10
4.249027063595705
 20
2.426425907441617
 10
4.245815981284775
 20
2.427755981284775
 10
4.23205
 20
2.46099
 10
4.23205
 20
2.484850000026501
 10
3.290859999999999
 20
2.484850000000001
 10
3.251239999999999
 20
2.50358640828705
  0
LWPOLYLINE
  5
66
100
AcDbEntity
  8
mainlayer
  6
ByLayer
 62
  256
370
   -1
100
AcDbPolyline
 90
   16
 70
    1
 43
0
 10
1.75124
 20
7.33067
 10
1.723509308011685
 20
7.272030691988315
 10
1.714510223769185
 20
7.267774999999999
 10
1.723509308011685
 20
7.263519308011684
 10
1.75124
 20
7.204879999999998
 10
1.75124
 20
7.185903591712949
 10
1.79086
 20
7.204639999999999
 10
2.73205
 20
7.204639999999999
 10
2.73205
 20
7.224569999999998
 10
2.753273728548098
 20
7.267780000000001
 10
2.749027063595705
 20
7.276425907441618
 10
2.745815981284775
 20
7.277755981284775
 10
2.73205
 20
7.310989999999999
 10
2.73205
 20
7.334850000026501
 10
1.79086
 20
7.33485
 10
1.75124
 20
7.35358640828705
  0
LWPOLYLINE
  5
67
100
AcDbEntity
  8
mainlayer
  6
ByLayer
 62
  256
370
   -1
100
AcDbPolyline
 90
   16
 70
    1
 43
0
 10
1.75124
 20
4.905669999999999
 10
1.723509308011685
 20
4.847030691988314
 10
1.714510223769187
 20
4.842775
 10
1.723509308011685
 20
4.838519308011685
 10
1.75124
 20
4.77988
 10
1.75124
 20
4.76090359171295
 10
1.79086
 20
4.77964
 10
2.73205
 20
4.77964
 10
2.73205
 20
4.79957
 10
2.753273728548097
 20
4.84278
 10
2.749027063595705
 20
4.851425907441616
 10
2.745815981284775
 20
4.852755981284774
 10
2.73205
 20
4.885989999999999
 10
2.73205
 20
4.9098500000265
 10
1.79086
 20
4.90985
 10
1.75124
 20
4.92858640828705
  0
LWPOLYLINE
  5
68
100
AcDbEntity
  8
mainlayer
  6
ByLayer
 62
  256
370
   -1
100
AcDbPolyline
 90
   16
 70
    1
 43
0
 10
1.75124
 20
2.48067
 10
1.723509308011685
 20
2.422030691988315
 10
1.713452924008392
 20
2.417275
 10
1.723509308011685
 20
2.412519308011685
 10
1.75124
 20
2.353879999999999
 10
1.75124
 20
2.334903591712949
 10
1.79086
 20
2.353639999999999
 10
2.73205
 20
2.353639999999999
 10
2.73205
 20
2.37357
 10
2.753519316705331
 20
2.41728
 10
2.749027063595705
 20
2.426425907441617
 10
2.745815981284775
 20
2.427755981284775
 10
2.73205
 20
2.46099
 10
2.73205
 20
2.484850000026501
 10
1.79086
 20
2.484850000000001
 10
1.75124
 20
2.50358640828705
  0
ENDSEC
  0
SECTION
  2
OBJECTS
  0
DICTIONARY
  5
C
330
0
100
AcDbDictionary
281
    1
  3
ACAD_GROUP
350
D
  0
DICTIONARY
  5
D
330
C
100
AcDbDictionary
281
    1
  0
ENDSEC
  0
EOF
