  0
SECTION
  2
HEADER
  9
$ACADVER
  1
AC1014
  9
$INSBASE
 10
0.000000
 20
0.000000
  9
$LIMMIN
 10
-700.000000
 20
-2195.957600
  9
$LIMMAX
 10
1300.000000
 20
1001.000000
  9
$EXTMIN
 10
-700.000000
 20
-2195.957600
  9
$EXTMAX
 10
1300.000000
 20
1001.000000
  9
$ATTMODE
 70
0
  9
$LUNITS
 70
2
  9
$LUPREC
 70
4
  9
$THICKNESS
 40
0.786000
  9
$MEASUREMENT
 70
1
  9
$HANDSEED
  5
138
  0
ENDSEC
  0
SECTION
  2
TABLES
  0
TABLE
  2
LTYPE
  5
4
100
AcDbSymbolTable
 70
3
  0
LTYPE
  5
1
100
AcDbSymbolTableRecord
100
AcDbLinetypeTableRecord
  3

  2
BYBLOCK
 70
0
 72
65
 73
0
 40
0.000000
  0
LTYPE
  5
2
100
AcDbSymbolTableRecord
100
AcDbLinetypeTableRecord
  3

  2
BYLAYER
 70
0
 72
65
 73
0
 40
0.000000
  0
LTYPE
  5
3
100
AcDbSymbolTableRecord
100
AcDbLinetypeTableRecord
  3
Solid Line
  2
CONTINUOUS
 70
0
 72
65
 73
0
 40
0.000000
  0
ENDTAB
  0
TABLE
  2
LAYER
  5
7
100
AcDbSymbolTable
 70
2
  0
LAYER
  5
5
100
AcDbSymbolTableRecord
100
AcDbLayerTableRecord
  2
0
 70
0
 62
7
  6
CONTINUOUS
  0
LAYER
  5
6
100
AcDbSymbolTableRecord
100
AcDbLayerTableRecord
  2
BG_DESIGN_OUTLINE
 70
0
 62
2
  6
CONTINUOUS
  0
ENDTAB
  0
TABLE
  2
STYLE
  5
9
100
AcDbSymbolTable
 70
1
  0
STYLE
  5
8
100
AcDbSymbolTableRecord
100
AcDbTextStyleTableRecord
  2
STANDARD
 70
0
 40
0.000000
 41
1.000000
 50
0.000000
 71
0
 42
0.200000
  3
txt
  0
ENDTAB
  0
TABLE
  2
VPORT
  5
a
100
AcDbSymbolTable
 70
1
  0
ENDTAB
  0
TABLE
  2
VIEW
  5
b
100
AcDbSymbolTable
 70
1
  0
ENDTAB
  0
TABLE
  2
APPID
  5
d
100
AcDbSymbolTable
 70
1
  0
APPID
  5
c
100
AcDbSymbolTableRecord
100
AcDbRegAppTableRecord
  2
ACAD
 70
0
  0
ENDTAB
  0
TABLE
  2
UCS
  5
e
100
AcDbSymbolTable
 70
1
  0
ENDTAB
  0
TABLE
  2
BLOCK_RECORD
  5
f
100
AcDbSymbolTable
 70
10
  0
BLOCK_RECORD
  5
6b
100
AcDbSymbolTableRecord
100
AcDbBlockTableRecord
  2
FIGURE_DIAMOND
  0
BLOCK_RECORD
  5
62
100
AcDbSymbolTableRecord
100
AcDbBlockTableRecord
  2
FIGURE_CROSS
  0
BLOCK_RECORD
  5
57
100
AcDbSymbolTableRecord
100
AcDbBlockTableRecord
  2
FIGURE_TRI
  0
BLOCK_RECORD
  5
4f
100
AcDbSymbolTableRecord
100
AcDbBlockTableRecord
  2
FIGURE_OBLONG
  0
BLOCK_RECORD
  5
3e
100
AcDbSymbolTableRecord
100
AcDbBlockTableRecord
  2
FIGURE_OCT
  0
BLOCK_RECORD
  5
31
100
AcDbSymbolTableRecord
100
AcDbBlockTableRecord
  2
FIGURE_HEX
  0
BLOCK_RECORD
  5
26
100
AcDbSymbolTableRecord
100
AcDbBlockTableRecord
  2
FIGURE_SQUARE
  0
BLOCK_RECORD
  5
1d
100
AcDbSymbolTableRecord
100
AcDbBlockTableRecord
  2
FIGURE_CIRCLE
  0
BLOCK_RECORD
  5
19
100
AcDbSymbolTableRecord
100
AcDbBlockTableRecord
  2
*PAPER_SPACE
  0
BLOCK_RECORD
  5
16
100
AcDbSymbolTableRecord
100
AcDbBlockTableRecord
  2
*MODEL_SPACE
  0
ENDTAB
  0
TABLE
  2
DIMSTYLE
  5
10
100
AcDbSymbolTable
 70
1
  0
ENDTAB
  0
ENDSEC
  0
SECTION
  2
BLOCKS
  0
BLOCK
  5
14
100
AcDbEntity
  8
0
100
AcDbBlockBegin
  2
*MODEL_SPACE
 70
0
 10
0.000000
 20
0.000000
  3
*MODEL_SPACE
  0
ENDBLK
  5
15
100
AcDbEntity
  8
0
100
AcDbBlockEnd
  0
BLOCK
  5
17
100
AcDbEntity
  8
0
100
AcDbBlockBegin
  2
*PAPER_SPACE
 70
0
 10
0.000000
 20
0.000000
  3
*PAPER_SPACE
  0
ENDBLK
  5
18
100
AcDbEntity
  8
0
100
AcDbBlockEnd
  0
BLOCK
  5
1a
100
AcDbEntity
  8
0
100
AcDbBlockBegin
  2
FIGURE_CIRCLE
 70
0
 10
0.000000
 20
0.000000
  3
FIGURE_CIRCLE
  0
CIRCLE
  5
1c
100
AcDbEntity
  8
0
100
AcDbCircle
 10
0.000000
 20
0.000000
 40
0.500000
  0
ENDBLK
  5
1b
100
AcDbEntity
  8
0
100
AcDbBlockEnd
  0
BLOCK
  5
1e
100
AcDbEntity
  8
0
100
AcDbBlockBegin
  2
FIGURE_SQUARE
 70
0
 10
0.000000
 20
0.000000
  3
FIGURE_SQUARE
  0
POLYLINE
  5
20
100
AcDbEntity
  8
0
100
AcDb2dPolyline
 66
1
 70
1
 40
0.000000
 41
0.000000
 39
0.000000
  0
VERTEX
  5
22
100
AcDbEntity
  8
0
100
AcDbVertex
100
AcDb2dVertex
 10
-0.500000
 20
-0.500000
 40
0.000000
 41
0.000000
 42
0.000000
  0
VERTEX
  5
23
100
AcDbEntity
  8
0
100
AcDbVertex
100
AcDb2dVertex
 10
-0.500000
 20
0.500000
 40
0.000000
 41
0.000000
 42
0.000000
  0
VERTEX
  5
24
100
AcDbEntity
  8
0
100
AcDbVertex
100
AcDb2dVertex
 10
0.500000
 20
0.500000
 40
0.000000
 41
0.000000
 42
0.000000
  0
VERTEX
  5
25
100
AcDbEntity
  8
0
100
AcDbVertex
100
AcDb2dVertex
 10
0.500000
 20
-0.500000
 40
0.000000
 41
0.000000
 42
0.000000
  0
SEQEND
  5
21
100
AcDbEntity
  0
ENDBLK
  5
1f
100
AcDbEntity
  8
0
100
AcDbBlockEnd
  0
BLOCK
  5
27
100
AcDbEntity
  8
0
100
AcDbBlockBegin
  2
FIGURE_HEX
 70
0
 10
0.000000
 20
0.000000
  3
FIGURE_HEX
  0
POLYLINE
  5
29
100
AcDbEntity
  8
0
100
AcDb2dPolyline
 66
1
 70
1
 40
0.000000
 41
0.000000
 39
0.000000
  0
VERTEX
  5
2b
100
AcDbEntity
  8
0
100
AcDbVertex
100
AcDb2dVertex
 10
-0.500000
 20
0.000000
 40
0.000000
 41
0.000000
 42
0.000000
  0
VERTEX
  5
2c
100
AcDbEntity
  8
0
100
AcDbVertex
100
AcDb2dVertex
 10
-0.250000
 20
0.500000
 40
0.000000
 41
0.000000
 42
0.000000
  0
VERTEX
  5
2d
100
AcDbEntity
  8
0
100
AcDbVertex
100
AcDb2dVertex
 10
0.250000
 20
0.500000
 40
0.000000
 41
0.000000
 42
0.000000
  0
VERTEX
  5
2e
100
AcDbEntity
  8
0
100
AcDbVertex
100
AcDb2dVertex
 10
0.500000
 20
0.000000
 40
0.000000
 41
0.000000
 42
0.000000
  0
VERTEX
  5
2f
100
AcDbEntity
  8
0
100
AcDbVertex
100
AcDb2dVertex
 10
0.250000
 20
-0.500000
 40
0.000000
 41
0.000000
 42
0.000000
  0
VERTEX
  5
30
100
AcDbEntity
  8
0
100
AcDbVertex
100
AcDb2dVertex
 10
-0.250000
 20
-0.500000
 40
0.000000
 41
0.000000
 42
0.000000
  0
SEQEND
  5
2a
100
AcDbEntity
  0
ENDBLK
  5
28
100
AcDbEntity
  8
0
100
AcDbBlockEnd
  0
BLOCK
  5
32
100
AcDbEntity
  8
0
100
AcDbBlockBegin
  2
FIGURE_OCT
 70
0
 10
0.000000
 20
0.000000
  3
FIGURE_OCT
  0
POLYLINE
  5
34
100
AcDbEntity
  8
0
100
AcDb2dPolyline
 66
1
 70
1
 40
0.000000
 41
0.000000
 39
0.000000
  0
VERTEX
  5
36
100
AcDbEntity
  8
0
100
AcDbVertex
100
AcDb2dVertex
 10
-0.500000
 20
-0.207100
 40
0.000000
 41
0.000000
 42
0.000000
  0
VERTEX
  5
37
100
AcDbEntity
  8
0
100
AcDbVertex
100
AcDb2dVertex
 10
-0.500000
 20
0.207100
 40
0.000000
 41
0.000000
 42
0.000000
  0
VERTEX
  5
38
100
AcDbEntity
  8
0
100
AcDbVertex
100
AcDb2dVertex
 10
-0.207100
 20
0.500000
 40
0.000000
 41
0.000000
 42
0.000000
  0
VERTEX
  5
39
100
AcDbEntity
  8
0
100
AcDbVertex
100
AcDb2dVertex
 10
0.207100
 20
0.500000
 40
0.000000
 41
0.000000
 42
0.000000
  0
VERTEX
  5
3a
100
AcDbEntity
  8
0
100
AcDbVertex
100
AcDb2dVertex
 10
0.500000
 20
0.207100
 40
0.000000
 41
0.000000
 42
0.000000
  0
VERTEX
  5
3b
100
AcDbEntity
  8
0
100
AcDbVertex
100
AcDb2dVertex
 10
0.500000
 20
-0.207100
 40
0.000000
 41
0.000000
 42
0.000000
  0
VERTEX
  5
3c
100
AcDbEntity
  8
0
100
AcDbVertex
100
AcDb2dVertex
 10
0.207100
 20
-0.500000
 40
0.000000
 41
0.000000
 42
0.000000
  0
VERTEX
  5
3d
100
AcDbEntity
  8
0
100
AcDbVertex
100
AcDb2dVertex
 10
-0.207100
 20
-0.500000
 40
0.000000
 41
0.000000
 42
0.000000
  0
SEQEND
  5
35
100
AcDbEntity
  0
ENDBLK
  5
33
100
AcDbEntity
  8
0
100
AcDbBlockEnd
  0
BLOCK
  5
3f
100
AcDbEntity
  8
0
100
AcDbBlockBegin
  2
FIGURE_OBLONG
 70
0
 10
0.000000
 20
0.000000
  3
FIGURE_OBLONG
  0
POLYLINE
  5
41
100
AcDbEntity
  8
0
100
AcDb2dPolyline
 66
1
 70
1
 40
0.000000
 41
0.000000
 39
0.000000
  0
VERTEX
  5
43
100
AcDbEntity
  8
0
100
AcDbVertex
100
AcDb2dVertex
 10
-0.500000
 20
-0.125000
 40
0.000000
 41
0.000000
 42
0.000000
  0
VERTEX
  5
44
100
AcDbEntity
  8
0
100
AcDbVertex
100
AcDb2dVertex
 10
-0.500000
 20
0.125000
 40
0.000000
 41
0.000000
 42
0.000000
  0
VERTEX
  5
45
100
AcDbEntity
  8
0
100
AcDbVertex
100
AcDb2dVertex
 10
-0.416000
 20
0.375000
 40
0.000000
 41
0.000000
 42
0.000000
  0
VERTEX
  5
46
100
AcDbEntity
  8
0
100
AcDbVertex
100
AcDb2dVertex
 10
-0.250000
 20
0.500000
 40
0.000000
 41
0.000000
 42
0.000000
  0
VERTEX
  5
47
100
AcDbEntity
  8
0
100
AcDbVertex
100
AcDb2dVertex
 10
0.250000
 20
0.500000
 40
0.000000
 41
0.000000
 42
0.000000
  0
VERTEX
  5
48
100
AcDbEntity
  8
0
100
AcDbVertex
100
AcDb2dVertex
 10
0.416000
 20
0.375000
 40
0.000000
 41
0.000000
 42
0.000000
  0
VERTEX
  5
49
100
AcDbEntity
  8
0
100
AcDbVertex
100
AcDb2dVertex
 10
0.500000
 20
0.125000
 40
0.000000
 41
0.000000
 42
0.000000
  0
VERTEX
  5
4a
100
AcDbEntity
  8
0
100
AcDbVertex
100
AcDb2dVertex
 10
0.500000
 20
-0.125000
 40
0.000000
 41
0.000000
 42
0.000000
  0
VERTEX
  5
4b
100
AcDbEntity
  8
0
100
AcDbVertex
100
AcDb2dVertex
 10
0.416000
 20
-0.375000
 40
0.000000
 41
0.000000
 42
0.000000
  0
VERTEX
  5
4c
100
AcDbEntity
  8
0
100
AcDbVertex
100
AcDb2dVertex
 10
0.250000
 20
-0.500000
 40
0.000000
 41
0.000000
 42
0.000000
  0
VERTEX
  5
4d
100
AcDbEntity
  8
0
100
AcDbVertex
100
AcDb2dVertex
 10
-0.250000
 20
-0.500000
 40
0.000000
 41
0.000000
 42
0.000000
  0
VERTEX
  5
4e
100
AcDbEntity
  8
0
100
AcDbVertex
100
AcDb2dVertex
 10
-0.416000
 20
-0.375000
 40
0.000000
 41
0.000000
 42
0.000000
  0
SEQEND
  5
42
100
AcDbEntity
  0
ENDBLK
  5
40
100
AcDbEntity
  8
0
100
AcDbBlockEnd
  0
BLOCK
  5
50
100
AcDbEntity
  8
0
100
AcDbBlockBegin
  2
FIGURE_TRI
 70
0
 10
0.000000
 20
0.000000
  3
FIGURE_TRI
  0
POLYLINE
  5
52
100
AcDbEntity
  8
0
100
AcDb2dPolyline
 66
1
 70
1
 40
0.000000
 41
0.000000
 39
0.000000
  0
VERTEX
  5
54
100
AcDbEntity
  8
0
100
AcDbVertex
100
AcDb2dVertex
 10
-0.500000
 20
-0.500000
 40
0.000000
 41
0.000000
 42
0.000000
  0
VERTEX
  5
55
100
AcDbEntity
  8
0
100
AcDbVertex
100
AcDb2dVertex
 10
0.000000
 20
0.500000
 40
0.000000
 41
0.000000
 42
0.000000
  0
VERTEX
  5
56
100
AcDbEntity
  8
0
100
AcDbVertex
100
AcDb2dVertex
 10
0.500000
 20
-0.500000
 40
0.000000
 41
0.000000
 42
0.000000
  0
SEQEND
  5
53
100
AcDbEntity
  0
ENDBLK
  5
51
100
AcDbEntity
  8
0
100
AcDbBlockEnd
  0
BLOCK
  5
58
100
AcDbEntity
  8
0
100
AcDbBlockBegin
  2
FIGURE_CROSS
 70
0
 10
0.000000
 20
0.000000
  3
FIGURE_CROSS
  0
POLYLINE
  5
5a
100
AcDbEntity
  8
0
100
AcDb2dPolyline
 66
1
 70
0
 40
0.000000
 41
0.000000
 39
0.000000
  0
VERTEX
  5
5e
100
AcDbEntity
  8
0
100
AcDbVertex
100
AcDb2dVertex
 10
-0.500000
 20
0.000000
 40
0.000000
 41
0.000000
 42
0.000000
  0
VERTEX
  5
5f
100
AcDbEntity
  8
0
100
AcDbVertex
100
AcDb2dVertex
 10
0.500000
 20
0.000000
 40
0.000000
 41
0.000000
 42
0.000000
  0
SEQEND
  5
5b
100
AcDbEntity
  0
POLYLINE
  5
5c
100
AcDbEntity
  8
0
100
AcDb2dPolyline
 66
1
 70
0
 40
0.000000
 41
0.000000
 39
0.000000
  0
VERTEX
  5
60
100
AcDbEntity
  8
0
100
AcDbVertex
100
AcDb2dVertex
 10
0.000000
 20
0.500000
 40
0.000000
 41
0.000000
 42
0.000000
  0
VERTEX
  5
61
100
AcDbEntity
  8
0
100
AcDbVertex
100
AcDb2dVertex
 10
0.000000
 20
-0.500000
 40
0.000000
 41
0.000000
 42
0.000000
  0
SEQEND
  5
5d
100
AcDbEntity
  0
ENDBLK
  5
59
100
AcDbEntity
  8
0
100
AcDbBlockEnd
  0
BLOCK
  5
63
100
AcDbEntity
  8
0
100
AcDbBlockBegin
  2
FIGURE_DIAMOND
 70
0
 10
0.000000
 20
0.000000
  3
FIGURE_DIAMOND
  0
POLYLINE
  5
65
100
AcDbEntity
  8
0
100
AcDb2dPolyline
 66
1
 70
1
 40
0.000000
 41
0.000000
 39
0.000000
  0
VERTEX
  5
67
100
AcDbEntity
  8
0
100
AcDbVertex
100
AcDb2dVertex
 10
-0.500000
 20
0.000000
 40
0.000000
 41
0.000000
 42
0.000000
  0
VERTEX
  5
68
100
AcDbEntity
  8
0
100
AcDbVertex
100
AcDb2dVertex
 10
0.000000
 20
0.500000
 40
0.000000
 41
0.000000
 42
0.000000
  0
VERTEX
  5
69
100
AcDbEntity
  8
0
100
AcDbVertex
100
AcDb2dVertex
 10
0.500000
 20
0.000000
 40
0.000000
 41
0.000000
 42
0.000000
  0
VERTEX
  5
6a
100
AcDbEntity
  8
0
100
AcDbVertex
100
AcDb2dVertex
 10
0.000000
 20
-0.500000
 40
0.000000
 41
0.000000
 42
0.000000
  0
SEQEND
  5
66
100
AcDbEntity
  0
ENDBLK
  5
64
100
AcDbEntity
  8
0
100
AcDbBlockEnd
  0
ENDSEC
  0
SECTION
  2
ENTITIES
  0
LWPOLYLINE
  5
6c
100
AcDbEntity
  8
BG_DESIGN_OUTLINE
100
AcDbPolyline
 90
203
 70
1
 39
0.000000
 10
-11.740000
 20
57.030000
 40
0.000000
 41
0.000000
 42
0.000000
 10
-11.740000
 20
66.963000
 40
0.000000
 41
0.000000
 42
0.414214
 10
-12.040000
 20
67.263000
 40
0.000000
 41
0.000000
 42
0.000000
 10
-12.840000
 20
67.263000
 40
0.000000
 41
0.000000
 42
-1.000000
 10
-12.840000
 20
68.863000
 40
0.000000
 41
0.000000
 42
0.000000
 10
-12.540000
 20
68.863000
 40
0.000000
 41
0.000000
 42
0.414214
 10
-12.240000
 20
69.163000
 40
0.000000
 41
0.000000
 42
0.000000
 10
-12.240000
 20
70.830000
 40
0.000000
 41
0.000000
 42
0.414214
 10
-12.540000
 20
71.130000
 40
0.000000
 41
0.000000
 42
0.000000
 10
-15.966400
 20
71.130000
 40
0.000000
 41
0.000000
 42
0.363749
 10
-16.261800
 20
70.882300
 40
0.000000
 41
0.000000
 42
-0.363749
 10
-17.660000
 20
69.710000
 40
0.000000
 41
0.000000
 42
0.000000
 10
-18.577100
 20
69.710000
 40
0.000000
 41
0.000000
 42
0.334780
 10
-18.865500
 20
69.492500
 40
0.000000
 41
0.000000
 42
-0.869578
 10
-22.200000
 20
69.960000
 40
0.000000
 41
0.000000
 42
0.000000
 10
-22.200000
 20
70.830000
 40
0.000000
 41
0.000000
 42
0.414214
 10
-22.500000
 20
71.130000
 40
0.000000
 41
0.000000
 42
0.000000
 10
-26.000000
 20
71.130000
 40
0.000000
 41
0.000000
 42
-0.414214
 10
-27.000000
 20
72.130000
 40
0.000000
 41
0.000000
 42
0.000000
 10
-27.000000
 20
78.620000
 40
0.000000
 41
0.000000
 42
0.414214
 10
-27.300000
 20
78.920000
 40
0.000000
 41
0.000000
 42
0.000000
 10
-27.770000
 20
78.920000
 40
0.000000
 41
0.000000
 42
0.002759
 10
-27.920700
 20
78.910400
 40
0.000000
 41
0.000000
 42
0.394142
 10
-28.200000
 20
78.611200
 40
0.000000
 41
0.000000
 42
0.000000
 10
-28.200000
 20
77.620000
 40
0.000000
 41
0.000000
 42
-1.000000
 10
-29.800000
 20
77.620000
 40
0.000000
 41
0.000000
 42
0.000000
 10
-29.800000
 20
78.189200
 40
0.000000
 41
0.000000
 42
0.518323
 10
-30.200600
 20
78.471800
 40
0.000000
 41
0.000000
 42
0.012712
 10
-30.503300
 20
78.355400
 40
0.000000
 41
0.000000
 42
0.013095
 10
-30.795200
 20
78.225400
 40
0.000000
 41
0.000000
 42
0.013459
 10
-31.076200
 20
78.082000
 40
0.000000
 41
0.000000
 42
0.013798
 10
-31.345800
 20
77.925300
 40
0.000000
 41
0.000000
 42
0.014103
 10
-31.603800
 20
77.755400
 40
0.000000
 41
0.000000
 42
0.014366
 10
-31.850000
 20
77.572400
 40
0.000000
 41
0.000000
 42
0.029339
 10
-32.305600
 20
77.167600
 40
0.000000
 41
0.000000
 42
0.017765
 10
-32.556000
 20
76.898800
 40
0.000000
 41
0.000000
 42
0.017521
 10
-32.787600
 20
76.611900
 40
0.000000
 41
0.000000
 42
0.017186
 10
-33.000200
 20
76.307600
 40
0.000000
 41
0.000000
 42
0.016774
 10
-33.193700
 20
75.986100
 40
0.000000
 41
0.000000
 42
0.016299
 10
-33.367800
 20
75.648200
 40
0.000000
 41
0.000000
 42
0.015779
 10
-33.522300
 20
75.294200
 40
0.000000
 41
0.000000
 42
0.015227
 10
-33.657000
 20
74.924800
 40
0.000000
 41
0.000000
 42
0.014659
 10
-33.771600
 20
74.540300
 40
0.000000
 41
0.000000
 42
0.007005
 10
-33.821400
 20
74.342600
 40
0.000000
 41
0.000000
 42
0.006641
 10
-33.866200
 20
74.141200
 40
0.000000
 41
0.000000
 42
0.006278
 10
-33.906400
 20
73.936300
 40
0.000000
 41
0.000000
 42
0.005918
 10
-33.942000
 20
73.727700
 40
0.000000
 41
0.000000
 42
0.005563
 10
-33.973200
 20
73.515500
 40
0.000000
 41
0.000000
 42
0.005215
 10
-34.000200
 20
73.299700
 40
0.000000
 41
0.000000
 42
0.004876
 10
-34.023200
 20
73.080200
 40
0.000000
 41
0.000000
 42
0.004546
 10
-34.042300
 20
72.857200
 40
0.000000
 41
0.000000
 42
0.006269
 10
-34.064800
 20
72.504000
 40
0.000000
 41
0.000000
 42
0.005241
 10
-34.079500
 20
72.141900
 40
0.000000
 41
0.000000
 42
0.004268
 10
-34.087600
 20
71.770600
 40
0.000000
 41
0.000000
 42
0.003354
 10
-34.090000
 20
71.390000
 40
0.000000
 41
0.000000
 42
0.000000
 10
-34.090000
 20
52.730000
 40
0.000000
 41
0.000000
 42
0.414214
 10
-33.790000
 20
52.430000
 40
0.000000
 41
0.000000
 42
0.000000
 10
-30.590000
 20
52.430000
 40
0.000000
 41
0.000000
 42
-0.414214
 10
-30.290000
 20
52.130000
 40
0.000000
 41
0.000000
 42
0.000000
 10
-30.290000
 20
50.540000
 40
0.000000
 41
0.000000
 42
-0.414214
 10
-30.590000
 20
50.240000
 40
0.000000
 41
0.000000
 42
0.000000
 10
-33.790000
 20
50.240000
 40
0.000000
 41
0.000000
 42
0.414214
 10
-34.090000
 20
49.940000
 40
0.000000
 41
0.000000
 42
0.000000
 10
-34.090000
 20
37.900000
 40
0.000000
 41
0.000000
 42
-0.267949
 10
-34.240000
 20
37.640200
 40
0.000000
 41
0.000000
 42
0.267949
 10
-34.390000
 20
37.380400
 40
0.000000
 41
0.000000
 42
0.000000
 10
-34.390000
 20
34.519600
 40
0.000000
 41
0.000000
 42
0.267949
 10
-34.240000
 20
34.259800
 40
0.000000
 41
0.000000
 42
-0.267949
 10
-34.090000
 20
34.000000
 40
0.000000
 41
0.000000
 42
0.000000
 10
-34.090000
 20
31.300000
 40
0.000000
 41
0.000000
 42
-0.267949
 10
-34.240000
 20
31.040200
 40
0.000000
 41
0.000000
 42
0.267949
 10
-34.390000
 20
30.780400
 40
0.000000
 41
0.000000
 42
0.000000
 10
-34.390000
 20
27.919600
 40
0.000000
 41
0.000000
 42
0.267949
 10
-34.240000
 20
27.659800
 40
0.000000
 41
0.000000
 42
-0.267949
 10
-34.090000
 20
27.400000
 40
0.000000
 41
0.000000
 42
0.000000
 10
-34.090000
 20
4.100000
 40
0.000000
 41
0.000000
 42
0.414214
 10
-33.790000
 20
3.800000
 40
0.000000
 41
0.000000
 42
0.000000
 10
-32.610000
 20
3.800000
 40
0.000000
 41
0.000000
 42
-1.000000
 10
-32.610000
 20
2.200000
 40
0.000000
 41
0.000000
 42
0.000000
 10
-33.790000
 20
2.200000
 40
0.000000
 41
0.000000
 42
0.414214
 10
-34.090000
 20
1.900000
 40
0.000000
 41
0.000000
 42
0.000000
 10
-34.090000
 20
1.000000
 40
0.000000
 41
0.000000
 42
0.414214
 10
-33.790000
 20
0.700000
 40
0.000000
 41
0.000000
 42
0.000000
 10
-33.370000
 20
0.700000
 40
0.000000
 41
0.000000
 42
-0.414214
 10
-33.070000
 20
0.400000
 40
0.000000
 41
0.000000
 42
0.000000
 10
-33.070000
 20
-14.680000
 40
0.000000
 41
0.000000
 42
-0.414214
 10
-33.370000
 20
-14.980000
 40
0.000000
 41
0.000000
 42
0.000000
 10
-33.790000
 20
-14.980000
 40
0.000000
 41
0.000000
 42
0.414214
 10
-34.090000
 20
-15.280000
 40
0.000000
 41
0.000000
 42
0.000000
 10
-34.090000
 20
-15.700000
 40
0.000000
 41
0.000000
 42
0.414214
 10
-33.790000
 20
-16.000000
 40
0.000000
 41
0.000000
 42
0.000000
 10
-32.770000
 20
-16.000000
 40
0.000000
 41
0.000000
 42
-1.000000
 10
-32.770000
 20
-17.600000
 40
0.000000
 41
0.000000
 42
0.000000
 10
-33.790000
 20
-17.600000
 40
0.000000
 41
0.000000
 42
0.414214
 10
-34.090000
 20
-17.900000
 40
0.000000
 41
0.000000
 42
0.000000
 10
-34.090000
 20
-67.440000
 40
0.000000
 41
0.000000
 42
0.004048
 10
-34.076900
 20
-67.719700
 40
0.000000
 41
0.000000
 42
0.004901
 10
-34.059200
 20
-67.994400
 40
0.000000
 41
0.000000
 42
0.004426
 10
-34.041000
 20
-68.211000
 40
0.000000
 41
0.000000
 42
0.004722
 10
-34.019300
 20
-68.424400
 40
0.000000
 41
0.000000
 42
0.005027
 10
-33.993600
 20
-68.634700
 40
0.000000
 41
0.000000
 42
0.005339
 10
-33.964000
 20
-68.841700
 40
0.000000
 41
0.000000
 42
0.005658
 10
-33.930300
 20
-69.045600
 40
0.000000
 41
0.000000
 42
0.005982
 10
-33.892300
 20
-69.246100
 40
0.000000
 41
0.000000
 42
0.006309
 10
-33.849900
 20
-69.443400
 40
0.000000
 41
0.000000
 42
0.006637
 10
-33.802900
 20
-69.637500
 40
0.000000
 41
0.000000
 42
0.013874
 10
-33.694700
 20
-70.015700
 40
0.000000
 41
0.000000
 42
0.014421
 10
-33.567800
 20
-70.380200
 40
0.000000
 41
0.000000
 42
0.014964
 10
-33.422200
 20
-70.730500
 40
0.000000
 41
0.000000
 42
0.015489
 10
-33.258000
 20
-71.066100
 40
0.000000
 41
0.000000
 42
0.015984
 10
-33.075500
 20
-71.386400
 40
0.000000
 41
0.000000
 42
0.016435
 10
-32.874800
 20
-71.691000
 40
0.000000
 41
0.000000
 42
0.016826
 10
-32.656000
 20
-71.979300
 40
0.000000
 41
0.000000
 42
0.017142
 10
-32.419300
 20
-72.250700
 40
0.000000
 41
0.000000
 42
0.019603
 10
-32.127900
 20
-72.539000
 40
0.000000
 41
0.000000
 42
0.187366
 10
-31.925400
 20
-72.617600
 40
0.000000
 41
0.000000
 42
0.000000
 10
-27.282800
 20
-72.617600
 40
0.000000
 41
0.000000
 42
0.213422
 10
-27.059200
 20
-72.517600
 40
0.000000
 41
0.000000
 42
-0.213422
 10
-26.835600
 20
-72.417600
 40
0.000000
 41
0.000000
 42
0.000000
 10
-14.294300
 20
-72.417600
 40
0.000000
 41
0.000000
 42
0.374417
 10
-13.997200
 20
-72.158800
 40
0.000000
 41
0.000000
 42
-0.327396
 10
-13.750000
 20
-71.904200
 40
0.000000
 41
0.000000
 42
0.365977
 10
-13.500000
 20
-71.608400
 40
0.000000
 41
0.000000
 42
0.000000
 10
-13.500000
 20
-66.760000
 40
0.000000
 41
0.000000
 42
0.414214
 10
-13.800000
 20
-66.460000
 40
0.000000
 41
0.000000
 42
0.000000
 10
-26.990000
 20
-66.460000
 40
0.000000
 41
0.000000
 42
-0.414214
 10
-27.990000
 20
-65.460000
 40
0.000000
 41
0.000000
 42
0.000000
 10
-27.990000
 20
-58.460000
 40
0.000000
 41
0.000000
 42
-0.414214
 10
-26.990000
 20
-57.460000
 40
0.000000
 41
0.000000
 42
0.000000
 10
-24.090000
 20
-57.460000
 40
0.000000
 41
0.000000
 42
0.414214
 10
-23.790000
 20
-57.160000
 40
0.000000
 41
0.000000
 42
0.000000
 10
-23.790000
 20
-55.960000
 40
0.000000
 41
0.000000
 42
-1.000000
 10
-22.190000
 20
-55.960000
 40
0.000000
 41
0.000000
 42
0.000000
 10
-22.190000
 20
-57.160000
 40
0.000000
 41
0.000000
 42
0.414214
 10
-21.890000
 20
-57.460000
 40
0.000000
 41
0.000000
 42
0.000000
 10
-17.290000
 20
-57.460000
 40
0.000000
 41
0.000000
 42
0.414214
 10
-16.990000
 20
-57.160000
 40
0.000000
 41
0.000000
 42
0.000000
 10
-16.990000
 20
-24.265700
 40
0.000000
 41
0.000000
 42
0.317837
 10
-17.190000
 20
-23.982800
 40
0.000000
 41
0.000000
 42
-0.317837
 10
-17.390000
 20
-23.700000
 40
0.000000
 41
0.000000
 42
0.000000
 10
-17.390000
 20
-0.100000
 40
0.000000
 41
0.000000
 42
-0.317837
 10
-17.190000
 20
0.182800
 40
0.000000
 41
0.000000
 42
0.317837
 10
-16.990000
 20
0.465700
 40
0.000000
 41
0.000000
 42
0.000000
 10
-16.990000
 20
41.370000
 40
0.000000
 41
0.000000
 42
-0.414214
 10
-15.990000
 20
42.370000
 40
0.000000
 41
0.000000
 42
0.000000
 10
-14.590000
 20
42.370000
 40
0.000000
 41
0.000000
 42
0.414214
 10
-14.290000
 20
42.670000
 40
0.000000
 41
0.000000
 42
0.000000
 10
-14.290000
 20
43.870000
 40
0.000000
 41
0.000000
 42
-1.000000
 10
-12.690000
 20
43.870000
 40
0.000000
 41
0.000000
 42
0.000000
 10
-12.690000
 20
42.670000
 40
0.000000
 41
0.000000
 42
0.414214
 10
-12.390000
 20
42.370000
 40
0.000000
 41
0.000000
 42
0.000000
 10
-6.654400
 20
42.370000
 40
0.000000
 41
0.000000
 42
0.213422
 10
-6.430800
 20
42.470000
 40
0.000000
 41
0.000000
 42
-0.213422
 10
-6.207200
 20
42.570000
 40
0.000000
 41
0.000000
 42
0.000000
 10
0.227200
 20
42.570000
 40
0.000000
 41
0.000000
 42
-0.213422
 10
0.450800
 20
42.470000
 40
0.000000
 41
0.000000
 42
0.213422
 10
0.674400
 20
42.370000
 40
0.000000
 41
0.000000
 42
0.000000
 10
2.500000
 20
42.370000
 40
0.000000
 41
0.000000
 42
0.414214
 10
2.800000
 20
42.670000
 40
0.000000
 41
0.000000
 42
0.000000
 10
2.800000
 20
43.870000
 40
0.000000
 41
0.000000
 42
-1.000000
 10
4.400000
 20
43.870000
 40
0.000000
 41
0.000000
 42
0.000000
 10
4.400000
 20
42.670000
 40
0.000000
 41
0.000000
 42
0.414214
 10
4.700000
 20
42.370000
 40
0.000000
 41
0.000000
 42
0.000000
 10
5.210000
 20
42.370000
 40
0.000000
 41
0.000000
 42
0.414214
 10
5.510000
 20
42.670000
 40
0.000000
 41
0.000000
 42
0.000000
 10
5.510000
 20
42.770000
 40
0.000000
 41
0.000000
 42
-0.414214
 10
5.810000
 20
43.070000
 40
0.000000
 41
0.000000
 42
0.000000
 10
28.817600
 20
43.070000
 40
0.000000
 41
0.000000
 42
0.414214
 10
29.117600
 20
43.370000
 40
0.000000
 41
0.000000
 42
0.000000
 10
29.117600
 20
43.515400
 40
0.000000
 41
0.000000
 42
0.244255
 10
28.990100
 20
43.760900
 40
0.000000
 41
0.000000
 42
-0.714263
 10
29.833000
 20
46.668200
 40
0.000000
 41
0.000000
 42
0.223246
 10
30.471900
 20
47.006800
 40
0.000000
 41
0.000000
 42
-0.235909
 10
31.791300
 20
47.666000
 40
0.000000
 41
0.000000
 42
0.000000
 10
33.395800
 20
47.666000
 40
0.000000
 41
0.000000
 42
0.103148
 10
33.515700
 20
47.691000
 40
0.000000
 41
0.000000
 42
0.260173
 10
34.047000
 20
48.389000
 40
0.000000
 41
0.000000
 42
0.035400
 10
34.050000
 20
48.431300
 40
0.000000
 41
0.000000
 42
0.000000
 10
34.050000
 20
56.400000
 40
0.000000
 41
0.000000
 42
0.414214
 10
33.750000
 20
56.700000
 40
0.000000
 41
0.000000
 42
0.000000
 10
32.850000
 20
56.700000
 40
0.000000
 41
0.000000
 42
0.414214
 10
32.550000
 20
56.400000
 40
0.000000
 41
0.000000
 42
0.000000
 10
32.550000
 20
55.200000
 40
0.000000
 41
0.000000
 42
-1.000000
 10
30.950000
 20
55.200000
 40
0.000000
 41
0.000000
 42
0.000000
 10
30.950000
 20
56.400000
 40
0.000000
 41
0.000000
 42
0.414214
 10
30.650000
 20
56.700000
 40
0.000000
 41
0.000000
 42
0.000000
 10
17.200000
 20
56.700000
 40
0.000000
 41
0.000000
 42
-0.365977
 10
16.904200
 20
56.950000
 40
0.000000
 41
0.000000
 42
0.365977
 10
16.608400
 20
57.200000
 40
0.000000
 41
0.000000
 42
0.000000
 10
11.291600
 20
57.200000
 40
0.000000
 41
0.000000
 42
0.365977
 10
10.995800
 20
56.950000
 40
0.000000
 41
0.000000
 42
-0.365977
 10
10.700000
 20
56.700000
 40
0.000000
 41
0.000000
 42
0.000000
 10
5.400000
 20
56.700000
 40
0.000000
 41
0.000000
 42
0.414214
 10
5.100000
 20
56.400000
 40
0.000000
 41
0.000000
 42
0.000000
 10
5.100000
 20
56.330000
 40
0.000000
 41
0.000000
 42
-0.414214
 10
4.800000
 20
56.030000
 40
0.000000
 41
0.000000
 42
0.000000
 10
3.260000
 20
56.030000
 40
0.000000
 41
0.000000
 42
0.414214
 10
2.960000
 20
55.730000
 40
0.000000
 41
0.000000
 42
0.000000
 10
2.960000
 20
55.210000
 40
0.000000
 41
0.000000
 42
-1.000000
 10
1.360000
 20
55.210000
 40
0.000000
 41
0.000000
 42
0.000000
 10
1.360000
 20
55.730000
 40
0.000000
 41
0.000000
 42
0.414214
 10
1.060000
 20
56.030000
 40
0.000000
 41
0.000000
 42
0.000000
 10
-10.740000
 20
56.030000
 40
0.000000
 41
0.000000
 42
-0.414214
  0
ENDSEC
  0
SECTION
  2
OBJECTS
  0
DICTIONARY
  5
11
100
AcDbDictionary
  3
ACAD_GROUP
350
12
  3
ACAD_MLINESTYLE
350
13
  0
DICTIONARY
  5
12
100
AcDbDictionary
  0
DICTIONARY
  5
13
100
AcDbDictionary
  0
ENDSEC
  0
EOF
